%TF.GenerationSoftware,KiCad,Pcbnew,(5.1.4)-1*%
%TF.CreationDate,2019-11-23T11:30:54-08:00*%
%TF.ProjectId,20191120_Projects_CellMonitor,32303139-3131-4323-905f-50726f6a6563,rev?*%
%TF.SameCoordinates,PXb71b000PYd787c80*%
%TF.FileFunction,Paste,Top*%
%TF.FilePolarity,Positive*%
%FSLAX46Y46*%
G04 Gerber Fmt 4.6, Leading zero omitted, Abs format (unit mm)*
G04 Created by KiCad (PCBNEW (5.1.4)-1) date 2019-11-23 11:30:54*
%MOMM*%
%LPD*%
G04 APERTURE LIST*
%ADD10R,2.200000X2.000000*%
%ADD11C,0.100000*%
%ADD12C,0.950000*%
%ADD13C,1.425000*%
%ADD14C,1.150000*%
%ADD15R,0.800000X0.900000*%
%ADD16C,0.875000*%
%ADD17R,2.540000X5.080000*%
%ADD18R,3.500000X1.000000*%
%ADD19R,3.500000X1.600000*%
%ADD20R,3.000000X1.000000*%
%ADD21R,1.600000X0.550000*%
%ADD22R,0.550000X1.600000*%
%ADD23R,1.500000X0.450000*%
%ADD24R,1.560000X0.650000*%
%ADD25R,1.500000X2.000000*%
%ADD26R,1.500000X0.400000*%
G04 APERTURE END LIST*
D10*
X27760000Y14250000D03*
X32840000Y14250000D03*
X32840000Y10050000D03*
X27760000Y10050000D03*
D11*
G36*
X25760779Y12723856D02*
G01*
X25783834Y12720437D01*
X25806443Y12714773D01*
X25828387Y12706921D01*
X25849457Y12696956D01*
X25869448Y12684974D01*
X25888168Y12671090D01*
X25905438Y12655438D01*
X25921090Y12638168D01*
X25934974Y12619448D01*
X25946956Y12599457D01*
X25956921Y12578387D01*
X25964773Y12556443D01*
X25970437Y12533834D01*
X25973856Y12510779D01*
X25975000Y12487500D01*
X25975000Y11912500D01*
X25973856Y11889221D01*
X25970437Y11866166D01*
X25964773Y11843557D01*
X25956921Y11821613D01*
X25946956Y11800543D01*
X25934974Y11780552D01*
X25921090Y11761832D01*
X25905438Y11744562D01*
X25888168Y11728910D01*
X25869448Y11715026D01*
X25849457Y11703044D01*
X25828387Y11693079D01*
X25806443Y11685227D01*
X25783834Y11679563D01*
X25760779Y11676144D01*
X25737500Y11675000D01*
X25262500Y11675000D01*
X25239221Y11676144D01*
X25216166Y11679563D01*
X25193557Y11685227D01*
X25171613Y11693079D01*
X25150543Y11703044D01*
X25130552Y11715026D01*
X25111832Y11728910D01*
X25094562Y11744562D01*
X25078910Y11761832D01*
X25065026Y11780552D01*
X25053044Y11800543D01*
X25043079Y11821613D01*
X25035227Y11843557D01*
X25029563Y11866166D01*
X25026144Y11889221D01*
X25025000Y11912500D01*
X25025000Y12487500D01*
X25026144Y12510779D01*
X25029563Y12533834D01*
X25035227Y12556443D01*
X25043079Y12578387D01*
X25053044Y12599457D01*
X25065026Y12619448D01*
X25078910Y12638168D01*
X25094562Y12655438D01*
X25111832Y12671090D01*
X25130552Y12684974D01*
X25150543Y12696956D01*
X25171613Y12706921D01*
X25193557Y12714773D01*
X25216166Y12720437D01*
X25239221Y12723856D01*
X25262500Y12725000D01*
X25737500Y12725000D01*
X25760779Y12723856D01*
X25760779Y12723856D01*
G37*
D12*
X25500000Y12200000D03*
D11*
G36*
X25760779Y14473856D02*
G01*
X25783834Y14470437D01*
X25806443Y14464773D01*
X25828387Y14456921D01*
X25849457Y14446956D01*
X25869448Y14434974D01*
X25888168Y14421090D01*
X25905438Y14405438D01*
X25921090Y14388168D01*
X25934974Y14369448D01*
X25946956Y14349457D01*
X25956921Y14328387D01*
X25964773Y14306443D01*
X25970437Y14283834D01*
X25973856Y14260779D01*
X25975000Y14237500D01*
X25975000Y13662500D01*
X25973856Y13639221D01*
X25970437Y13616166D01*
X25964773Y13593557D01*
X25956921Y13571613D01*
X25946956Y13550543D01*
X25934974Y13530552D01*
X25921090Y13511832D01*
X25905438Y13494562D01*
X25888168Y13478910D01*
X25869448Y13465026D01*
X25849457Y13453044D01*
X25828387Y13443079D01*
X25806443Y13435227D01*
X25783834Y13429563D01*
X25760779Y13426144D01*
X25737500Y13425000D01*
X25262500Y13425000D01*
X25239221Y13426144D01*
X25216166Y13429563D01*
X25193557Y13435227D01*
X25171613Y13443079D01*
X25150543Y13453044D01*
X25130552Y13465026D01*
X25111832Y13478910D01*
X25094562Y13494562D01*
X25078910Y13511832D01*
X25065026Y13530552D01*
X25053044Y13550543D01*
X25043079Y13571613D01*
X25035227Y13593557D01*
X25029563Y13616166D01*
X25026144Y13639221D01*
X25025000Y13662500D01*
X25025000Y14237500D01*
X25026144Y14260779D01*
X25029563Y14283834D01*
X25035227Y14306443D01*
X25043079Y14328387D01*
X25053044Y14349457D01*
X25065026Y14369448D01*
X25078910Y14388168D01*
X25094562Y14405438D01*
X25111832Y14421090D01*
X25130552Y14434974D01*
X25150543Y14446956D01*
X25171613Y14456921D01*
X25193557Y14464773D01*
X25216166Y14470437D01*
X25239221Y14473856D01*
X25262500Y14475000D01*
X25737500Y14475000D01*
X25760779Y14473856D01*
X25760779Y14473856D01*
G37*
D12*
X25500000Y13950000D03*
D11*
G36*
X15260779Y4498856D02*
G01*
X15283834Y4495437D01*
X15306443Y4489773D01*
X15328387Y4481921D01*
X15349457Y4471956D01*
X15369448Y4459974D01*
X15388168Y4446090D01*
X15405438Y4430438D01*
X15421090Y4413168D01*
X15434974Y4394448D01*
X15446956Y4374457D01*
X15456921Y4353387D01*
X15464773Y4331443D01*
X15470437Y4308834D01*
X15473856Y4285779D01*
X15475000Y4262500D01*
X15475000Y3687500D01*
X15473856Y3664221D01*
X15470437Y3641166D01*
X15464773Y3618557D01*
X15456921Y3596613D01*
X15446956Y3575543D01*
X15434974Y3555552D01*
X15421090Y3536832D01*
X15405438Y3519562D01*
X15388168Y3503910D01*
X15369448Y3490026D01*
X15349457Y3478044D01*
X15328387Y3468079D01*
X15306443Y3460227D01*
X15283834Y3454563D01*
X15260779Y3451144D01*
X15237500Y3450000D01*
X14762500Y3450000D01*
X14739221Y3451144D01*
X14716166Y3454563D01*
X14693557Y3460227D01*
X14671613Y3468079D01*
X14650543Y3478044D01*
X14630552Y3490026D01*
X14611832Y3503910D01*
X14594562Y3519562D01*
X14578910Y3536832D01*
X14565026Y3555552D01*
X14553044Y3575543D01*
X14543079Y3596613D01*
X14535227Y3618557D01*
X14529563Y3641166D01*
X14526144Y3664221D01*
X14525000Y3687500D01*
X14525000Y4262500D01*
X14526144Y4285779D01*
X14529563Y4308834D01*
X14535227Y4331443D01*
X14543079Y4353387D01*
X14553044Y4374457D01*
X14565026Y4394448D01*
X14578910Y4413168D01*
X14594562Y4430438D01*
X14611832Y4446090D01*
X14630552Y4459974D01*
X14650543Y4471956D01*
X14671613Y4481921D01*
X14693557Y4489773D01*
X14716166Y4495437D01*
X14739221Y4498856D01*
X14762500Y4500000D01*
X15237500Y4500000D01*
X15260779Y4498856D01*
X15260779Y4498856D01*
G37*
D12*
X15000000Y3975000D03*
D11*
G36*
X15260779Y2748856D02*
G01*
X15283834Y2745437D01*
X15306443Y2739773D01*
X15328387Y2731921D01*
X15349457Y2721956D01*
X15369448Y2709974D01*
X15388168Y2696090D01*
X15405438Y2680438D01*
X15421090Y2663168D01*
X15434974Y2644448D01*
X15446956Y2624457D01*
X15456921Y2603387D01*
X15464773Y2581443D01*
X15470437Y2558834D01*
X15473856Y2535779D01*
X15475000Y2512500D01*
X15475000Y1937500D01*
X15473856Y1914221D01*
X15470437Y1891166D01*
X15464773Y1868557D01*
X15456921Y1846613D01*
X15446956Y1825543D01*
X15434974Y1805552D01*
X15421090Y1786832D01*
X15405438Y1769562D01*
X15388168Y1753910D01*
X15369448Y1740026D01*
X15349457Y1728044D01*
X15328387Y1718079D01*
X15306443Y1710227D01*
X15283834Y1704563D01*
X15260779Y1701144D01*
X15237500Y1700000D01*
X14762500Y1700000D01*
X14739221Y1701144D01*
X14716166Y1704563D01*
X14693557Y1710227D01*
X14671613Y1718079D01*
X14650543Y1728044D01*
X14630552Y1740026D01*
X14611832Y1753910D01*
X14594562Y1769562D01*
X14578910Y1786832D01*
X14565026Y1805552D01*
X14553044Y1825543D01*
X14543079Y1846613D01*
X14535227Y1868557D01*
X14529563Y1891166D01*
X14526144Y1914221D01*
X14525000Y1937500D01*
X14525000Y2512500D01*
X14526144Y2535779D01*
X14529563Y2558834D01*
X14535227Y2581443D01*
X14543079Y2603387D01*
X14553044Y2624457D01*
X14565026Y2644448D01*
X14578910Y2663168D01*
X14594562Y2680438D01*
X14611832Y2696090D01*
X14630552Y2709974D01*
X14650543Y2721956D01*
X14671613Y2731921D01*
X14693557Y2739773D01*
X14716166Y2745437D01*
X14739221Y2748856D01*
X14762500Y2750000D01*
X15237500Y2750000D01*
X15260779Y2748856D01*
X15260779Y2748856D01*
G37*
D12*
X15000000Y2225000D03*
D11*
G36*
X15210779Y22773856D02*
G01*
X15233834Y22770437D01*
X15256443Y22764773D01*
X15278387Y22756921D01*
X15299457Y22746956D01*
X15319448Y22734974D01*
X15338168Y22721090D01*
X15355438Y22705438D01*
X15371090Y22688168D01*
X15384974Y22669448D01*
X15396956Y22649457D01*
X15406921Y22628387D01*
X15414773Y22606443D01*
X15420437Y22583834D01*
X15423856Y22560779D01*
X15425000Y22537500D01*
X15425000Y21962500D01*
X15423856Y21939221D01*
X15420437Y21916166D01*
X15414773Y21893557D01*
X15406921Y21871613D01*
X15396956Y21850543D01*
X15384974Y21830552D01*
X15371090Y21811832D01*
X15355438Y21794562D01*
X15338168Y21778910D01*
X15319448Y21765026D01*
X15299457Y21753044D01*
X15278387Y21743079D01*
X15256443Y21735227D01*
X15233834Y21729563D01*
X15210779Y21726144D01*
X15187500Y21725000D01*
X14712500Y21725000D01*
X14689221Y21726144D01*
X14666166Y21729563D01*
X14643557Y21735227D01*
X14621613Y21743079D01*
X14600543Y21753044D01*
X14580552Y21765026D01*
X14561832Y21778910D01*
X14544562Y21794562D01*
X14528910Y21811832D01*
X14515026Y21830552D01*
X14503044Y21850543D01*
X14493079Y21871613D01*
X14485227Y21893557D01*
X14479563Y21916166D01*
X14476144Y21939221D01*
X14475000Y21962500D01*
X14475000Y22537500D01*
X14476144Y22560779D01*
X14479563Y22583834D01*
X14485227Y22606443D01*
X14493079Y22628387D01*
X14503044Y22649457D01*
X14515026Y22669448D01*
X14528910Y22688168D01*
X14544562Y22705438D01*
X14561832Y22721090D01*
X14580552Y22734974D01*
X14600543Y22746956D01*
X14621613Y22756921D01*
X14643557Y22764773D01*
X14666166Y22770437D01*
X14689221Y22773856D01*
X14712500Y22775000D01*
X15187500Y22775000D01*
X15210779Y22773856D01*
X15210779Y22773856D01*
G37*
D12*
X14950000Y22250000D03*
D11*
G36*
X15210779Y24523856D02*
G01*
X15233834Y24520437D01*
X15256443Y24514773D01*
X15278387Y24506921D01*
X15299457Y24496956D01*
X15319448Y24484974D01*
X15338168Y24471090D01*
X15355438Y24455438D01*
X15371090Y24438168D01*
X15384974Y24419448D01*
X15396956Y24399457D01*
X15406921Y24378387D01*
X15414773Y24356443D01*
X15420437Y24333834D01*
X15423856Y24310779D01*
X15425000Y24287500D01*
X15425000Y23712500D01*
X15423856Y23689221D01*
X15420437Y23666166D01*
X15414773Y23643557D01*
X15406921Y23621613D01*
X15396956Y23600543D01*
X15384974Y23580552D01*
X15371090Y23561832D01*
X15355438Y23544562D01*
X15338168Y23528910D01*
X15319448Y23515026D01*
X15299457Y23503044D01*
X15278387Y23493079D01*
X15256443Y23485227D01*
X15233834Y23479563D01*
X15210779Y23476144D01*
X15187500Y23475000D01*
X14712500Y23475000D01*
X14689221Y23476144D01*
X14666166Y23479563D01*
X14643557Y23485227D01*
X14621613Y23493079D01*
X14600543Y23503044D01*
X14580552Y23515026D01*
X14561832Y23528910D01*
X14544562Y23544562D01*
X14528910Y23561832D01*
X14515026Y23580552D01*
X14503044Y23600543D01*
X14493079Y23621613D01*
X14485227Y23643557D01*
X14479563Y23666166D01*
X14476144Y23689221D01*
X14475000Y23712500D01*
X14475000Y24287500D01*
X14476144Y24310779D01*
X14479563Y24333834D01*
X14485227Y24356443D01*
X14493079Y24378387D01*
X14503044Y24399457D01*
X14515026Y24419448D01*
X14528910Y24438168D01*
X14544562Y24455438D01*
X14561832Y24471090D01*
X14580552Y24484974D01*
X14600543Y24496956D01*
X14621613Y24506921D01*
X14643557Y24514773D01*
X14666166Y24520437D01*
X14689221Y24523856D01*
X14712500Y24525000D01*
X15187500Y24525000D01*
X15210779Y24523856D01*
X15210779Y24523856D01*
G37*
D12*
X14950000Y24000000D03*
D11*
G36*
X15210779Y14498856D02*
G01*
X15233834Y14495437D01*
X15256443Y14489773D01*
X15278387Y14481921D01*
X15299457Y14471956D01*
X15319448Y14459974D01*
X15338168Y14446090D01*
X15355438Y14430438D01*
X15371090Y14413168D01*
X15384974Y14394448D01*
X15396956Y14374457D01*
X15406921Y14353387D01*
X15414773Y14331443D01*
X15420437Y14308834D01*
X15423856Y14285779D01*
X15425000Y14262500D01*
X15425000Y13687500D01*
X15423856Y13664221D01*
X15420437Y13641166D01*
X15414773Y13618557D01*
X15406921Y13596613D01*
X15396956Y13575543D01*
X15384974Y13555552D01*
X15371090Y13536832D01*
X15355438Y13519562D01*
X15338168Y13503910D01*
X15319448Y13490026D01*
X15299457Y13478044D01*
X15278387Y13468079D01*
X15256443Y13460227D01*
X15233834Y13454563D01*
X15210779Y13451144D01*
X15187500Y13450000D01*
X14712500Y13450000D01*
X14689221Y13451144D01*
X14666166Y13454563D01*
X14643557Y13460227D01*
X14621613Y13468079D01*
X14600543Y13478044D01*
X14580552Y13490026D01*
X14561832Y13503910D01*
X14544562Y13519562D01*
X14528910Y13536832D01*
X14515026Y13555552D01*
X14503044Y13575543D01*
X14493079Y13596613D01*
X14485227Y13618557D01*
X14479563Y13641166D01*
X14476144Y13664221D01*
X14475000Y13687500D01*
X14475000Y14262500D01*
X14476144Y14285779D01*
X14479563Y14308834D01*
X14485227Y14331443D01*
X14493079Y14353387D01*
X14503044Y14374457D01*
X14515026Y14394448D01*
X14528910Y14413168D01*
X14544562Y14430438D01*
X14561832Y14446090D01*
X14580552Y14459974D01*
X14600543Y14471956D01*
X14621613Y14481921D01*
X14643557Y14489773D01*
X14666166Y14495437D01*
X14689221Y14498856D01*
X14712500Y14500000D01*
X15187500Y14500000D01*
X15210779Y14498856D01*
X15210779Y14498856D01*
G37*
D12*
X14950000Y13975000D03*
D11*
G36*
X15210779Y12748856D02*
G01*
X15233834Y12745437D01*
X15256443Y12739773D01*
X15278387Y12731921D01*
X15299457Y12721956D01*
X15319448Y12709974D01*
X15338168Y12696090D01*
X15355438Y12680438D01*
X15371090Y12663168D01*
X15384974Y12644448D01*
X15396956Y12624457D01*
X15406921Y12603387D01*
X15414773Y12581443D01*
X15420437Y12558834D01*
X15423856Y12535779D01*
X15425000Y12512500D01*
X15425000Y11937500D01*
X15423856Y11914221D01*
X15420437Y11891166D01*
X15414773Y11868557D01*
X15406921Y11846613D01*
X15396956Y11825543D01*
X15384974Y11805552D01*
X15371090Y11786832D01*
X15355438Y11769562D01*
X15338168Y11753910D01*
X15319448Y11740026D01*
X15299457Y11728044D01*
X15278387Y11718079D01*
X15256443Y11710227D01*
X15233834Y11704563D01*
X15210779Y11701144D01*
X15187500Y11700000D01*
X14712500Y11700000D01*
X14689221Y11701144D01*
X14666166Y11704563D01*
X14643557Y11710227D01*
X14621613Y11718079D01*
X14600543Y11728044D01*
X14580552Y11740026D01*
X14561832Y11753910D01*
X14544562Y11769562D01*
X14528910Y11786832D01*
X14515026Y11805552D01*
X14503044Y11825543D01*
X14493079Y11846613D01*
X14485227Y11868557D01*
X14479563Y11891166D01*
X14476144Y11914221D01*
X14475000Y11937500D01*
X14475000Y12512500D01*
X14476144Y12535779D01*
X14479563Y12558834D01*
X14485227Y12581443D01*
X14493079Y12603387D01*
X14503044Y12624457D01*
X14515026Y12644448D01*
X14528910Y12663168D01*
X14544562Y12680438D01*
X14561832Y12696090D01*
X14580552Y12709974D01*
X14600543Y12721956D01*
X14621613Y12731921D01*
X14643557Y12739773D01*
X14666166Y12745437D01*
X14689221Y12748856D01*
X14712500Y12750000D01*
X15187500Y12750000D01*
X15210779Y12748856D01*
X15210779Y12748856D01*
G37*
D12*
X14950000Y12225000D03*
D11*
G36*
X15110779Y34548856D02*
G01*
X15133834Y34545437D01*
X15156443Y34539773D01*
X15178387Y34531921D01*
X15199457Y34521956D01*
X15219448Y34509974D01*
X15238168Y34496090D01*
X15255438Y34480438D01*
X15271090Y34463168D01*
X15284974Y34444448D01*
X15296956Y34424457D01*
X15306921Y34403387D01*
X15314773Y34381443D01*
X15320437Y34358834D01*
X15323856Y34335779D01*
X15325000Y34312500D01*
X15325000Y33737500D01*
X15323856Y33714221D01*
X15320437Y33691166D01*
X15314773Y33668557D01*
X15306921Y33646613D01*
X15296956Y33625543D01*
X15284974Y33605552D01*
X15271090Y33586832D01*
X15255438Y33569562D01*
X15238168Y33553910D01*
X15219448Y33540026D01*
X15199457Y33528044D01*
X15178387Y33518079D01*
X15156443Y33510227D01*
X15133834Y33504563D01*
X15110779Y33501144D01*
X15087500Y33500000D01*
X14612500Y33500000D01*
X14589221Y33501144D01*
X14566166Y33504563D01*
X14543557Y33510227D01*
X14521613Y33518079D01*
X14500543Y33528044D01*
X14480552Y33540026D01*
X14461832Y33553910D01*
X14444562Y33569562D01*
X14428910Y33586832D01*
X14415026Y33605552D01*
X14403044Y33625543D01*
X14393079Y33646613D01*
X14385227Y33668557D01*
X14379563Y33691166D01*
X14376144Y33714221D01*
X14375000Y33737500D01*
X14375000Y34312500D01*
X14376144Y34335779D01*
X14379563Y34358834D01*
X14385227Y34381443D01*
X14393079Y34403387D01*
X14403044Y34424457D01*
X14415026Y34444448D01*
X14428910Y34463168D01*
X14444562Y34480438D01*
X14461832Y34496090D01*
X14480552Y34509974D01*
X14500543Y34521956D01*
X14521613Y34531921D01*
X14543557Y34539773D01*
X14566166Y34545437D01*
X14589221Y34548856D01*
X14612500Y34550000D01*
X15087500Y34550000D01*
X15110779Y34548856D01*
X15110779Y34548856D01*
G37*
D12*
X14850000Y34025000D03*
D11*
G36*
X15110779Y32798856D02*
G01*
X15133834Y32795437D01*
X15156443Y32789773D01*
X15178387Y32781921D01*
X15199457Y32771956D01*
X15219448Y32759974D01*
X15238168Y32746090D01*
X15255438Y32730438D01*
X15271090Y32713168D01*
X15284974Y32694448D01*
X15296956Y32674457D01*
X15306921Y32653387D01*
X15314773Y32631443D01*
X15320437Y32608834D01*
X15323856Y32585779D01*
X15325000Y32562500D01*
X15325000Y31987500D01*
X15323856Y31964221D01*
X15320437Y31941166D01*
X15314773Y31918557D01*
X15306921Y31896613D01*
X15296956Y31875543D01*
X15284974Y31855552D01*
X15271090Y31836832D01*
X15255438Y31819562D01*
X15238168Y31803910D01*
X15219448Y31790026D01*
X15199457Y31778044D01*
X15178387Y31768079D01*
X15156443Y31760227D01*
X15133834Y31754563D01*
X15110779Y31751144D01*
X15087500Y31750000D01*
X14612500Y31750000D01*
X14589221Y31751144D01*
X14566166Y31754563D01*
X14543557Y31760227D01*
X14521613Y31768079D01*
X14500543Y31778044D01*
X14480552Y31790026D01*
X14461832Y31803910D01*
X14444562Y31819562D01*
X14428910Y31836832D01*
X14415026Y31855552D01*
X14403044Y31875543D01*
X14393079Y31896613D01*
X14385227Y31918557D01*
X14379563Y31941166D01*
X14376144Y31964221D01*
X14375000Y31987500D01*
X14375000Y32562500D01*
X14376144Y32585779D01*
X14379563Y32608834D01*
X14385227Y32631443D01*
X14393079Y32653387D01*
X14403044Y32674457D01*
X14415026Y32694448D01*
X14428910Y32713168D01*
X14444562Y32730438D01*
X14461832Y32746090D01*
X14480552Y32759974D01*
X14500543Y32771956D01*
X14521613Y32781921D01*
X14543557Y32789773D01*
X14566166Y32795437D01*
X14589221Y32798856D01*
X14612500Y32800000D01*
X15087500Y32800000D01*
X15110779Y32798856D01*
X15110779Y32798856D01*
G37*
D12*
X14850000Y32275000D03*
D11*
G36*
X36360779Y25523856D02*
G01*
X36383834Y25520437D01*
X36406443Y25514773D01*
X36428387Y25506921D01*
X36449457Y25496956D01*
X36469448Y25484974D01*
X36488168Y25471090D01*
X36505438Y25455438D01*
X36521090Y25438168D01*
X36534974Y25419448D01*
X36546956Y25399457D01*
X36556921Y25378387D01*
X36564773Y25356443D01*
X36570437Y25333834D01*
X36573856Y25310779D01*
X36575000Y25287500D01*
X36575000Y24812500D01*
X36573856Y24789221D01*
X36570437Y24766166D01*
X36564773Y24743557D01*
X36556921Y24721613D01*
X36546956Y24700543D01*
X36534974Y24680552D01*
X36521090Y24661832D01*
X36505438Y24644562D01*
X36488168Y24628910D01*
X36469448Y24615026D01*
X36449457Y24603044D01*
X36428387Y24593079D01*
X36406443Y24585227D01*
X36383834Y24579563D01*
X36360779Y24576144D01*
X36337500Y24575000D01*
X35762500Y24575000D01*
X35739221Y24576144D01*
X35716166Y24579563D01*
X35693557Y24585227D01*
X35671613Y24593079D01*
X35650543Y24603044D01*
X35630552Y24615026D01*
X35611832Y24628910D01*
X35594562Y24644562D01*
X35578910Y24661832D01*
X35565026Y24680552D01*
X35553044Y24700543D01*
X35543079Y24721613D01*
X35535227Y24743557D01*
X35529563Y24766166D01*
X35526144Y24789221D01*
X35525000Y24812500D01*
X35525000Y25287500D01*
X35526144Y25310779D01*
X35529563Y25333834D01*
X35535227Y25356443D01*
X35543079Y25378387D01*
X35553044Y25399457D01*
X35565026Y25419448D01*
X35578910Y25438168D01*
X35594562Y25455438D01*
X35611832Y25471090D01*
X35630552Y25484974D01*
X35650543Y25496956D01*
X35671613Y25506921D01*
X35693557Y25514773D01*
X35716166Y25520437D01*
X35739221Y25523856D01*
X35762500Y25525000D01*
X36337500Y25525000D01*
X36360779Y25523856D01*
X36360779Y25523856D01*
G37*
D12*
X36050000Y25050000D03*
D11*
G36*
X38110779Y25523856D02*
G01*
X38133834Y25520437D01*
X38156443Y25514773D01*
X38178387Y25506921D01*
X38199457Y25496956D01*
X38219448Y25484974D01*
X38238168Y25471090D01*
X38255438Y25455438D01*
X38271090Y25438168D01*
X38284974Y25419448D01*
X38296956Y25399457D01*
X38306921Y25378387D01*
X38314773Y25356443D01*
X38320437Y25333834D01*
X38323856Y25310779D01*
X38325000Y25287500D01*
X38325000Y24812500D01*
X38323856Y24789221D01*
X38320437Y24766166D01*
X38314773Y24743557D01*
X38306921Y24721613D01*
X38296956Y24700543D01*
X38284974Y24680552D01*
X38271090Y24661832D01*
X38255438Y24644562D01*
X38238168Y24628910D01*
X38219448Y24615026D01*
X38199457Y24603044D01*
X38178387Y24593079D01*
X38156443Y24585227D01*
X38133834Y24579563D01*
X38110779Y24576144D01*
X38087500Y24575000D01*
X37512500Y24575000D01*
X37489221Y24576144D01*
X37466166Y24579563D01*
X37443557Y24585227D01*
X37421613Y24593079D01*
X37400543Y24603044D01*
X37380552Y24615026D01*
X37361832Y24628910D01*
X37344562Y24644562D01*
X37328910Y24661832D01*
X37315026Y24680552D01*
X37303044Y24700543D01*
X37293079Y24721613D01*
X37285227Y24743557D01*
X37279563Y24766166D01*
X37276144Y24789221D01*
X37275000Y24812500D01*
X37275000Y25287500D01*
X37276144Y25310779D01*
X37279563Y25333834D01*
X37285227Y25356443D01*
X37293079Y25378387D01*
X37303044Y25399457D01*
X37315026Y25419448D01*
X37328910Y25438168D01*
X37344562Y25455438D01*
X37361832Y25471090D01*
X37380552Y25484974D01*
X37400543Y25496956D01*
X37421613Y25506921D01*
X37443557Y25514773D01*
X37466166Y25520437D01*
X37489221Y25523856D01*
X37512500Y25525000D01*
X38087500Y25525000D01*
X38110779Y25523856D01*
X38110779Y25523856D01*
G37*
D12*
X37800000Y25050000D03*
D11*
G36*
X34010779Y17898856D02*
G01*
X34033834Y17895437D01*
X34056443Y17889773D01*
X34078387Y17881921D01*
X34099457Y17871956D01*
X34119448Y17859974D01*
X34138168Y17846090D01*
X34155438Y17830438D01*
X34171090Y17813168D01*
X34184974Y17794448D01*
X34196956Y17774457D01*
X34206921Y17753387D01*
X34214773Y17731443D01*
X34220437Y17708834D01*
X34223856Y17685779D01*
X34225000Y17662500D01*
X34225000Y17087500D01*
X34223856Y17064221D01*
X34220437Y17041166D01*
X34214773Y17018557D01*
X34206921Y16996613D01*
X34196956Y16975543D01*
X34184974Y16955552D01*
X34171090Y16936832D01*
X34155438Y16919562D01*
X34138168Y16903910D01*
X34119448Y16890026D01*
X34099457Y16878044D01*
X34078387Y16868079D01*
X34056443Y16860227D01*
X34033834Y16854563D01*
X34010779Y16851144D01*
X33987500Y16850000D01*
X33512500Y16850000D01*
X33489221Y16851144D01*
X33466166Y16854563D01*
X33443557Y16860227D01*
X33421613Y16868079D01*
X33400543Y16878044D01*
X33380552Y16890026D01*
X33361832Y16903910D01*
X33344562Y16919562D01*
X33328910Y16936832D01*
X33315026Y16955552D01*
X33303044Y16975543D01*
X33293079Y16996613D01*
X33285227Y17018557D01*
X33279563Y17041166D01*
X33276144Y17064221D01*
X33275000Y17087500D01*
X33275000Y17662500D01*
X33276144Y17685779D01*
X33279563Y17708834D01*
X33285227Y17731443D01*
X33293079Y17753387D01*
X33303044Y17774457D01*
X33315026Y17794448D01*
X33328910Y17813168D01*
X33344562Y17830438D01*
X33361832Y17846090D01*
X33380552Y17859974D01*
X33400543Y17871956D01*
X33421613Y17881921D01*
X33443557Y17889773D01*
X33466166Y17895437D01*
X33489221Y17898856D01*
X33512500Y17900000D01*
X33987500Y17900000D01*
X34010779Y17898856D01*
X34010779Y17898856D01*
G37*
D12*
X33750000Y17375000D03*
D11*
G36*
X34010779Y19648856D02*
G01*
X34033834Y19645437D01*
X34056443Y19639773D01*
X34078387Y19631921D01*
X34099457Y19621956D01*
X34119448Y19609974D01*
X34138168Y19596090D01*
X34155438Y19580438D01*
X34171090Y19563168D01*
X34184974Y19544448D01*
X34196956Y19524457D01*
X34206921Y19503387D01*
X34214773Y19481443D01*
X34220437Y19458834D01*
X34223856Y19435779D01*
X34225000Y19412500D01*
X34225000Y18837500D01*
X34223856Y18814221D01*
X34220437Y18791166D01*
X34214773Y18768557D01*
X34206921Y18746613D01*
X34196956Y18725543D01*
X34184974Y18705552D01*
X34171090Y18686832D01*
X34155438Y18669562D01*
X34138168Y18653910D01*
X34119448Y18640026D01*
X34099457Y18628044D01*
X34078387Y18618079D01*
X34056443Y18610227D01*
X34033834Y18604563D01*
X34010779Y18601144D01*
X33987500Y18600000D01*
X33512500Y18600000D01*
X33489221Y18601144D01*
X33466166Y18604563D01*
X33443557Y18610227D01*
X33421613Y18618079D01*
X33400543Y18628044D01*
X33380552Y18640026D01*
X33361832Y18653910D01*
X33344562Y18669562D01*
X33328910Y18686832D01*
X33315026Y18705552D01*
X33303044Y18725543D01*
X33293079Y18746613D01*
X33285227Y18768557D01*
X33279563Y18791166D01*
X33276144Y18814221D01*
X33275000Y18837500D01*
X33275000Y19412500D01*
X33276144Y19435779D01*
X33279563Y19458834D01*
X33285227Y19481443D01*
X33293079Y19503387D01*
X33303044Y19524457D01*
X33315026Y19544448D01*
X33328910Y19563168D01*
X33344562Y19580438D01*
X33361832Y19596090D01*
X33380552Y19609974D01*
X33400543Y19621956D01*
X33421613Y19631921D01*
X33443557Y19639773D01*
X33466166Y19645437D01*
X33489221Y19648856D01*
X33512500Y19650000D01*
X33987500Y19650000D01*
X34010779Y19648856D01*
X34010779Y19648856D01*
G37*
D12*
X33750000Y19125000D03*
D11*
G36*
X46460779Y13573856D02*
G01*
X46483834Y13570437D01*
X46506443Y13564773D01*
X46528387Y13556921D01*
X46549457Y13546956D01*
X46569448Y13534974D01*
X46588168Y13521090D01*
X46605438Y13505438D01*
X46621090Y13488168D01*
X46634974Y13469448D01*
X46646956Y13449457D01*
X46656921Y13428387D01*
X46664773Y13406443D01*
X46670437Y13383834D01*
X46673856Y13360779D01*
X46675000Y13337500D01*
X46675000Y12762500D01*
X46673856Y12739221D01*
X46670437Y12716166D01*
X46664773Y12693557D01*
X46656921Y12671613D01*
X46646956Y12650543D01*
X46634974Y12630552D01*
X46621090Y12611832D01*
X46605438Y12594562D01*
X46588168Y12578910D01*
X46569448Y12565026D01*
X46549457Y12553044D01*
X46528387Y12543079D01*
X46506443Y12535227D01*
X46483834Y12529563D01*
X46460779Y12526144D01*
X46437500Y12525000D01*
X45962500Y12525000D01*
X45939221Y12526144D01*
X45916166Y12529563D01*
X45893557Y12535227D01*
X45871613Y12543079D01*
X45850543Y12553044D01*
X45830552Y12565026D01*
X45811832Y12578910D01*
X45794562Y12594562D01*
X45778910Y12611832D01*
X45765026Y12630552D01*
X45753044Y12650543D01*
X45743079Y12671613D01*
X45735227Y12693557D01*
X45729563Y12716166D01*
X45726144Y12739221D01*
X45725000Y12762500D01*
X45725000Y13337500D01*
X45726144Y13360779D01*
X45729563Y13383834D01*
X45735227Y13406443D01*
X45743079Y13428387D01*
X45753044Y13449457D01*
X45765026Y13469448D01*
X45778910Y13488168D01*
X45794562Y13505438D01*
X45811832Y13521090D01*
X45830552Y13534974D01*
X45850543Y13546956D01*
X45871613Y13556921D01*
X45893557Y13564773D01*
X45916166Y13570437D01*
X45939221Y13573856D01*
X45962500Y13575000D01*
X46437500Y13575000D01*
X46460779Y13573856D01*
X46460779Y13573856D01*
G37*
D12*
X46200000Y13050000D03*
D11*
G36*
X46460779Y15323856D02*
G01*
X46483834Y15320437D01*
X46506443Y15314773D01*
X46528387Y15306921D01*
X46549457Y15296956D01*
X46569448Y15284974D01*
X46588168Y15271090D01*
X46605438Y15255438D01*
X46621090Y15238168D01*
X46634974Y15219448D01*
X46646956Y15199457D01*
X46656921Y15178387D01*
X46664773Y15156443D01*
X46670437Y15133834D01*
X46673856Y15110779D01*
X46675000Y15087500D01*
X46675000Y14512500D01*
X46673856Y14489221D01*
X46670437Y14466166D01*
X46664773Y14443557D01*
X46656921Y14421613D01*
X46646956Y14400543D01*
X46634974Y14380552D01*
X46621090Y14361832D01*
X46605438Y14344562D01*
X46588168Y14328910D01*
X46569448Y14315026D01*
X46549457Y14303044D01*
X46528387Y14293079D01*
X46506443Y14285227D01*
X46483834Y14279563D01*
X46460779Y14276144D01*
X46437500Y14275000D01*
X45962500Y14275000D01*
X45939221Y14276144D01*
X45916166Y14279563D01*
X45893557Y14285227D01*
X45871613Y14293079D01*
X45850543Y14303044D01*
X45830552Y14315026D01*
X45811832Y14328910D01*
X45794562Y14344562D01*
X45778910Y14361832D01*
X45765026Y14380552D01*
X45753044Y14400543D01*
X45743079Y14421613D01*
X45735227Y14443557D01*
X45729563Y14466166D01*
X45726144Y14489221D01*
X45725000Y14512500D01*
X45725000Y15087500D01*
X45726144Y15110779D01*
X45729563Y15133834D01*
X45735227Y15156443D01*
X45743079Y15178387D01*
X45753044Y15199457D01*
X45765026Y15219448D01*
X45778910Y15238168D01*
X45794562Y15255438D01*
X45811832Y15271090D01*
X45830552Y15284974D01*
X45850543Y15296956D01*
X45871613Y15306921D01*
X45893557Y15314773D01*
X45916166Y15320437D01*
X45939221Y15323856D01*
X45962500Y15325000D01*
X46437500Y15325000D01*
X46460779Y15323856D01*
X46460779Y15323856D01*
G37*
D12*
X46200000Y14800000D03*
D11*
G36*
X46460779Y16973856D02*
G01*
X46483834Y16970437D01*
X46506443Y16964773D01*
X46528387Y16956921D01*
X46549457Y16946956D01*
X46569448Y16934974D01*
X46588168Y16921090D01*
X46605438Y16905438D01*
X46621090Y16888168D01*
X46634974Y16869448D01*
X46646956Y16849457D01*
X46656921Y16828387D01*
X46664773Y16806443D01*
X46670437Y16783834D01*
X46673856Y16760779D01*
X46675000Y16737500D01*
X46675000Y16162500D01*
X46673856Y16139221D01*
X46670437Y16116166D01*
X46664773Y16093557D01*
X46656921Y16071613D01*
X46646956Y16050543D01*
X46634974Y16030552D01*
X46621090Y16011832D01*
X46605438Y15994562D01*
X46588168Y15978910D01*
X46569448Y15965026D01*
X46549457Y15953044D01*
X46528387Y15943079D01*
X46506443Y15935227D01*
X46483834Y15929563D01*
X46460779Y15926144D01*
X46437500Y15925000D01*
X45962500Y15925000D01*
X45939221Y15926144D01*
X45916166Y15929563D01*
X45893557Y15935227D01*
X45871613Y15943079D01*
X45850543Y15953044D01*
X45830552Y15965026D01*
X45811832Y15978910D01*
X45794562Y15994562D01*
X45778910Y16011832D01*
X45765026Y16030552D01*
X45753044Y16050543D01*
X45743079Y16071613D01*
X45735227Y16093557D01*
X45729563Y16116166D01*
X45726144Y16139221D01*
X45725000Y16162500D01*
X45725000Y16737500D01*
X45726144Y16760779D01*
X45729563Y16783834D01*
X45735227Y16806443D01*
X45743079Y16828387D01*
X45753044Y16849457D01*
X45765026Y16869448D01*
X45778910Y16888168D01*
X45794562Y16905438D01*
X45811832Y16921090D01*
X45830552Y16934974D01*
X45850543Y16946956D01*
X45871613Y16956921D01*
X45893557Y16964773D01*
X45916166Y16970437D01*
X45939221Y16973856D01*
X45962500Y16975000D01*
X46437500Y16975000D01*
X46460779Y16973856D01*
X46460779Y16973856D01*
G37*
D12*
X46200000Y16450000D03*
D11*
G36*
X46460779Y18723856D02*
G01*
X46483834Y18720437D01*
X46506443Y18714773D01*
X46528387Y18706921D01*
X46549457Y18696956D01*
X46569448Y18684974D01*
X46588168Y18671090D01*
X46605438Y18655438D01*
X46621090Y18638168D01*
X46634974Y18619448D01*
X46646956Y18599457D01*
X46656921Y18578387D01*
X46664773Y18556443D01*
X46670437Y18533834D01*
X46673856Y18510779D01*
X46675000Y18487500D01*
X46675000Y17912500D01*
X46673856Y17889221D01*
X46670437Y17866166D01*
X46664773Y17843557D01*
X46656921Y17821613D01*
X46646956Y17800543D01*
X46634974Y17780552D01*
X46621090Y17761832D01*
X46605438Y17744562D01*
X46588168Y17728910D01*
X46569448Y17715026D01*
X46549457Y17703044D01*
X46528387Y17693079D01*
X46506443Y17685227D01*
X46483834Y17679563D01*
X46460779Y17676144D01*
X46437500Y17675000D01*
X45962500Y17675000D01*
X45939221Y17676144D01*
X45916166Y17679563D01*
X45893557Y17685227D01*
X45871613Y17693079D01*
X45850543Y17703044D01*
X45830552Y17715026D01*
X45811832Y17728910D01*
X45794562Y17744562D01*
X45778910Y17761832D01*
X45765026Y17780552D01*
X45753044Y17800543D01*
X45743079Y17821613D01*
X45735227Y17843557D01*
X45729563Y17866166D01*
X45726144Y17889221D01*
X45725000Y17912500D01*
X45725000Y18487500D01*
X45726144Y18510779D01*
X45729563Y18533834D01*
X45735227Y18556443D01*
X45743079Y18578387D01*
X45753044Y18599457D01*
X45765026Y18619448D01*
X45778910Y18638168D01*
X45794562Y18655438D01*
X45811832Y18671090D01*
X45830552Y18684974D01*
X45850543Y18696956D01*
X45871613Y18706921D01*
X45893557Y18714773D01*
X45916166Y18720437D01*
X45939221Y18723856D01*
X45962500Y18725000D01*
X46437500Y18725000D01*
X46460779Y18723856D01*
X46460779Y18723856D01*
G37*
D12*
X46200000Y18200000D03*
D11*
G36*
X56560779Y26298856D02*
G01*
X56583834Y26295437D01*
X56606443Y26289773D01*
X56628387Y26281921D01*
X56649457Y26271956D01*
X56669448Y26259974D01*
X56688168Y26246090D01*
X56705438Y26230438D01*
X56721090Y26213168D01*
X56734974Y26194448D01*
X56746956Y26174457D01*
X56756921Y26153387D01*
X56764773Y26131443D01*
X56770437Y26108834D01*
X56773856Y26085779D01*
X56775000Y26062500D01*
X56775000Y25487500D01*
X56773856Y25464221D01*
X56770437Y25441166D01*
X56764773Y25418557D01*
X56756921Y25396613D01*
X56746956Y25375543D01*
X56734974Y25355552D01*
X56721090Y25336832D01*
X56705438Y25319562D01*
X56688168Y25303910D01*
X56669448Y25290026D01*
X56649457Y25278044D01*
X56628387Y25268079D01*
X56606443Y25260227D01*
X56583834Y25254563D01*
X56560779Y25251144D01*
X56537500Y25250000D01*
X56062500Y25250000D01*
X56039221Y25251144D01*
X56016166Y25254563D01*
X55993557Y25260227D01*
X55971613Y25268079D01*
X55950543Y25278044D01*
X55930552Y25290026D01*
X55911832Y25303910D01*
X55894562Y25319562D01*
X55878910Y25336832D01*
X55865026Y25355552D01*
X55853044Y25375543D01*
X55843079Y25396613D01*
X55835227Y25418557D01*
X55829563Y25441166D01*
X55826144Y25464221D01*
X55825000Y25487500D01*
X55825000Y26062500D01*
X55826144Y26085779D01*
X55829563Y26108834D01*
X55835227Y26131443D01*
X55843079Y26153387D01*
X55853044Y26174457D01*
X55865026Y26194448D01*
X55878910Y26213168D01*
X55894562Y26230438D01*
X55911832Y26246090D01*
X55930552Y26259974D01*
X55950543Y26271956D01*
X55971613Y26281921D01*
X55993557Y26289773D01*
X56016166Y26295437D01*
X56039221Y26298856D01*
X56062500Y26300000D01*
X56537500Y26300000D01*
X56560779Y26298856D01*
X56560779Y26298856D01*
G37*
D12*
X56300000Y25775000D03*
D11*
G36*
X56560779Y28048856D02*
G01*
X56583834Y28045437D01*
X56606443Y28039773D01*
X56628387Y28031921D01*
X56649457Y28021956D01*
X56669448Y28009974D01*
X56688168Y27996090D01*
X56705438Y27980438D01*
X56721090Y27963168D01*
X56734974Y27944448D01*
X56746956Y27924457D01*
X56756921Y27903387D01*
X56764773Y27881443D01*
X56770437Y27858834D01*
X56773856Y27835779D01*
X56775000Y27812500D01*
X56775000Y27237500D01*
X56773856Y27214221D01*
X56770437Y27191166D01*
X56764773Y27168557D01*
X56756921Y27146613D01*
X56746956Y27125543D01*
X56734974Y27105552D01*
X56721090Y27086832D01*
X56705438Y27069562D01*
X56688168Y27053910D01*
X56669448Y27040026D01*
X56649457Y27028044D01*
X56628387Y27018079D01*
X56606443Y27010227D01*
X56583834Y27004563D01*
X56560779Y27001144D01*
X56537500Y27000000D01*
X56062500Y27000000D01*
X56039221Y27001144D01*
X56016166Y27004563D01*
X55993557Y27010227D01*
X55971613Y27018079D01*
X55950543Y27028044D01*
X55930552Y27040026D01*
X55911832Y27053910D01*
X55894562Y27069562D01*
X55878910Y27086832D01*
X55865026Y27105552D01*
X55853044Y27125543D01*
X55843079Y27146613D01*
X55835227Y27168557D01*
X55829563Y27191166D01*
X55826144Y27214221D01*
X55825000Y27237500D01*
X55825000Y27812500D01*
X55826144Y27835779D01*
X55829563Y27858834D01*
X55835227Y27881443D01*
X55843079Y27903387D01*
X55853044Y27924457D01*
X55865026Y27944448D01*
X55878910Y27963168D01*
X55894562Y27980438D01*
X55911832Y27996090D01*
X55930552Y28009974D01*
X55950543Y28021956D01*
X55971613Y28031921D01*
X55993557Y28039773D01*
X56016166Y28045437D01*
X56039221Y28048856D01*
X56062500Y28050000D01*
X56537500Y28050000D01*
X56560779Y28048856D01*
X56560779Y28048856D01*
G37*
D12*
X56300000Y27525000D03*
D11*
G36*
X56735779Y6273856D02*
G01*
X56758834Y6270437D01*
X56781443Y6264773D01*
X56803387Y6256921D01*
X56824457Y6246956D01*
X56844448Y6234974D01*
X56863168Y6221090D01*
X56880438Y6205438D01*
X56896090Y6188168D01*
X56909974Y6169448D01*
X56921956Y6149457D01*
X56931921Y6128387D01*
X56939773Y6106443D01*
X56945437Y6083834D01*
X56948856Y6060779D01*
X56950000Y6037500D01*
X56950000Y5562500D01*
X56948856Y5539221D01*
X56945437Y5516166D01*
X56939773Y5493557D01*
X56931921Y5471613D01*
X56921956Y5450543D01*
X56909974Y5430552D01*
X56896090Y5411832D01*
X56880438Y5394562D01*
X56863168Y5378910D01*
X56844448Y5365026D01*
X56824457Y5353044D01*
X56803387Y5343079D01*
X56781443Y5335227D01*
X56758834Y5329563D01*
X56735779Y5326144D01*
X56712500Y5325000D01*
X56137500Y5325000D01*
X56114221Y5326144D01*
X56091166Y5329563D01*
X56068557Y5335227D01*
X56046613Y5343079D01*
X56025543Y5353044D01*
X56005552Y5365026D01*
X55986832Y5378910D01*
X55969562Y5394562D01*
X55953910Y5411832D01*
X55940026Y5430552D01*
X55928044Y5450543D01*
X55918079Y5471613D01*
X55910227Y5493557D01*
X55904563Y5516166D01*
X55901144Y5539221D01*
X55900000Y5562500D01*
X55900000Y6037500D01*
X55901144Y6060779D01*
X55904563Y6083834D01*
X55910227Y6106443D01*
X55918079Y6128387D01*
X55928044Y6149457D01*
X55940026Y6169448D01*
X55953910Y6188168D01*
X55969562Y6205438D01*
X55986832Y6221090D01*
X56005552Y6234974D01*
X56025543Y6246956D01*
X56046613Y6256921D01*
X56068557Y6264773D01*
X56091166Y6270437D01*
X56114221Y6273856D01*
X56137500Y6275000D01*
X56712500Y6275000D01*
X56735779Y6273856D01*
X56735779Y6273856D01*
G37*
D12*
X56425000Y5800000D03*
D11*
G36*
X58485779Y6273856D02*
G01*
X58508834Y6270437D01*
X58531443Y6264773D01*
X58553387Y6256921D01*
X58574457Y6246956D01*
X58594448Y6234974D01*
X58613168Y6221090D01*
X58630438Y6205438D01*
X58646090Y6188168D01*
X58659974Y6169448D01*
X58671956Y6149457D01*
X58681921Y6128387D01*
X58689773Y6106443D01*
X58695437Y6083834D01*
X58698856Y6060779D01*
X58700000Y6037500D01*
X58700000Y5562500D01*
X58698856Y5539221D01*
X58695437Y5516166D01*
X58689773Y5493557D01*
X58681921Y5471613D01*
X58671956Y5450543D01*
X58659974Y5430552D01*
X58646090Y5411832D01*
X58630438Y5394562D01*
X58613168Y5378910D01*
X58594448Y5365026D01*
X58574457Y5353044D01*
X58553387Y5343079D01*
X58531443Y5335227D01*
X58508834Y5329563D01*
X58485779Y5326144D01*
X58462500Y5325000D01*
X57887500Y5325000D01*
X57864221Y5326144D01*
X57841166Y5329563D01*
X57818557Y5335227D01*
X57796613Y5343079D01*
X57775543Y5353044D01*
X57755552Y5365026D01*
X57736832Y5378910D01*
X57719562Y5394562D01*
X57703910Y5411832D01*
X57690026Y5430552D01*
X57678044Y5450543D01*
X57668079Y5471613D01*
X57660227Y5493557D01*
X57654563Y5516166D01*
X57651144Y5539221D01*
X57650000Y5562500D01*
X57650000Y6037500D01*
X57651144Y6060779D01*
X57654563Y6083834D01*
X57660227Y6106443D01*
X57668079Y6128387D01*
X57678044Y6149457D01*
X57690026Y6169448D01*
X57703910Y6188168D01*
X57719562Y6205438D01*
X57736832Y6221090D01*
X57755552Y6234974D01*
X57775543Y6246956D01*
X57796613Y6256921D01*
X57818557Y6264773D01*
X57841166Y6270437D01*
X57864221Y6273856D01*
X57887500Y6275000D01*
X58462500Y6275000D01*
X58485779Y6273856D01*
X58485779Y6273856D01*
G37*
D12*
X58175000Y5800000D03*
D11*
G36*
X58110779Y28048856D02*
G01*
X58133834Y28045437D01*
X58156443Y28039773D01*
X58178387Y28031921D01*
X58199457Y28021956D01*
X58219448Y28009974D01*
X58238168Y27996090D01*
X58255438Y27980438D01*
X58271090Y27963168D01*
X58284974Y27944448D01*
X58296956Y27924457D01*
X58306921Y27903387D01*
X58314773Y27881443D01*
X58320437Y27858834D01*
X58323856Y27835779D01*
X58325000Y27812500D01*
X58325000Y27237500D01*
X58323856Y27214221D01*
X58320437Y27191166D01*
X58314773Y27168557D01*
X58306921Y27146613D01*
X58296956Y27125543D01*
X58284974Y27105552D01*
X58271090Y27086832D01*
X58255438Y27069562D01*
X58238168Y27053910D01*
X58219448Y27040026D01*
X58199457Y27028044D01*
X58178387Y27018079D01*
X58156443Y27010227D01*
X58133834Y27004563D01*
X58110779Y27001144D01*
X58087500Y27000000D01*
X57612500Y27000000D01*
X57589221Y27001144D01*
X57566166Y27004563D01*
X57543557Y27010227D01*
X57521613Y27018079D01*
X57500543Y27028044D01*
X57480552Y27040026D01*
X57461832Y27053910D01*
X57444562Y27069562D01*
X57428910Y27086832D01*
X57415026Y27105552D01*
X57403044Y27125543D01*
X57393079Y27146613D01*
X57385227Y27168557D01*
X57379563Y27191166D01*
X57376144Y27214221D01*
X57375000Y27237500D01*
X57375000Y27812500D01*
X57376144Y27835779D01*
X57379563Y27858834D01*
X57385227Y27881443D01*
X57393079Y27903387D01*
X57403044Y27924457D01*
X57415026Y27944448D01*
X57428910Y27963168D01*
X57444562Y27980438D01*
X57461832Y27996090D01*
X57480552Y28009974D01*
X57500543Y28021956D01*
X57521613Y28031921D01*
X57543557Y28039773D01*
X57566166Y28045437D01*
X57589221Y28048856D01*
X57612500Y28050000D01*
X58087500Y28050000D01*
X58110779Y28048856D01*
X58110779Y28048856D01*
G37*
D12*
X57850000Y27525000D03*
D11*
G36*
X58110779Y26298856D02*
G01*
X58133834Y26295437D01*
X58156443Y26289773D01*
X58178387Y26281921D01*
X58199457Y26271956D01*
X58219448Y26259974D01*
X58238168Y26246090D01*
X58255438Y26230438D01*
X58271090Y26213168D01*
X58284974Y26194448D01*
X58296956Y26174457D01*
X58306921Y26153387D01*
X58314773Y26131443D01*
X58320437Y26108834D01*
X58323856Y26085779D01*
X58325000Y26062500D01*
X58325000Y25487500D01*
X58323856Y25464221D01*
X58320437Y25441166D01*
X58314773Y25418557D01*
X58306921Y25396613D01*
X58296956Y25375543D01*
X58284974Y25355552D01*
X58271090Y25336832D01*
X58255438Y25319562D01*
X58238168Y25303910D01*
X58219448Y25290026D01*
X58199457Y25278044D01*
X58178387Y25268079D01*
X58156443Y25260227D01*
X58133834Y25254563D01*
X58110779Y25251144D01*
X58087500Y25250000D01*
X57612500Y25250000D01*
X57589221Y25251144D01*
X57566166Y25254563D01*
X57543557Y25260227D01*
X57521613Y25268079D01*
X57500543Y25278044D01*
X57480552Y25290026D01*
X57461832Y25303910D01*
X57444562Y25319562D01*
X57428910Y25336832D01*
X57415026Y25355552D01*
X57403044Y25375543D01*
X57393079Y25396613D01*
X57385227Y25418557D01*
X57379563Y25441166D01*
X57376144Y25464221D01*
X57375000Y25487500D01*
X57375000Y26062500D01*
X57376144Y26085779D01*
X57379563Y26108834D01*
X57385227Y26131443D01*
X57393079Y26153387D01*
X57403044Y26174457D01*
X57415026Y26194448D01*
X57428910Y26213168D01*
X57444562Y26230438D01*
X57461832Y26246090D01*
X57480552Y26259974D01*
X57500543Y26271956D01*
X57521613Y26281921D01*
X57543557Y26289773D01*
X57566166Y26295437D01*
X57589221Y26298856D01*
X57612500Y26300000D01*
X58087500Y26300000D01*
X58110779Y26298856D01*
X58110779Y26298856D01*
G37*
D12*
X57850000Y25775000D03*
D11*
G36*
X58260779Y11248856D02*
G01*
X58283834Y11245437D01*
X58306443Y11239773D01*
X58328387Y11231921D01*
X58349457Y11221956D01*
X58369448Y11209974D01*
X58388168Y11196090D01*
X58405438Y11180438D01*
X58421090Y11163168D01*
X58434974Y11144448D01*
X58446956Y11124457D01*
X58456921Y11103387D01*
X58464773Y11081443D01*
X58470437Y11058834D01*
X58473856Y11035779D01*
X58475000Y11012500D01*
X58475000Y10437500D01*
X58473856Y10414221D01*
X58470437Y10391166D01*
X58464773Y10368557D01*
X58456921Y10346613D01*
X58446956Y10325543D01*
X58434974Y10305552D01*
X58421090Y10286832D01*
X58405438Y10269562D01*
X58388168Y10253910D01*
X58369448Y10240026D01*
X58349457Y10228044D01*
X58328387Y10218079D01*
X58306443Y10210227D01*
X58283834Y10204563D01*
X58260779Y10201144D01*
X58237500Y10200000D01*
X57762500Y10200000D01*
X57739221Y10201144D01*
X57716166Y10204563D01*
X57693557Y10210227D01*
X57671613Y10218079D01*
X57650543Y10228044D01*
X57630552Y10240026D01*
X57611832Y10253910D01*
X57594562Y10269562D01*
X57578910Y10286832D01*
X57565026Y10305552D01*
X57553044Y10325543D01*
X57543079Y10346613D01*
X57535227Y10368557D01*
X57529563Y10391166D01*
X57526144Y10414221D01*
X57525000Y10437500D01*
X57525000Y11012500D01*
X57526144Y11035779D01*
X57529563Y11058834D01*
X57535227Y11081443D01*
X57543079Y11103387D01*
X57553044Y11124457D01*
X57565026Y11144448D01*
X57578910Y11163168D01*
X57594562Y11180438D01*
X57611832Y11196090D01*
X57630552Y11209974D01*
X57650543Y11221956D01*
X57671613Y11231921D01*
X57693557Y11239773D01*
X57716166Y11245437D01*
X57739221Y11248856D01*
X57762500Y11250000D01*
X58237500Y11250000D01*
X58260779Y11248856D01*
X58260779Y11248856D01*
G37*
D12*
X58000000Y10725000D03*
D11*
G36*
X58260779Y9498856D02*
G01*
X58283834Y9495437D01*
X58306443Y9489773D01*
X58328387Y9481921D01*
X58349457Y9471956D01*
X58369448Y9459974D01*
X58388168Y9446090D01*
X58405438Y9430438D01*
X58421090Y9413168D01*
X58434974Y9394448D01*
X58446956Y9374457D01*
X58456921Y9353387D01*
X58464773Y9331443D01*
X58470437Y9308834D01*
X58473856Y9285779D01*
X58475000Y9262500D01*
X58475000Y8687500D01*
X58473856Y8664221D01*
X58470437Y8641166D01*
X58464773Y8618557D01*
X58456921Y8596613D01*
X58446956Y8575543D01*
X58434974Y8555552D01*
X58421090Y8536832D01*
X58405438Y8519562D01*
X58388168Y8503910D01*
X58369448Y8490026D01*
X58349457Y8478044D01*
X58328387Y8468079D01*
X58306443Y8460227D01*
X58283834Y8454563D01*
X58260779Y8451144D01*
X58237500Y8450000D01*
X57762500Y8450000D01*
X57739221Y8451144D01*
X57716166Y8454563D01*
X57693557Y8460227D01*
X57671613Y8468079D01*
X57650543Y8478044D01*
X57630552Y8490026D01*
X57611832Y8503910D01*
X57594562Y8519562D01*
X57578910Y8536832D01*
X57565026Y8555552D01*
X57553044Y8575543D01*
X57543079Y8596613D01*
X57535227Y8618557D01*
X57529563Y8641166D01*
X57526144Y8664221D01*
X57525000Y8687500D01*
X57525000Y9262500D01*
X57526144Y9285779D01*
X57529563Y9308834D01*
X57535227Y9331443D01*
X57543079Y9353387D01*
X57553044Y9374457D01*
X57565026Y9394448D01*
X57578910Y9413168D01*
X57594562Y9430438D01*
X57611832Y9446090D01*
X57630552Y9459974D01*
X57650543Y9471956D01*
X57671613Y9481921D01*
X57693557Y9489773D01*
X57716166Y9495437D01*
X57739221Y9498856D01*
X57762500Y9500000D01*
X58237500Y9500000D01*
X58260779Y9498856D01*
X58260779Y9498856D01*
G37*
D12*
X58000000Y8975000D03*
D11*
G36*
X55610779Y21198856D02*
G01*
X55633834Y21195437D01*
X55656443Y21189773D01*
X55678387Y21181921D01*
X55699457Y21171956D01*
X55719448Y21159974D01*
X55738168Y21146090D01*
X55755438Y21130438D01*
X55771090Y21113168D01*
X55784974Y21094448D01*
X55796956Y21074457D01*
X55806921Y21053387D01*
X55814773Y21031443D01*
X55820437Y21008834D01*
X55823856Y20985779D01*
X55825000Y20962500D01*
X55825000Y20387500D01*
X55823856Y20364221D01*
X55820437Y20341166D01*
X55814773Y20318557D01*
X55806921Y20296613D01*
X55796956Y20275543D01*
X55784974Y20255552D01*
X55771090Y20236832D01*
X55755438Y20219562D01*
X55738168Y20203910D01*
X55719448Y20190026D01*
X55699457Y20178044D01*
X55678387Y20168079D01*
X55656443Y20160227D01*
X55633834Y20154563D01*
X55610779Y20151144D01*
X55587500Y20150000D01*
X55112500Y20150000D01*
X55089221Y20151144D01*
X55066166Y20154563D01*
X55043557Y20160227D01*
X55021613Y20168079D01*
X55000543Y20178044D01*
X54980552Y20190026D01*
X54961832Y20203910D01*
X54944562Y20219562D01*
X54928910Y20236832D01*
X54915026Y20255552D01*
X54903044Y20275543D01*
X54893079Y20296613D01*
X54885227Y20318557D01*
X54879563Y20341166D01*
X54876144Y20364221D01*
X54875000Y20387500D01*
X54875000Y20962500D01*
X54876144Y20985779D01*
X54879563Y21008834D01*
X54885227Y21031443D01*
X54893079Y21053387D01*
X54903044Y21074457D01*
X54915026Y21094448D01*
X54928910Y21113168D01*
X54944562Y21130438D01*
X54961832Y21146090D01*
X54980552Y21159974D01*
X55000543Y21171956D01*
X55021613Y21181921D01*
X55043557Y21189773D01*
X55066166Y21195437D01*
X55089221Y21198856D01*
X55112500Y21200000D01*
X55587500Y21200000D01*
X55610779Y21198856D01*
X55610779Y21198856D01*
G37*
D12*
X55350000Y20675000D03*
D11*
G36*
X55610779Y19448856D02*
G01*
X55633834Y19445437D01*
X55656443Y19439773D01*
X55678387Y19431921D01*
X55699457Y19421956D01*
X55719448Y19409974D01*
X55738168Y19396090D01*
X55755438Y19380438D01*
X55771090Y19363168D01*
X55784974Y19344448D01*
X55796956Y19324457D01*
X55806921Y19303387D01*
X55814773Y19281443D01*
X55820437Y19258834D01*
X55823856Y19235779D01*
X55825000Y19212500D01*
X55825000Y18637500D01*
X55823856Y18614221D01*
X55820437Y18591166D01*
X55814773Y18568557D01*
X55806921Y18546613D01*
X55796956Y18525543D01*
X55784974Y18505552D01*
X55771090Y18486832D01*
X55755438Y18469562D01*
X55738168Y18453910D01*
X55719448Y18440026D01*
X55699457Y18428044D01*
X55678387Y18418079D01*
X55656443Y18410227D01*
X55633834Y18404563D01*
X55610779Y18401144D01*
X55587500Y18400000D01*
X55112500Y18400000D01*
X55089221Y18401144D01*
X55066166Y18404563D01*
X55043557Y18410227D01*
X55021613Y18418079D01*
X55000543Y18428044D01*
X54980552Y18440026D01*
X54961832Y18453910D01*
X54944562Y18469562D01*
X54928910Y18486832D01*
X54915026Y18505552D01*
X54903044Y18525543D01*
X54893079Y18546613D01*
X54885227Y18568557D01*
X54879563Y18591166D01*
X54876144Y18614221D01*
X54875000Y18637500D01*
X54875000Y19212500D01*
X54876144Y19235779D01*
X54879563Y19258834D01*
X54885227Y19281443D01*
X54893079Y19303387D01*
X54903044Y19324457D01*
X54915026Y19344448D01*
X54928910Y19363168D01*
X54944562Y19380438D01*
X54961832Y19396090D01*
X54980552Y19409974D01*
X55000543Y19421956D01*
X55021613Y19431921D01*
X55043557Y19439773D01*
X55066166Y19445437D01*
X55089221Y19448856D01*
X55112500Y19450000D01*
X55587500Y19450000D01*
X55610779Y19448856D01*
X55610779Y19448856D01*
G37*
D12*
X55350000Y18925000D03*
D11*
G36*
X56710779Y9498856D02*
G01*
X56733834Y9495437D01*
X56756443Y9489773D01*
X56778387Y9481921D01*
X56799457Y9471956D01*
X56819448Y9459974D01*
X56838168Y9446090D01*
X56855438Y9430438D01*
X56871090Y9413168D01*
X56884974Y9394448D01*
X56896956Y9374457D01*
X56906921Y9353387D01*
X56914773Y9331443D01*
X56920437Y9308834D01*
X56923856Y9285779D01*
X56925000Y9262500D01*
X56925000Y8687500D01*
X56923856Y8664221D01*
X56920437Y8641166D01*
X56914773Y8618557D01*
X56906921Y8596613D01*
X56896956Y8575543D01*
X56884974Y8555552D01*
X56871090Y8536832D01*
X56855438Y8519562D01*
X56838168Y8503910D01*
X56819448Y8490026D01*
X56799457Y8478044D01*
X56778387Y8468079D01*
X56756443Y8460227D01*
X56733834Y8454563D01*
X56710779Y8451144D01*
X56687500Y8450000D01*
X56212500Y8450000D01*
X56189221Y8451144D01*
X56166166Y8454563D01*
X56143557Y8460227D01*
X56121613Y8468079D01*
X56100543Y8478044D01*
X56080552Y8490026D01*
X56061832Y8503910D01*
X56044562Y8519562D01*
X56028910Y8536832D01*
X56015026Y8555552D01*
X56003044Y8575543D01*
X55993079Y8596613D01*
X55985227Y8618557D01*
X55979563Y8641166D01*
X55976144Y8664221D01*
X55975000Y8687500D01*
X55975000Y9262500D01*
X55976144Y9285779D01*
X55979563Y9308834D01*
X55985227Y9331443D01*
X55993079Y9353387D01*
X56003044Y9374457D01*
X56015026Y9394448D01*
X56028910Y9413168D01*
X56044562Y9430438D01*
X56061832Y9446090D01*
X56080552Y9459974D01*
X56100543Y9471956D01*
X56121613Y9481921D01*
X56143557Y9489773D01*
X56166166Y9495437D01*
X56189221Y9498856D01*
X56212500Y9500000D01*
X56687500Y9500000D01*
X56710779Y9498856D01*
X56710779Y9498856D01*
G37*
D12*
X56450000Y8975000D03*
D11*
G36*
X56710779Y11248856D02*
G01*
X56733834Y11245437D01*
X56756443Y11239773D01*
X56778387Y11231921D01*
X56799457Y11221956D01*
X56819448Y11209974D01*
X56838168Y11196090D01*
X56855438Y11180438D01*
X56871090Y11163168D01*
X56884974Y11144448D01*
X56896956Y11124457D01*
X56906921Y11103387D01*
X56914773Y11081443D01*
X56920437Y11058834D01*
X56923856Y11035779D01*
X56925000Y11012500D01*
X56925000Y10437500D01*
X56923856Y10414221D01*
X56920437Y10391166D01*
X56914773Y10368557D01*
X56906921Y10346613D01*
X56896956Y10325543D01*
X56884974Y10305552D01*
X56871090Y10286832D01*
X56855438Y10269562D01*
X56838168Y10253910D01*
X56819448Y10240026D01*
X56799457Y10228044D01*
X56778387Y10218079D01*
X56756443Y10210227D01*
X56733834Y10204563D01*
X56710779Y10201144D01*
X56687500Y10200000D01*
X56212500Y10200000D01*
X56189221Y10201144D01*
X56166166Y10204563D01*
X56143557Y10210227D01*
X56121613Y10218079D01*
X56100543Y10228044D01*
X56080552Y10240026D01*
X56061832Y10253910D01*
X56044562Y10269562D01*
X56028910Y10286832D01*
X56015026Y10305552D01*
X56003044Y10325543D01*
X55993079Y10346613D01*
X55985227Y10368557D01*
X55979563Y10391166D01*
X55976144Y10414221D01*
X55975000Y10437500D01*
X55975000Y11012500D01*
X55976144Y11035779D01*
X55979563Y11058834D01*
X55985227Y11081443D01*
X55993079Y11103387D01*
X56003044Y11124457D01*
X56015026Y11144448D01*
X56028910Y11163168D01*
X56044562Y11180438D01*
X56061832Y11196090D01*
X56080552Y11209974D01*
X56100543Y11221956D01*
X56121613Y11231921D01*
X56143557Y11239773D01*
X56166166Y11245437D01*
X56189221Y11248856D01*
X56212500Y11250000D01*
X56687500Y11250000D01*
X56710779Y11248856D01*
X56710779Y11248856D01*
G37*
D12*
X56450000Y10725000D03*
D11*
G36*
X72024504Y27711296D02*
G01*
X72048773Y27707696D01*
X72072571Y27701735D01*
X72095671Y27693470D01*
X72117849Y27682980D01*
X72138893Y27670367D01*
X72158598Y27655753D01*
X72176777Y27639277D01*
X72193253Y27621098D01*
X72207867Y27601393D01*
X72220480Y27580349D01*
X72230970Y27558171D01*
X72239235Y27535071D01*
X72245196Y27511273D01*
X72248796Y27487004D01*
X72250000Y27462500D01*
X72250000Y26537500D01*
X72248796Y26512996D01*
X72245196Y26488727D01*
X72239235Y26464929D01*
X72230970Y26441829D01*
X72220480Y26419651D01*
X72207867Y26398607D01*
X72193253Y26378902D01*
X72176777Y26360723D01*
X72158598Y26344247D01*
X72138893Y26329633D01*
X72117849Y26317020D01*
X72095671Y26306530D01*
X72072571Y26298265D01*
X72048773Y26292304D01*
X72024504Y26288704D01*
X72000000Y26287500D01*
X70750000Y26287500D01*
X70725496Y26288704D01*
X70701227Y26292304D01*
X70677429Y26298265D01*
X70654329Y26306530D01*
X70632151Y26317020D01*
X70611107Y26329633D01*
X70591402Y26344247D01*
X70573223Y26360723D01*
X70556747Y26378902D01*
X70542133Y26398607D01*
X70529520Y26419651D01*
X70519030Y26441829D01*
X70510765Y26464929D01*
X70504804Y26488727D01*
X70501204Y26512996D01*
X70500000Y26537500D01*
X70500000Y27462500D01*
X70501204Y27487004D01*
X70504804Y27511273D01*
X70510765Y27535071D01*
X70519030Y27558171D01*
X70529520Y27580349D01*
X70542133Y27601393D01*
X70556747Y27621098D01*
X70573223Y27639277D01*
X70591402Y27655753D01*
X70611107Y27670367D01*
X70632151Y27682980D01*
X70654329Y27693470D01*
X70677429Y27701735D01*
X70701227Y27707696D01*
X70725496Y27711296D01*
X70750000Y27712500D01*
X72000000Y27712500D01*
X72024504Y27711296D01*
X72024504Y27711296D01*
G37*
D13*
X71375000Y27000000D03*
D11*
G36*
X72024504Y30686296D02*
G01*
X72048773Y30682696D01*
X72072571Y30676735D01*
X72095671Y30668470D01*
X72117849Y30657980D01*
X72138893Y30645367D01*
X72158598Y30630753D01*
X72176777Y30614277D01*
X72193253Y30596098D01*
X72207867Y30576393D01*
X72220480Y30555349D01*
X72230970Y30533171D01*
X72239235Y30510071D01*
X72245196Y30486273D01*
X72248796Y30462004D01*
X72250000Y30437500D01*
X72250000Y29512500D01*
X72248796Y29487996D01*
X72245196Y29463727D01*
X72239235Y29439929D01*
X72230970Y29416829D01*
X72220480Y29394651D01*
X72207867Y29373607D01*
X72193253Y29353902D01*
X72176777Y29335723D01*
X72158598Y29319247D01*
X72138893Y29304633D01*
X72117849Y29292020D01*
X72095671Y29281530D01*
X72072571Y29273265D01*
X72048773Y29267304D01*
X72024504Y29263704D01*
X72000000Y29262500D01*
X70750000Y29262500D01*
X70725496Y29263704D01*
X70701227Y29267304D01*
X70677429Y29273265D01*
X70654329Y29281530D01*
X70632151Y29292020D01*
X70611107Y29304633D01*
X70591402Y29319247D01*
X70573223Y29335723D01*
X70556747Y29353902D01*
X70542133Y29373607D01*
X70529520Y29394651D01*
X70519030Y29416829D01*
X70510765Y29439929D01*
X70504804Y29463727D01*
X70501204Y29487996D01*
X70500000Y29512500D01*
X70500000Y30437500D01*
X70501204Y30462004D01*
X70504804Y30486273D01*
X70510765Y30510071D01*
X70519030Y30533171D01*
X70529520Y30555349D01*
X70542133Y30576393D01*
X70556747Y30596098D01*
X70573223Y30614277D01*
X70591402Y30630753D01*
X70611107Y30645367D01*
X70632151Y30657980D01*
X70654329Y30668470D01*
X70677429Y30676735D01*
X70701227Y30682696D01*
X70725496Y30686296D01*
X70750000Y30687500D01*
X72000000Y30687500D01*
X72024504Y30686296D01*
X72024504Y30686296D01*
G37*
D13*
X71375000Y29975000D03*
D11*
G36*
X74424504Y30686296D02*
G01*
X74448773Y30682696D01*
X74472571Y30676735D01*
X74495671Y30668470D01*
X74517849Y30657980D01*
X74538893Y30645367D01*
X74558598Y30630753D01*
X74576777Y30614277D01*
X74593253Y30596098D01*
X74607867Y30576393D01*
X74620480Y30555349D01*
X74630970Y30533171D01*
X74639235Y30510071D01*
X74645196Y30486273D01*
X74648796Y30462004D01*
X74650000Y30437500D01*
X74650000Y29512500D01*
X74648796Y29487996D01*
X74645196Y29463727D01*
X74639235Y29439929D01*
X74630970Y29416829D01*
X74620480Y29394651D01*
X74607867Y29373607D01*
X74593253Y29353902D01*
X74576777Y29335723D01*
X74558598Y29319247D01*
X74538893Y29304633D01*
X74517849Y29292020D01*
X74495671Y29281530D01*
X74472571Y29273265D01*
X74448773Y29267304D01*
X74424504Y29263704D01*
X74400000Y29262500D01*
X73150000Y29262500D01*
X73125496Y29263704D01*
X73101227Y29267304D01*
X73077429Y29273265D01*
X73054329Y29281530D01*
X73032151Y29292020D01*
X73011107Y29304633D01*
X72991402Y29319247D01*
X72973223Y29335723D01*
X72956747Y29353902D01*
X72942133Y29373607D01*
X72929520Y29394651D01*
X72919030Y29416829D01*
X72910765Y29439929D01*
X72904804Y29463727D01*
X72901204Y29487996D01*
X72900000Y29512500D01*
X72900000Y30437500D01*
X72901204Y30462004D01*
X72904804Y30486273D01*
X72910765Y30510071D01*
X72919030Y30533171D01*
X72929520Y30555349D01*
X72942133Y30576393D01*
X72956747Y30596098D01*
X72973223Y30614277D01*
X72991402Y30630753D01*
X73011107Y30645367D01*
X73032151Y30657980D01*
X73054329Y30668470D01*
X73077429Y30676735D01*
X73101227Y30682696D01*
X73125496Y30686296D01*
X73150000Y30687500D01*
X74400000Y30687500D01*
X74424504Y30686296D01*
X74424504Y30686296D01*
G37*
D13*
X73775000Y29975000D03*
D11*
G36*
X74424504Y27711296D02*
G01*
X74448773Y27707696D01*
X74472571Y27701735D01*
X74495671Y27693470D01*
X74517849Y27682980D01*
X74538893Y27670367D01*
X74558598Y27655753D01*
X74576777Y27639277D01*
X74593253Y27621098D01*
X74607867Y27601393D01*
X74620480Y27580349D01*
X74630970Y27558171D01*
X74639235Y27535071D01*
X74645196Y27511273D01*
X74648796Y27487004D01*
X74650000Y27462500D01*
X74650000Y26537500D01*
X74648796Y26512996D01*
X74645196Y26488727D01*
X74639235Y26464929D01*
X74630970Y26441829D01*
X74620480Y26419651D01*
X74607867Y26398607D01*
X74593253Y26378902D01*
X74576777Y26360723D01*
X74558598Y26344247D01*
X74538893Y26329633D01*
X74517849Y26317020D01*
X74495671Y26306530D01*
X74472571Y26298265D01*
X74448773Y26292304D01*
X74424504Y26288704D01*
X74400000Y26287500D01*
X73150000Y26287500D01*
X73125496Y26288704D01*
X73101227Y26292304D01*
X73077429Y26298265D01*
X73054329Y26306530D01*
X73032151Y26317020D01*
X73011107Y26329633D01*
X72991402Y26344247D01*
X72973223Y26360723D01*
X72956747Y26378902D01*
X72942133Y26398607D01*
X72929520Y26419651D01*
X72919030Y26441829D01*
X72910765Y26464929D01*
X72904804Y26488727D01*
X72901204Y26512996D01*
X72900000Y26537500D01*
X72900000Y27462500D01*
X72901204Y27487004D01*
X72904804Y27511273D01*
X72910765Y27535071D01*
X72919030Y27558171D01*
X72929520Y27580349D01*
X72942133Y27601393D01*
X72956747Y27621098D01*
X72973223Y27639277D01*
X72991402Y27655753D01*
X73011107Y27670367D01*
X73032151Y27682980D01*
X73054329Y27693470D01*
X73077429Y27701735D01*
X73101227Y27707696D01*
X73125496Y27711296D01*
X73150000Y27712500D01*
X74400000Y27712500D01*
X74424504Y27711296D01*
X74424504Y27711296D01*
G37*
D13*
X73775000Y27000000D03*
D11*
G36*
X65985779Y33698856D02*
G01*
X66008834Y33695437D01*
X66031443Y33689773D01*
X66053387Y33681921D01*
X66074457Y33671956D01*
X66094448Y33659974D01*
X66113168Y33646090D01*
X66130438Y33630438D01*
X66146090Y33613168D01*
X66159974Y33594448D01*
X66171956Y33574457D01*
X66181921Y33553387D01*
X66189773Y33531443D01*
X66195437Y33508834D01*
X66198856Y33485779D01*
X66200000Y33462500D01*
X66200000Y32987500D01*
X66198856Y32964221D01*
X66195437Y32941166D01*
X66189773Y32918557D01*
X66181921Y32896613D01*
X66171956Y32875543D01*
X66159974Y32855552D01*
X66146090Y32836832D01*
X66130438Y32819562D01*
X66113168Y32803910D01*
X66094448Y32790026D01*
X66074457Y32778044D01*
X66053387Y32768079D01*
X66031443Y32760227D01*
X66008834Y32754563D01*
X65985779Y32751144D01*
X65962500Y32750000D01*
X65387500Y32750000D01*
X65364221Y32751144D01*
X65341166Y32754563D01*
X65318557Y32760227D01*
X65296613Y32768079D01*
X65275543Y32778044D01*
X65255552Y32790026D01*
X65236832Y32803910D01*
X65219562Y32819562D01*
X65203910Y32836832D01*
X65190026Y32855552D01*
X65178044Y32875543D01*
X65168079Y32896613D01*
X65160227Y32918557D01*
X65154563Y32941166D01*
X65151144Y32964221D01*
X65150000Y32987500D01*
X65150000Y33462500D01*
X65151144Y33485779D01*
X65154563Y33508834D01*
X65160227Y33531443D01*
X65168079Y33553387D01*
X65178044Y33574457D01*
X65190026Y33594448D01*
X65203910Y33613168D01*
X65219562Y33630438D01*
X65236832Y33646090D01*
X65255552Y33659974D01*
X65275543Y33671956D01*
X65296613Y33681921D01*
X65318557Y33689773D01*
X65341166Y33695437D01*
X65364221Y33698856D01*
X65387500Y33700000D01*
X65962500Y33700000D01*
X65985779Y33698856D01*
X65985779Y33698856D01*
G37*
D12*
X65675000Y33225000D03*
D11*
G36*
X67735779Y33698856D02*
G01*
X67758834Y33695437D01*
X67781443Y33689773D01*
X67803387Y33681921D01*
X67824457Y33671956D01*
X67844448Y33659974D01*
X67863168Y33646090D01*
X67880438Y33630438D01*
X67896090Y33613168D01*
X67909974Y33594448D01*
X67921956Y33574457D01*
X67931921Y33553387D01*
X67939773Y33531443D01*
X67945437Y33508834D01*
X67948856Y33485779D01*
X67950000Y33462500D01*
X67950000Y32987500D01*
X67948856Y32964221D01*
X67945437Y32941166D01*
X67939773Y32918557D01*
X67931921Y32896613D01*
X67921956Y32875543D01*
X67909974Y32855552D01*
X67896090Y32836832D01*
X67880438Y32819562D01*
X67863168Y32803910D01*
X67844448Y32790026D01*
X67824457Y32778044D01*
X67803387Y32768079D01*
X67781443Y32760227D01*
X67758834Y32754563D01*
X67735779Y32751144D01*
X67712500Y32750000D01*
X67137500Y32750000D01*
X67114221Y32751144D01*
X67091166Y32754563D01*
X67068557Y32760227D01*
X67046613Y32768079D01*
X67025543Y32778044D01*
X67005552Y32790026D01*
X66986832Y32803910D01*
X66969562Y32819562D01*
X66953910Y32836832D01*
X66940026Y32855552D01*
X66928044Y32875543D01*
X66918079Y32896613D01*
X66910227Y32918557D01*
X66904563Y32941166D01*
X66901144Y32964221D01*
X66900000Y32987500D01*
X66900000Y33462500D01*
X66901144Y33485779D01*
X66904563Y33508834D01*
X66910227Y33531443D01*
X66918079Y33553387D01*
X66928044Y33574457D01*
X66940026Y33594448D01*
X66953910Y33613168D01*
X66969562Y33630438D01*
X66986832Y33646090D01*
X67005552Y33659974D01*
X67025543Y33671956D01*
X67046613Y33681921D01*
X67068557Y33689773D01*
X67091166Y33695437D01*
X67114221Y33698856D01*
X67137500Y33700000D01*
X67712500Y33700000D01*
X67735779Y33698856D01*
X67735779Y33698856D01*
G37*
D12*
X67425000Y33225000D03*
D11*
G36*
X60774505Y33248796D02*
G01*
X60798773Y33245196D01*
X60822572Y33239235D01*
X60845671Y33230970D01*
X60867850Y33220480D01*
X60888893Y33207868D01*
X60908599Y33193253D01*
X60926777Y33176777D01*
X60943253Y33158599D01*
X60957868Y33138893D01*
X60970480Y33117850D01*
X60980970Y33095671D01*
X60989235Y33072572D01*
X60995196Y33048773D01*
X60998796Y33024505D01*
X61000000Y33000001D01*
X61000000Y32099999D01*
X60998796Y32075495D01*
X60995196Y32051227D01*
X60989235Y32027428D01*
X60980970Y32004329D01*
X60970480Y31982150D01*
X60957868Y31961107D01*
X60943253Y31941401D01*
X60926777Y31923223D01*
X60908599Y31906747D01*
X60888893Y31892132D01*
X60867850Y31879520D01*
X60845671Y31869030D01*
X60822572Y31860765D01*
X60798773Y31854804D01*
X60774505Y31851204D01*
X60750001Y31850000D01*
X60099999Y31850000D01*
X60075495Y31851204D01*
X60051227Y31854804D01*
X60027428Y31860765D01*
X60004329Y31869030D01*
X59982150Y31879520D01*
X59961107Y31892132D01*
X59941401Y31906747D01*
X59923223Y31923223D01*
X59906747Y31941401D01*
X59892132Y31961107D01*
X59879520Y31982150D01*
X59869030Y32004329D01*
X59860765Y32027428D01*
X59854804Y32051227D01*
X59851204Y32075495D01*
X59850000Y32099999D01*
X59850000Y33000001D01*
X59851204Y33024505D01*
X59854804Y33048773D01*
X59860765Y33072572D01*
X59869030Y33095671D01*
X59879520Y33117850D01*
X59892132Y33138893D01*
X59906747Y33158599D01*
X59923223Y33176777D01*
X59941401Y33193253D01*
X59961107Y33207868D01*
X59982150Y33220480D01*
X60004329Y33230970D01*
X60027428Y33239235D01*
X60051227Y33245196D01*
X60075495Y33248796D01*
X60099999Y33250000D01*
X60750001Y33250000D01*
X60774505Y33248796D01*
X60774505Y33248796D01*
G37*
D14*
X60425000Y32550000D03*
D11*
G36*
X62824505Y33248796D02*
G01*
X62848773Y33245196D01*
X62872572Y33239235D01*
X62895671Y33230970D01*
X62917850Y33220480D01*
X62938893Y33207868D01*
X62958599Y33193253D01*
X62976777Y33176777D01*
X62993253Y33158599D01*
X63007868Y33138893D01*
X63020480Y33117850D01*
X63030970Y33095671D01*
X63039235Y33072572D01*
X63045196Y33048773D01*
X63048796Y33024505D01*
X63050000Y33000001D01*
X63050000Y32099999D01*
X63048796Y32075495D01*
X63045196Y32051227D01*
X63039235Y32027428D01*
X63030970Y32004329D01*
X63020480Y31982150D01*
X63007868Y31961107D01*
X62993253Y31941401D01*
X62976777Y31923223D01*
X62958599Y31906747D01*
X62938893Y31892132D01*
X62917850Y31879520D01*
X62895671Y31869030D01*
X62872572Y31860765D01*
X62848773Y31854804D01*
X62824505Y31851204D01*
X62800001Y31850000D01*
X62149999Y31850000D01*
X62125495Y31851204D01*
X62101227Y31854804D01*
X62077428Y31860765D01*
X62054329Y31869030D01*
X62032150Y31879520D01*
X62011107Y31892132D01*
X61991401Y31906747D01*
X61973223Y31923223D01*
X61956747Y31941401D01*
X61942132Y31961107D01*
X61929520Y31982150D01*
X61919030Y32004329D01*
X61910765Y32027428D01*
X61904804Y32051227D01*
X61901204Y32075495D01*
X61900000Y32099999D01*
X61900000Y33000001D01*
X61901204Y33024505D01*
X61904804Y33048773D01*
X61910765Y33072572D01*
X61919030Y33095671D01*
X61929520Y33117850D01*
X61942132Y33138893D01*
X61956747Y33158599D01*
X61973223Y33176777D01*
X61991401Y33193253D01*
X62011107Y33207868D01*
X62032150Y33220480D01*
X62054329Y33230970D01*
X62077428Y33239235D01*
X62101227Y33245196D01*
X62125495Y33248796D01*
X62149999Y33250000D01*
X62800001Y33250000D01*
X62824505Y33248796D01*
X62824505Y33248796D01*
G37*
D14*
X62475000Y32550000D03*
D11*
G36*
X62824505Y31248796D02*
G01*
X62848773Y31245196D01*
X62872572Y31239235D01*
X62895671Y31230970D01*
X62917850Y31220480D01*
X62938893Y31207868D01*
X62958599Y31193253D01*
X62976777Y31176777D01*
X62993253Y31158599D01*
X63007868Y31138893D01*
X63020480Y31117850D01*
X63030970Y31095671D01*
X63039235Y31072572D01*
X63045196Y31048773D01*
X63048796Y31024505D01*
X63050000Y31000001D01*
X63050000Y30099999D01*
X63048796Y30075495D01*
X63045196Y30051227D01*
X63039235Y30027428D01*
X63030970Y30004329D01*
X63020480Y29982150D01*
X63007868Y29961107D01*
X62993253Y29941401D01*
X62976777Y29923223D01*
X62958599Y29906747D01*
X62938893Y29892132D01*
X62917850Y29879520D01*
X62895671Y29869030D01*
X62872572Y29860765D01*
X62848773Y29854804D01*
X62824505Y29851204D01*
X62800001Y29850000D01*
X62149999Y29850000D01*
X62125495Y29851204D01*
X62101227Y29854804D01*
X62077428Y29860765D01*
X62054329Y29869030D01*
X62032150Y29879520D01*
X62011107Y29892132D01*
X61991401Y29906747D01*
X61973223Y29923223D01*
X61956747Y29941401D01*
X61942132Y29961107D01*
X61929520Y29982150D01*
X61919030Y30004329D01*
X61910765Y30027428D01*
X61904804Y30051227D01*
X61901204Y30075495D01*
X61900000Y30099999D01*
X61900000Y31000001D01*
X61901204Y31024505D01*
X61904804Y31048773D01*
X61910765Y31072572D01*
X61919030Y31095671D01*
X61929520Y31117850D01*
X61942132Y31138893D01*
X61956747Y31158599D01*
X61973223Y31176777D01*
X61991401Y31193253D01*
X62011107Y31207868D01*
X62032150Y31220480D01*
X62054329Y31230970D01*
X62077428Y31239235D01*
X62101227Y31245196D01*
X62125495Y31248796D01*
X62149999Y31250000D01*
X62800001Y31250000D01*
X62824505Y31248796D01*
X62824505Y31248796D01*
G37*
D14*
X62475000Y30550000D03*
D11*
G36*
X60774505Y31248796D02*
G01*
X60798773Y31245196D01*
X60822572Y31239235D01*
X60845671Y31230970D01*
X60867850Y31220480D01*
X60888893Y31207868D01*
X60908599Y31193253D01*
X60926777Y31176777D01*
X60943253Y31158599D01*
X60957868Y31138893D01*
X60970480Y31117850D01*
X60980970Y31095671D01*
X60989235Y31072572D01*
X60995196Y31048773D01*
X60998796Y31024505D01*
X61000000Y31000001D01*
X61000000Y30099999D01*
X60998796Y30075495D01*
X60995196Y30051227D01*
X60989235Y30027428D01*
X60980970Y30004329D01*
X60970480Y29982150D01*
X60957868Y29961107D01*
X60943253Y29941401D01*
X60926777Y29923223D01*
X60908599Y29906747D01*
X60888893Y29892132D01*
X60867850Y29879520D01*
X60845671Y29869030D01*
X60822572Y29860765D01*
X60798773Y29854804D01*
X60774505Y29851204D01*
X60750001Y29850000D01*
X60099999Y29850000D01*
X60075495Y29851204D01*
X60051227Y29854804D01*
X60027428Y29860765D01*
X60004329Y29869030D01*
X59982150Y29879520D01*
X59961107Y29892132D01*
X59941401Y29906747D01*
X59923223Y29923223D01*
X59906747Y29941401D01*
X59892132Y29961107D01*
X59879520Y29982150D01*
X59869030Y30004329D01*
X59860765Y30027428D01*
X59854804Y30051227D01*
X59851204Y30075495D01*
X59850000Y30099999D01*
X59850000Y31000001D01*
X59851204Y31024505D01*
X59854804Y31048773D01*
X59860765Y31072572D01*
X59869030Y31095671D01*
X59879520Y31117850D01*
X59892132Y31138893D01*
X59906747Y31158599D01*
X59923223Y31176777D01*
X59941401Y31193253D01*
X59961107Y31207868D01*
X59982150Y31220480D01*
X60004329Y31230970D01*
X60027428Y31239235D01*
X60051227Y31245196D01*
X60075495Y31248796D01*
X60099999Y31250000D01*
X60750001Y31250000D01*
X60774505Y31248796D01*
X60774505Y31248796D01*
G37*
D14*
X60425000Y30550000D03*
D15*
X75925000Y27475000D03*
X77825000Y27475000D03*
X76875000Y29475000D03*
D11*
G36*
X70515191Y20248947D02*
G01*
X70536426Y20245797D01*
X70557250Y20240581D01*
X70577462Y20233349D01*
X70596868Y20224170D01*
X70615281Y20213134D01*
X70632524Y20200346D01*
X70648430Y20185930D01*
X70662846Y20170024D01*
X70675634Y20152781D01*
X70686670Y20134368D01*
X70695849Y20114962D01*
X70703081Y20094750D01*
X70708297Y20073926D01*
X70711447Y20052691D01*
X70712500Y20031250D01*
X70712500Y19518750D01*
X70711447Y19497309D01*
X70708297Y19476074D01*
X70703081Y19455250D01*
X70695849Y19435038D01*
X70686670Y19415632D01*
X70675634Y19397219D01*
X70662846Y19379976D01*
X70648430Y19364070D01*
X70632524Y19349654D01*
X70615281Y19336866D01*
X70596868Y19325830D01*
X70577462Y19316651D01*
X70557250Y19309419D01*
X70536426Y19304203D01*
X70515191Y19301053D01*
X70493750Y19300000D01*
X70056250Y19300000D01*
X70034809Y19301053D01*
X70013574Y19304203D01*
X69992750Y19309419D01*
X69972538Y19316651D01*
X69953132Y19325830D01*
X69934719Y19336866D01*
X69917476Y19349654D01*
X69901570Y19364070D01*
X69887154Y19379976D01*
X69874366Y19397219D01*
X69863330Y19415632D01*
X69854151Y19435038D01*
X69846919Y19455250D01*
X69841703Y19476074D01*
X69838553Y19497309D01*
X69837500Y19518750D01*
X69837500Y20031250D01*
X69838553Y20052691D01*
X69841703Y20073926D01*
X69846919Y20094750D01*
X69854151Y20114962D01*
X69863330Y20134368D01*
X69874366Y20152781D01*
X69887154Y20170024D01*
X69901570Y20185930D01*
X69917476Y20200346D01*
X69934719Y20213134D01*
X69953132Y20224170D01*
X69972538Y20233349D01*
X69992750Y20240581D01*
X70013574Y20245797D01*
X70034809Y20248947D01*
X70056250Y20250000D01*
X70493750Y20250000D01*
X70515191Y20248947D01*
X70515191Y20248947D01*
G37*
D16*
X70275000Y19775000D03*
D11*
G36*
X72090191Y20248947D02*
G01*
X72111426Y20245797D01*
X72132250Y20240581D01*
X72152462Y20233349D01*
X72171868Y20224170D01*
X72190281Y20213134D01*
X72207524Y20200346D01*
X72223430Y20185930D01*
X72237846Y20170024D01*
X72250634Y20152781D01*
X72261670Y20134368D01*
X72270849Y20114962D01*
X72278081Y20094750D01*
X72283297Y20073926D01*
X72286447Y20052691D01*
X72287500Y20031250D01*
X72287500Y19518750D01*
X72286447Y19497309D01*
X72283297Y19476074D01*
X72278081Y19455250D01*
X72270849Y19435038D01*
X72261670Y19415632D01*
X72250634Y19397219D01*
X72237846Y19379976D01*
X72223430Y19364070D01*
X72207524Y19349654D01*
X72190281Y19336866D01*
X72171868Y19325830D01*
X72152462Y19316651D01*
X72132250Y19309419D01*
X72111426Y19304203D01*
X72090191Y19301053D01*
X72068750Y19300000D01*
X71631250Y19300000D01*
X71609809Y19301053D01*
X71588574Y19304203D01*
X71567750Y19309419D01*
X71547538Y19316651D01*
X71528132Y19325830D01*
X71509719Y19336866D01*
X71492476Y19349654D01*
X71476570Y19364070D01*
X71462154Y19379976D01*
X71449366Y19397219D01*
X71438330Y19415632D01*
X71429151Y19435038D01*
X71421919Y19455250D01*
X71416703Y19476074D01*
X71413553Y19497309D01*
X71412500Y19518750D01*
X71412500Y20031250D01*
X71413553Y20052691D01*
X71416703Y20073926D01*
X71421919Y20094750D01*
X71429151Y20114962D01*
X71438330Y20134368D01*
X71449366Y20152781D01*
X71462154Y20170024D01*
X71476570Y20185930D01*
X71492476Y20200346D01*
X71509719Y20213134D01*
X71528132Y20224170D01*
X71547538Y20233349D01*
X71567750Y20240581D01*
X71588574Y20245797D01*
X71609809Y20248947D01*
X71631250Y20250000D01*
X72068750Y20250000D01*
X72090191Y20248947D01*
X72090191Y20248947D01*
G37*
D16*
X71850000Y19775000D03*
D11*
G36*
X72115191Y18248947D02*
G01*
X72136426Y18245797D01*
X72157250Y18240581D01*
X72177462Y18233349D01*
X72196868Y18224170D01*
X72215281Y18213134D01*
X72232524Y18200346D01*
X72248430Y18185930D01*
X72262846Y18170024D01*
X72275634Y18152781D01*
X72286670Y18134368D01*
X72295849Y18114962D01*
X72303081Y18094750D01*
X72308297Y18073926D01*
X72311447Y18052691D01*
X72312500Y18031250D01*
X72312500Y17518750D01*
X72311447Y17497309D01*
X72308297Y17476074D01*
X72303081Y17455250D01*
X72295849Y17435038D01*
X72286670Y17415632D01*
X72275634Y17397219D01*
X72262846Y17379976D01*
X72248430Y17364070D01*
X72232524Y17349654D01*
X72215281Y17336866D01*
X72196868Y17325830D01*
X72177462Y17316651D01*
X72157250Y17309419D01*
X72136426Y17304203D01*
X72115191Y17301053D01*
X72093750Y17300000D01*
X71656250Y17300000D01*
X71634809Y17301053D01*
X71613574Y17304203D01*
X71592750Y17309419D01*
X71572538Y17316651D01*
X71553132Y17325830D01*
X71534719Y17336866D01*
X71517476Y17349654D01*
X71501570Y17364070D01*
X71487154Y17379976D01*
X71474366Y17397219D01*
X71463330Y17415632D01*
X71454151Y17435038D01*
X71446919Y17455250D01*
X71441703Y17476074D01*
X71438553Y17497309D01*
X71437500Y17518750D01*
X71437500Y18031250D01*
X71438553Y18052691D01*
X71441703Y18073926D01*
X71446919Y18094750D01*
X71454151Y18114962D01*
X71463330Y18134368D01*
X71474366Y18152781D01*
X71487154Y18170024D01*
X71501570Y18185930D01*
X71517476Y18200346D01*
X71534719Y18213134D01*
X71553132Y18224170D01*
X71572538Y18233349D01*
X71592750Y18240581D01*
X71613574Y18245797D01*
X71634809Y18248947D01*
X71656250Y18250000D01*
X72093750Y18250000D01*
X72115191Y18248947D01*
X72115191Y18248947D01*
G37*
D16*
X71875000Y17775000D03*
D11*
G36*
X70540191Y18248947D02*
G01*
X70561426Y18245797D01*
X70582250Y18240581D01*
X70602462Y18233349D01*
X70621868Y18224170D01*
X70640281Y18213134D01*
X70657524Y18200346D01*
X70673430Y18185930D01*
X70687846Y18170024D01*
X70700634Y18152781D01*
X70711670Y18134368D01*
X70720849Y18114962D01*
X70728081Y18094750D01*
X70733297Y18073926D01*
X70736447Y18052691D01*
X70737500Y18031250D01*
X70737500Y17518750D01*
X70736447Y17497309D01*
X70733297Y17476074D01*
X70728081Y17455250D01*
X70720849Y17435038D01*
X70711670Y17415632D01*
X70700634Y17397219D01*
X70687846Y17379976D01*
X70673430Y17364070D01*
X70657524Y17349654D01*
X70640281Y17336866D01*
X70621868Y17325830D01*
X70602462Y17316651D01*
X70582250Y17309419D01*
X70561426Y17304203D01*
X70540191Y17301053D01*
X70518750Y17300000D01*
X70081250Y17300000D01*
X70059809Y17301053D01*
X70038574Y17304203D01*
X70017750Y17309419D01*
X69997538Y17316651D01*
X69978132Y17325830D01*
X69959719Y17336866D01*
X69942476Y17349654D01*
X69926570Y17364070D01*
X69912154Y17379976D01*
X69899366Y17397219D01*
X69888330Y17415632D01*
X69879151Y17435038D01*
X69871919Y17455250D01*
X69866703Y17476074D01*
X69863553Y17497309D01*
X69862500Y17518750D01*
X69862500Y18031250D01*
X69863553Y18052691D01*
X69866703Y18073926D01*
X69871919Y18094750D01*
X69879151Y18114962D01*
X69888330Y18134368D01*
X69899366Y18152781D01*
X69912154Y18170024D01*
X69926570Y18185930D01*
X69942476Y18200346D01*
X69959719Y18213134D01*
X69978132Y18224170D01*
X69997538Y18233349D01*
X70017750Y18240581D01*
X70038574Y18245797D01*
X70059809Y18248947D01*
X70081250Y18250000D01*
X70518750Y18250000D01*
X70540191Y18248947D01*
X70540191Y18248947D01*
G37*
D16*
X70300000Y17775000D03*
D11*
G36*
X70540191Y16248947D02*
G01*
X70561426Y16245797D01*
X70582250Y16240581D01*
X70602462Y16233349D01*
X70621868Y16224170D01*
X70640281Y16213134D01*
X70657524Y16200346D01*
X70673430Y16185930D01*
X70687846Y16170024D01*
X70700634Y16152781D01*
X70711670Y16134368D01*
X70720849Y16114962D01*
X70728081Y16094750D01*
X70733297Y16073926D01*
X70736447Y16052691D01*
X70737500Y16031250D01*
X70737500Y15518750D01*
X70736447Y15497309D01*
X70733297Y15476074D01*
X70728081Y15455250D01*
X70720849Y15435038D01*
X70711670Y15415632D01*
X70700634Y15397219D01*
X70687846Y15379976D01*
X70673430Y15364070D01*
X70657524Y15349654D01*
X70640281Y15336866D01*
X70621868Y15325830D01*
X70602462Y15316651D01*
X70582250Y15309419D01*
X70561426Y15304203D01*
X70540191Y15301053D01*
X70518750Y15300000D01*
X70081250Y15300000D01*
X70059809Y15301053D01*
X70038574Y15304203D01*
X70017750Y15309419D01*
X69997538Y15316651D01*
X69978132Y15325830D01*
X69959719Y15336866D01*
X69942476Y15349654D01*
X69926570Y15364070D01*
X69912154Y15379976D01*
X69899366Y15397219D01*
X69888330Y15415632D01*
X69879151Y15435038D01*
X69871919Y15455250D01*
X69866703Y15476074D01*
X69863553Y15497309D01*
X69862500Y15518750D01*
X69862500Y16031250D01*
X69863553Y16052691D01*
X69866703Y16073926D01*
X69871919Y16094750D01*
X69879151Y16114962D01*
X69888330Y16134368D01*
X69899366Y16152781D01*
X69912154Y16170024D01*
X69926570Y16185930D01*
X69942476Y16200346D01*
X69959719Y16213134D01*
X69978132Y16224170D01*
X69997538Y16233349D01*
X70017750Y16240581D01*
X70038574Y16245797D01*
X70059809Y16248947D01*
X70081250Y16250000D01*
X70518750Y16250000D01*
X70540191Y16248947D01*
X70540191Y16248947D01*
G37*
D16*
X70300000Y15775000D03*
D11*
G36*
X72115191Y16248947D02*
G01*
X72136426Y16245797D01*
X72157250Y16240581D01*
X72177462Y16233349D01*
X72196868Y16224170D01*
X72215281Y16213134D01*
X72232524Y16200346D01*
X72248430Y16185930D01*
X72262846Y16170024D01*
X72275634Y16152781D01*
X72286670Y16134368D01*
X72295849Y16114962D01*
X72303081Y16094750D01*
X72308297Y16073926D01*
X72311447Y16052691D01*
X72312500Y16031250D01*
X72312500Y15518750D01*
X72311447Y15497309D01*
X72308297Y15476074D01*
X72303081Y15455250D01*
X72295849Y15435038D01*
X72286670Y15415632D01*
X72275634Y15397219D01*
X72262846Y15379976D01*
X72248430Y15364070D01*
X72232524Y15349654D01*
X72215281Y15336866D01*
X72196868Y15325830D01*
X72177462Y15316651D01*
X72157250Y15309419D01*
X72136426Y15304203D01*
X72115191Y15301053D01*
X72093750Y15300000D01*
X71656250Y15300000D01*
X71634809Y15301053D01*
X71613574Y15304203D01*
X71592750Y15309419D01*
X71572538Y15316651D01*
X71553132Y15325830D01*
X71534719Y15336866D01*
X71517476Y15349654D01*
X71501570Y15364070D01*
X71487154Y15379976D01*
X71474366Y15397219D01*
X71463330Y15415632D01*
X71454151Y15435038D01*
X71446919Y15455250D01*
X71441703Y15476074D01*
X71438553Y15497309D01*
X71437500Y15518750D01*
X71437500Y16031250D01*
X71438553Y16052691D01*
X71441703Y16073926D01*
X71446919Y16094750D01*
X71454151Y16114962D01*
X71463330Y16134368D01*
X71474366Y16152781D01*
X71487154Y16170024D01*
X71501570Y16185930D01*
X71517476Y16200346D01*
X71534719Y16213134D01*
X71553132Y16224170D01*
X71572538Y16233349D01*
X71592750Y16240581D01*
X71613574Y16245797D01*
X71634809Y16248947D01*
X71656250Y16250000D01*
X72093750Y16250000D01*
X72115191Y16248947D01*
X72115191Y16248947D01*
G37*
D16*
X71875000Y15775000D03*
D11*
G36*
X72115191Y14248947D02*
G01*
X72136426Y14245797D01*
X72157250Y14240581D01*
X72177462Y14233349D01*
X72196868Y14224170D01*
X72215281Y14213134D01*
X72232524Y14200346D01*
X72248430Y14185930D01*
X72262846Y14170024D01*
X72275634Y14152781D01*
X72286670Y14134368D01*
X72295849Y14114962D01*
X72303081Y14094750D01*
X72308297Y14073926D01*
X72311447Y14052691D01*
X72312500Y14031250D01*
X72312500Y13518750D01*
X72311447Y13497309D01*
X72308297Y13476074D01*
X72303081Y13455250D01*
X72295849Y13435038D01*
X72286670Y13415632D01*
X72275634Y13397219D01*
X72262846Y13379976D01*
X72248430Y13364070D01*
X72232524Y13349654D01*
X72215281Y13336866D01*
X72196868Y13325830D01*
X72177462Y13316651D01*
X72157250Y13309419D01*
X72136426Y13304203D01*
X72115191Y13301053D01*
X72093750Y13300000D01*
X71656250Y13300000D01*
X71634809Y13301053D01*
X71613574Y13304203D01*
X71592750Y13309419D01*
X71572538Y13316651D01*
X71553132Y13325830D01*
X71534719Y13336866D01*
X71517476Y13349654D01*
X71501570Y13364070D01*
X71487154Y13379976D01*
X71474366Y13397219D01*
X71463330Y13415632D01*
X71454151Y13435038D01*
X71446919Y13455250D01*
X71441703Y13476074D01*
X71438553Y13497309D01*
X71437500Y13518750D01*
X71437500Y14031250D01*
X71438553Y14052691D01*
X71441703Y14073926D01*
X71446919Y14094750D01*
X71454151Y14114962D01*
X71463330Y14134368D01*
X71474366Y14152781D01*
X71487154Y14170024D01*
X71501570Y14185930D01*
X71517476Y14200346D01*
X71534719Y14213134D01*
X71553132Y14224170D01*
X71572538Y14233349D01*
X71592750Y14240581D01*
X71613574Y14245797D01*
X71634809Y14248947D01*
X71656250Y14250000D01*
X72093750Y14250000D01*
X72115191Y14248947D01*
X72115191Y14248947D01*
G37*
D16*
X71875000Y13775000D03*
D11*
G36*
X70540191Y14248947D02*
G01*
X70561426Y14245797D01*
X70582250Y14240581D01*
X70602462Y14233349D01*
X70621868Y14224170D01*
X70640281Y14213134D01*
X70657524Y14200346D01*
X70673430Y14185930D01*
X70687846Y14170024D01*
X70700634Y14152781D01*
X70711670Y14134368D01*
X70720849Y14114962D01*
X70728081Y14094750D01*
X70733297Y14073926D01*
X70736447Y14052691D01*
X70737500Y14031250D01*
X70737500Y13518750D01*
X70736447Y13497309D01*
X70733297Y13476074D01*
X70728081Y13455250D01*
X70720849Y13435038D01*
X70711670Y13415632D01*
X70700634Y13397219D01*
X70687846Y13379976D01*
X70673430Y13364070D01*
X70657524Y13349654D01*
X70640281Y13336866D01*
X70621868Y13325830D01*
X70602462Y13316651D01*
X70582250Y13309419D01*
X70561426Y13304203D01*
X70540191Y13301053D01*
X70518750Y13300000D01*
X70081250Y13300000D01*
X70059809Y13301053D01*
X70038574Y13304203D01*
X70017750Y13309419D01*
X69997538Y13316651D01*
X69978132Y13325830D01*
X69959719Y13336866D01*
X69942476Y13349654D01*
X69926570Y13364070D01*
X69912154Y13379976D01*
X69899366Y13397219D01*
X69888330Y13415632D01*
X69879151Y13435038D01*
X69871919Y13455250D01*
X69866703Y13476074D01*
X69863553Y13497309D01*
X69862500Y13518750D01*
X69862500Y14031250D01*
X69863553Y14052691D01*
X69866703Y14073926D01*
X69871919Y14094750D01*
X69879151Y14114962D01*
X69888330Y14134368D01*
X69899366Y14152781D01*
X69912154Y14170024D01*
X69926570Y14185930D01*
X69942476Y14200346D01*
X69959719Y14213134D01*
X69978132Y14224170D01*
X69997538Y14233349D01*
X70017750Y14240581D01*
X70038574Y14245797D01*
X70059809Y14248947D01*
X70081250Y14250000D01*
X70518750Y14250000D01*
X70540191Y14248947D01*
X70540191Y14248947D01*
G37*
D16*
X70300000Y13775000D03*
D11*
G36*
X70540191Y12248947D02*
G01*
X70561426Y12245797D01*
X70582250Y12240581D01*
X70602462Y12233349D01*
X70621868Y12224170D01*
X70640281Y12213134D01*
X70657524Y12200346D01*
X70673430Y12185930D01*
X70687846Y12170024D01*
X70700634Y12152781D01*
X70711670Y12134368D01*
X70720849Y12114962D01*
X70728081Y12094750D01*
X70733297Y12073926D01*
X70736447Y12052691D01*
X70737500Y12031250D01*
X70737500Y11518750D01*
X70736447Y11497309D01*
X70733297Y11476074D01*
X70728081Y11455250D01*
X70720849Y11435038D01*
X70711670Y11415632D01*
X70700634Y11397219D01*
X70687846Y11379976D01*
X70673430Y11364070D01*
X70657524Y11349654D01*
X70640281Y11336866D01*
X70621868Y11325830D01*
X70602462Y11316651D01*
X70582250Y11309419D01*
X70561426Y11304203D01*
X70540191Y11301053D01*
X70518750Y11300000D01*
X70081250Y11300000D01*
X70059809Y11301053D01*
X70038574Y11304203D01*
X70017750Y11309419D01*
X69997538Y11316651D01*
X69978132Y11325830D01*
X69959719Y11336866D01*
X69942476Y11349654D01*
X69926570Y11364070D01*
X69912154Y11379976D01*
X69899366Y11397219D01*
X69888330Y11415632D01*
X69879151Y11435038D01*
X69871919Y11455250D01*
X69866703Y11476074D01*
X69863553Y11497309D01*
X69862500Y11518750D01*
X69862500Y12031250D01*
X69863553Y12052691D01*
X69866703Y12073926D01*
X69871919Y12094750D01*
X69879151Y12114962D01*
X69888330Y12134368D01*
X69899366Y12152781D01*
X69912154Y12170024D01*
X69926570Y12185930D01*
X69942476Y12200346D01*
X69959719Y12213134D01*
X69978132Y12224170D01*
X69997538Y12233349D01*
X70017750Y12240581D01*
X70038574Y12245797D01*
X70059809Y12248947D01*
X70081250Y12250000D01*
X70518750Y12250000D01*
X70540191Y12248947D01*
X70540191Y12248947D01*
G37*
D16*
X70300000Y11775000D03*
D11*
G36*
X72115191Y12248947D02*
G01*
X72136426Y12245797D01*
X72157250Y12240581D01*
X72177462Y12233349D01*
X72196868Y12224170D01*
X72215281Y12213134D01*
X72232524Y12200346D01*
X72248430Y12185930D01*
X72262846Y12170024D01*
X72275634Y12152781D01*
X72286670Y12134368D01*
X72295849Y12114962D01*
X72303081Y12094750D01*
X72308297Y12073926D01*
X72311447Y12052691D01*
X72312500Y12031250D01*
X72312500Y11518750D01*
X72311447Y11497309D01*
X72308297Y11476074D01*
X72303081Y11455250D01*
X72295849Y11435038D01*
X72286670Y11415632D01*
X72275634Y11397219D01*
X72262846Y11379976D01*
X72248430Y11364070D01*
X72232524Y11349654D01*
X72215281Y11336866D01*
X72196868Y11325830D01*
X72177462Y11316651D01*
X72157250Y11309419D01*
X72136426Y11304203D01*
X72115191Y11301053D01*
X72093750Y11300000D01*
X71656250Y11300000D01*
X71634809Y11301053D01*
X71613574Y11304203D01*
X71592750Y11309419D01*
X71572538Y11316651D01*
X71553132Y11325830D01*
X71534719Y11336866D01*
X71517476Y11349654D01*
X71501570Y11364070D01*
X71487154Y11379976D01*
X71474366Y11397219D01*
X71463330Y11415632D01*
X71454151Y11435038D01*
X71446919Y11455250D01*
X71441703Y11476074D01*
X71438553Y11497309D01*
X71437500Y11518750D01*
X71437500Y12031250D01*
X71438553Y12052691D01*
X71441703Y12073926D01*
X71446919Y12094750D01*
X71454151Y12114962D01*
X71463330Y12134368D01*
X71474366Y12152781D01*
X71487154Y12170024D01*
X71501570Y12185930D01*
X71517476Y12200346D01*
X71534719Y12213134D01*
X71553132Y12224170D01*
X71572538Y12233349D01*
X71592750Y12240581D01*
X71613574Y12245797D01*
X71634809Y12248947D01*
X71656250Y12250000D01*
X72093750Y12250000D01*
X72115191Y12248947D01*
X72115191Y12248947D01*
G37*
D16*
X71875000Y11775000D03*
D11*
G36*
X72115191Y10248947D02*
G01*
X72136426Y10245797D01*
X72157250Y10240581D01*
X72177462Y10233349D01*
X72196868Y10224170D01*
X72215281Y10213134D01*
X72232524Y10200346D01*
X72248430Y10185930D01*
X72262846Y10170024D01*
X72275634Y10152781D01*
X72286670Y10134368D01*
X72295849Y10114962D01*
X72303081Y10094750D01*
X72308297Y10073926D01*
X72311447Y10052691D01*
X72312500Y10031250D01*
X72312500Y9518750D01*
X72311447Y9497309D01*
X72308297Y9476074D01*
X72303081Y9455250D01*
X72295849Y9435038D01*
X72286670Y9415632D01*
X72275634Y9397219D01*
X72262846Y9379976D01*
X72248430Y9364070D01*
X72232524Y9349654D01*
X72215281Y9336866D01*
X72196868Y9325830D01*
X72177462Y9316651D01*
X72157250Y9309419D01*
X72136426Y9304203D01*
X72115191Y9301053D01*
X72093750Y9300000D01*
X71656250Y9300000D01*
X71634809Y9301053D01*
X71613574Y9304203D01*
X71592750Y9309419D01*
X71572538Y9316651D01*
X71553132Y9325830D01*
X71534719Y9336866D01*
X71517476Y9349654D01*
X71501570Y9364070D01*
X71487154Y9379976D01*
X71474366Y9397219D01*
X71463330Y9415632D01*
X71454151Y9435038D01*
X71446919Y9455250D01*
X71441703Y9476074D01*
X71438553Y9497309D01*
X71437500Y9518750D01*
X71437500Y10031250D01*
X71438553Y10052691D01*
X71441703Y10073926D01*
X71446919Y10094750D01*
X71454151Y10114962D01*
X71463330Y10134368D01*
X71474366Y10152781D01*
X71487154Y10170024D01*
X71501570Y10185930D01*
X71517476Y10200346D01*
X71534719Y10213134D01*
X71553132Y10224170D01*
X71572538Y10233349D01*
X71592750Y10240581D01*
X71613574Y10245797D01*
X71634809Y10248947D01*
X71656250Y10250000D01*
X72093750Y10250000D01*
X72115191Y10248947D01*
X72115191Y10248947D01*
G37*
D16*
X71875000Y9775000D03*
D11*
G36*
X70540191Y10248947D02*
G01*
X70561426Y10245797D01*
X70582250Y10240581D01*
X70602462Y10233349D01*
X70621868Y10224170D01*
X70640281Y10213134D01*
X70657524Y10200346D01*
X70673430Y10185930D01*
X70687846Y10170024D01*
X70700634Y10152781D01*
X70711670Y10134368D01*
X70720849Y10114962D01*
X70728081Y10094750D01*
X70733297Y10073926D01*
X70736447Y10052691D01*
X70737500Y10031250D01*
X70737500Y9518750D01*
X70736447Y9497309D01*
X70733297Y9476074D01*
X70728081Y9455250D01*
X70720849Y9435038D01*
X70711670Y9415632D01*
X70700634Y9397219D01*
X70687846Y9379976D01*
X70673430Y9364070D01*
X70657524Y9349654D01*
X70640281Y9336866D01*
X70621868Y9325830D01*
X70602462Y9316651D01*
X70582250Y9309419D01*
X70561426Y9304203D01*
X70540191Y9301053D01*
X70518750Y9300000D01*
X70081250Y9300000D01*
X70059809Y9301053D01*
X70038574Y9304203D01*
X70017750Y9309419D01*
X69997538Y9316651D01*
X69978132Y9325830D01*
X69959719Y9336866D01*
X69942476Y9349654D01*
X69926570Y9364070D01*
X69912154Y9379976D01*
X69899366Y9397219D01*
X69888330Y9415632D01*
X69879151Y9435038D01*
X69871919Y9455250D01*
X69866703Y9476074D01*
X69863553Y9497309D01*
X69862500Y9518750D01*
X69862500Y10031250D01*
X69863553Y10052691D01*
X69866703Y10073926D01*
X69871919Y10094750D01*
X69879151Y10114962D01*
X69888330Y10134368D01*
X69899366Y10152781D01*
X69912154Y10170024D01*
X69926570Y10185930D01*
X69942476Y10200346D01*
X69959719Y10213134D01*
X69978132Y10224170D01*
X69997538Y10233349D01*
X70017750Y10240581D01*
X70038574Y10245797D01*
X70059809Y10248947D01*
X70081250Y10250000D01*
X70518750Y10250000D01*
X70540191Y10248947D01*
X70540191Y10248947D01*
G37*
D16*
X70300000Y9775000D03*
D11*
G36*
X72115191Y8248947D02*
G01*
X72136426Y8245797D01*
X72157250Y8240581D01*
X72177462Y8233349D01*
X72196868Y8224170D01*
X72215281Y8213134D01*
X72232524Y8200346D01*
X72248430Y8185930D01*
X72262846Y8170024D01*
X72275634Y8152781D01*
X72286670Y8134368D01*
X72295849Y8114962D01*
X72303081Y8094750D01*
X72308297Y8073926D01*
X72311447Y8052691D01*
X72312500Y8031250D01*
X72312500Y7518750D01*
X72311447Y7497309D01*
X72308297Y7476074D01*
X72303081Y7455250D01*
X72295849Y7435038D01*
X72286670Y7415632D01*
X72275634Y7397219D01*
X72262846Y7379976D01*
X72248430Y7364070D01*
X72232524Y7349654D01*
X72215281Y7336866D01*
X72196868Y7325830D01*
X72177462Y7316651D01*
X72157250Y7309419D01*
X72136426Y7304203D01*
X72115191Y7301053D01*
X72093750Y7300000D01*
X71656250Y7300000D01*
X71634809Y7301053D01*
X71613574Y7304203D01*
X71592750Y7309419D01*
X71572538Y7316651D01*
X71553132Y7325830D01*
X71534719Y7336866D01*
X71517476Y7349654D01*
X71501570Y7364070D01*
X71487154Y7379976D01*
X71474366Y7397219D01*
X71463330Y7415632D01*
X71454151Y7435038D01*
X71446919Y7455250D01*
X71441703Y7476074D01*
X71438553Y7497309D01*
X71437500Y7518750D01*
X71437500Y8031250D01*
X71438553Y8052691D01*
X71441703Y8073926D01*
X71446919Y8094750D01*
X71454151Y8114962D01*
X71463330Y8134368D01*
X71474366Y8152781D01*
X71487154Y8170024D01*
X71501570Y8185930D01*
X71517476Y8200346D01*
X71534719Y8213134D01*
X71553132Y8224170D01*
X71572538Y8233349D01*
X71592750Y8240581D01*
X71613574Y8245797D01*
X71634809Y8248947D01*
X71656250Y8250000D01*
X72093750Y8250000D01*
X72115191Y8248947D01*
X72115191Y8248947D01*
G37*
D16*
X71875000Y7775000D03*
D11*
G36*
X70540191Y8248947D02*
G01*
X70561426Y8245797D01*
X70582250Y8240581D01*
X70602462Y8233349D01*
X70621868Y8224170D01*
X70640281Y8213134D01*
X70657524Y8200346D01*
X70673430Y8185930D01*
X70687846Y8170024D01*
X70700634Y8152781D01*
X70711670Y8134368D01*
X70720849Y8114962D01*
X70728081Y8094750D01*
X70733297Y8073926D01*
X70736447Y8052691D01*
X70737500Y8031250D01*
X70737500Y7518750D01*
X70736447Y7497309D01*
X70733297Y7476074D01*
X70728081Y7455250D01*
X70720849Y7435038D01*
X70711670Y7415632D01*
X70700634Y7397219D01*
X70687846Y7379976D01*
X70673430Y7364070D01*
X70657524Y7349654D01*
X70640281Y7336866D01*
X70621868Y7325830D01*
X70602462Y7316651D01*
X70582250Y7309419D01*
X70561426Y7304203D01*
X70540191Y7301053D01*
X70518750Y7300000D01*
X70081250Y7300000D01*
X70059809Y7301053D01*
X70038574Y7304203D01*
X70017750Y7309419D01*
X69997538Y7316651D01*
X69978132Y7325830D01*
X69959719Y7336866D01*
X69942476Y7349654D01*
X69926570Y7364070D01*
X69912154Y7379976D01*
X69899366Y7397219D01*
X69888330Y7415632D01*
X69879151Y7435038D01*
X69871919Y7455250D01*
X69866703Y7476074D01*
X69863553Y7497309D01*
X69862500Y7518750D01*
X69862500Y8031250D01*
X69863553Y8052691D01*
X69866703Y8073926D01*
X69871919Y8094750D01*
X69879151Y8114962D01*
X69888330Y8134368D01*
X69899366Y8152781D01*
X69912154Y8170024D01*
X69926570Y8185930D01*
X69942476Y8200346D01*
X69959719Y8213134D01*
X69978132Y8224170D01*
X69997538Y8233349D01*
X70017750Y8240581D01*
X70038574Y8245797D01*
X70059809Y8248947D01*
X70081250Y8250000D01*
X70518750Y8250000D01*
X70540191Y8248947D01*
X70540191Y8248947D01*
G37*
D16*
X70300000Y7775000D03*
D11*
G36*
X70527691Y6248947D02*
G01*
X70548926Y6245797D01*
X70569750Y6240581D01*
X70589962Y6233349D01*
X70609368Y6224170D01*
X70627781Y6213134D01*
X70645024Y6200346D01*
X70660930Y6185930D01*
X70675346Y6170024D01*
X70688134Y6152781D01*
X70699170Y6134368D01*
X70708349Y6114962D01*
X70715581Y6094750D01*
X70720797Y6073926D01*
X70723947Y6052691D01*
X70725000Y6031250D01*
X70725000Y5518750D01*
X70723947Y5497309D01*
X70720797Y5476074D01*
X70715581Y5455250D01*
X70708349Y5435038D01*
X70699170Y5415632D01*
X70688134Y5397219D01*
X70675346Y5379976D01*
X70660930Y5364070D01*
X70645024Y5349654D01*
X70627781Y5336866D01*
X70609368Y5325830D01*
X70589962Y5316651D01*
X70569750Y5309419D01*
X70548926Y5304203D01*
X70527691Y5301053D01*
X70506250Y5300000D01*
X70068750Y5300000D01*
X70047309Y5301053D01*
X70026074Y5304203D01*
X70005250Y5309419D01*
X69985038Y5316651D01*
X69965632Y5325830D01*
X69947219Y5336866D01*
X69929976Y5349654D01*
X69914070Y5364070D01*
X69899654Y5379976D01*
X69886866Y5397219D01*
X69875830Y5415632D01*
X69866651Y5435038D01*
X69859419Y5455250D01*
X69854203Y5476074D01*
X69851053Y5497309D01*
X69850000Y5518750D01*
X69850000Y6031250D01*
X69851053Y6052691D01*
X69854203Y6073926D01*
X69859419Y6094750D01*
X69866651Y6114962D01*
X69875830Y6134368D01*
X69886866Y6152781D01*
X69899654Y6170024D01*
X69914070Y6185930D01*
X69929976Y6200346D01*
X69947219Y6213134D01*
X69965632Y6224170D01*
X69985038Y6233349D01*
X70005250Y6240581D01*
X70026074Y6245797D01*
X70047309Y6248947D01*
X70068750Y6250000D01*
X70506250Y6250000D01*
X70527691Y6248947D01*
X70527691Y6248947D01*
G37*
D16*
X70287500Y5775000D03*
D11*
G36*
X72102691Y6248947D02*
G01*
X72123926Y6245797D01*
X72144750Y6240581D01*
X72164962Y6233349D01*
X72184368Y6224170D01*
X72202781Y6213134D01*
X72220024Y6200346D01*
X72235930Y6185930D01*
X72250346Y6170024D01*
X72263134Y6152781D01*
X72274170Y6134368D01*
X72283349Y6114962D01*
X72290581Y6094750D01*
X72295797Y6073926D01*
X72298947Y6052691D01*
X72300000Y6031250D01*
X72300000Y5518750D01*
X72298947Y5497309D01*
X72295797Y5476074D01*
X72290581Y5455250D01*
X72283349Y5435038D01*
X72274170Y5415632D01*
X72263134Y5397219D01*
X72250346Y5379976D01*
X72235930Y5364070D01*
X72220024Y5349654D01*
X72202781Y5336866D01*
X72184368Y5325830D01*
X72164962Y5316651D01*
X72144750Y5309419D01*
X72123926Y5304203D01*
X72102691Y5301053D01*
X72081250Y5300000D01*
X71643750Y5300000D01*
X71622309Y5301053D01*
X71601074Y5304203D01*
X71580250Y5309419D01*
X71560038Y5316651D01*
X71540632Y5325830D01*
X71522219Y5336866D01*
X71504976Y5349654D01*
X71489070Y5364070D01*
X71474654Y5379976D01*
X71461866Y5397219D01*
X71450830Y5415632D01*
X71441651Y5435038D01*
X71434419Y5455250D01*
X71429203Y5476074D01*
X71426053Y5497309D01*
X71425000Y5518750D01*
X71425000Y6031250D01*
X71426053Y6052691D01*
X71429203Y6073926D01*
X71434419Y6094750D01*
X71441651Y6114962D01*
X71450830Y6134368D01*
X71461866Y6152781D01*
X71474654Y6170024D01*
X71489070Y6185930D01*
X71504976Y6200346D01*
X71522219Y6213134D01*
X71540632Y6224170D01*
X71560038Y6233349D01*
X71580250Y6240581D01*
X71601074Y6245797D01*
X71622309Y6248947D01*
X71643750Y6250000D01*
X72081250Y6250000D01*
X72102691Y6248947D01*
X72102691Y6248947D01*
G37*
D16*
X71862500Y5775000D03*
D17*
X69100000Y37200000D03*
X65050000Y37200000D03*
D18*
X74775000Y3775000D03*
X74775000Y5775000D03*
X74775000Y7775000D03*
X74775000Y9775000D03*
D19*
X80275000Y1375000D03*
X80275000Y22175000D03*
D18*
X74775000Y11775000D03*
X74775000Y13775000D03*
X74775000Y15775000D03*
X74775000Y17775000D03*
X74775000Y19775000D03*
D11*
G36*
X10760779Y8598856D02*
G01*
X10783834Y8595437D01*
X10806443Y8589773D01*
X10828387Y8581921D01*
X10849457Y8571956D01*
X10869448Y8559974D01*
X10888168Y8546090D01*
X10905438Y8530438D01*
X10921090Y8513168D01*
X10934974Y8494448D01*
X10946956Y8474457D01*
X10956921Y8453387D01*
X10964773Y8431443D01*
X10970437Y8408834D01*
X10973856Y8385779D01*
X10975000Y8362500D01*
X10975000Y7787500D01*
X10973856Y7764221D01*
X10970437Y7741166D01*
X10964773Y7718557D01*
X10956921Y7696613D01*
X10946956Y7675543D01*
X10934974Y7655552D01*
X10921090Y7636832D01*
X10905438Y7619562D01*
X10888168Y7603910D01*
X10869448Y7590026D01*
X10849457Y7578044D01*
X10828387Y7568079D01*
X10806443Y7560227D01*
X10783834Y7554563D01*
X10760779Y7551144D01*
X10737500Y7550000D01*
X10262500Y7550000D01*
X10239221Y7551144D01*
X10216166Y7554563D01*
X10193557Y7560227D01*
X10171613Y7568079D01*
X10150543Y7578044D01*
X10130552Y7590026D01*
X10111832Y7603910D01*
X10094562Y7619562D01*
X10078910Y7636832D01*
X10065026Y7655552D01*
X10053044Y7675543D01*
X10043079Y7696613D01*
X10035227Y7718557D01*
X10029563Y7741166D01*
X10026144Y7764221D01*
X10025000Y7787500D01*
X10025000Y8362500D01*
X10026144Y8385779D01*
X10029563Y8408834D01*
X10035227Y8431443D01*
X10043079Y8453387D01*
X10053044Y8474457D01*
X10065026Y8494448D01*
X10078910Y8513168D01*
X10094562Y8530438D01*
X10111832Y8546090D01*
X10130552Y8559974D01*
X10150543Y8571956D01*
X10171613Y8581921D01*
X10193557Y8589773D01*
X10216166Y8595437D01*
X10239221Y8598856D01*
X10262500Y8600000D01*
X10737500Y8600000D01*
X10760779Y8598856D01*
X10760779Y8598856D01*
G37*
D12*
X10500000Y8075000D03*
D11*
G36*
X10760779Y10348856D02*
G01*
X10783834Y10345437D01*
X10806443Y10339773D01*
X10828387Y10331921D01*
X10849457Y10321956D01*
X10869448Y10309974D01*
X10888168Y10296090D01*
X10905438Y10280438D01*
X10921090Y10263168D01*
X10934974Y10244448D01*
X10946956Y10224457D01*
X10956921Y10203387D01*
X10964773Y10181443D01*
X10970437Y10158834D01*
X10973856Y10135779D01*
X10975000Y10112500D01*
X10975000Y9537500D01*
X10973856Y9514221D01*
X10970437Y9491166D01*
X10964773Y9468557D01*
X10956921Y9446613D01*
X10946956Y9425543D01*
X10934974Y9405552D01*
X10921090Y9386832D01*
X10905438Y9369562D01*
X10888168Y9353910D01*
X10869448Y9340026D01*
X10849457Y9328044D01*
X10828387Y9318079D01*
X10806443Y9310227D01*
X10783834Y9304563D01*
X10760779Y9301144D01*
X10737500Y9300000D01*
X10262500Y9300000D01*
X10239221Y9301144D01*
X10216166Y9304563D01*
X10193557Y9310227D01*
X10171613Y9318079D01*
X10150543Y9328044D01*
X10130552Y9340026D01*
X10111832Y9353910D01*
X10094562Y9369562D01*
X10078910Y9386832D01*
X10065026Y9405552D01*
X10053044Y9425543D01*
X10043079Y9446613D01*
X10035227Y9468557D01*
X10029563Y9491166D01*
X10026144Y9514221D01*
X10025000Y9537500D01*
X10025000Y10112500D01*
X10026144Y10135779D01*
X10029563Y10158834D01*
X10035227Y10181443D01*
X10043079Y10203387D01*
X10053044Y10224457D01*
X10065026Y10244448D01*
X10078910Y10263168D01*
X10094562Y10280438D01*
X10111832Y10296090D01*
X10130552Y10309974D01*
X10150543Y10321956D01*
X10171613Y10331921D01*
X10193557Y10339773D01*
X10216166Y10345437D01*
X10239221Y10348856D01*
X10262500Y10350000D01*
X10737500Y10350000D01*
X10760779Y10348856D01*
X10760779Y10348856D01*
G37*
D12*
X10500000Y9825000D03*
D11*
G36*
X10760779Y30298856D02*
G01*
X10783834Y30295437D01*
X10806443Y30289773D01*
X10828387Y30281921D01*
X10849457Y30271956D01*
X10869448Y30259974D01*
X10888168Y30246090D01*
X10905438Y30230438D01*
X10921090Y30213168D01*
X10934974Y30194448D01*
X10946956Y30174457D01*
X10956921Y30153387D01*
X10964773Y30131443D01*
X10970437Y30108834D01*
X10973856Y30085779D01*
X10975000Y30062500D01*
X10975000Y29487500D01*
X10973856Y29464221D01*
X10970437Y29441166D01*
X10964773Y29418557D01*
X10956921Y29396613D01*
X10946956Y29375543D01*
X10934974Y29355552D01*
X10921090Y29336832D01*
X10905438Y29319562D01*
X10888168Y29303910D01*
X10869448Y29290026D01*
X10849457Y29278044D01*
X10828387Y29268079D01*
X10806443Y29260227D01*
X10783834Y29254563D01*
X10760779Y29251144D01*
X10737500Y29250000D01*
X10262500Y29250000D01*
X10239221Y29251144D01*
X10216166Y29254563D01*
X10193557Y29260227D01*
X10171613Y29268079D01*
X10150543Y29278044D01*
X10130552Y29290026D01*
X10111832Y29303910D01*
X10094562Y29319562D01*
X10078910Y29336832D01*
X10065026Y29355552D01*
X10053044Y29375543D01*
X10043079Y29396613D01*
X10035227Y29418557D01*
X10029563Y29441166D01*
X10026144Y29464221D01*
X10025000Y29487500D01*
X10025000Y30062500D01*
X10026144Y30085779D01*
X10029563Y30108834D01*
X10035227Y30131443D01*
X10043079Y30153387D01*
X10053044Y30174457D01*
X10065026Y30194448D01*
X10078910Y30213168D01*
X10094562Y30230438D01*
X10111832Y30246090D01*
X10130552Y30259974D01*
X10150543Y30271956D01*
X10171613Y30281921D01*
X10193557Y30289773D01*
X10216166Y30295437D01*
X10239221Y30298856D01*
X10262500Y30300000D01*
X10737500Y30300000D01*
X10760779Y30298856D01*
X10760779Y30298856D01*
G37*
D12*
X10500000Y29775000D03*
D11*
G36*
X10760779Y28548856D02*
G01*
X10783834Y28545437D01*
X10806443Y28539773D01*
X10828387Y28531921D01*
X10849457Y28521956D01*
X10869448Y28509974D01*
X10888168Y28496090D01*
X10905438Y28480438D01*
X10921090Y28463168D01*
X10934974Y28444448D01*
X10946956Y28424457D01*
X10956921Y28403387D01*
X10964773Y28381443D01*
X10970437Y28358834D01*
X10973856Y28335779D01*
X10975000Y28312500D01*
X10975000Y27737500D01*
X10973856Y27714221D01*
X10970437Y27691166D01*
X10964773Y27668557D01*
X10956921Y27646613D01*
X10946956Y27625543D01*
X10934974Y27605552D01*
X10921090Y27586832D01*
X10905438Y27569562D01*
X10888168Y27553910D01*
X10869448Y27540026D01*
X10849457Y27528044D01*
X10828387Y27518079D01*
X10806443Y27510227D01*
X10783834Y27504563D01*
X10760779Y27501144D01*
X10737500Y27500000D01*
X10262500Y27500000D01*
X10239221Y27501144D01*
X10216166Y27504563D01*
X10193557Y27510227D01*
X10171613Y27518079D01*
X10150543Y27528044D01*
X10130552Y27540026D01*
X10111832Y27553910D01*
X10094562Y27569562D01*
X10078910Y27586832D01*
X10065026Y27605552D01*
X10053044Y27625543D01*
X10043079Y27646613D01*
X10035227Y27668557D01*
X10029563Y27691166D01*
X10026144Y27714221D01*
X10025000Y27737500D01*
X10025000Y28312500D01*
X10026144Y28335779D01*
X10029563Y28358834D01*
X10035227Y28381443D01*
X10043079Y28403387D01*
X10053044Y28424457D01*
X10065026Y28444448D01*
X10078910Y28463168D01*
X10094562Y28480438D01*
X10111832Y28496090D01*
X10130552Y28509974D01*
X10150543Y28521956D01*
X10171613Y28531921D01*
X10193557Y28539773D01*
X10216166Y28545437D01*
X10239221Y28548856D01*
X10262500Y28550000D01*
X10737500Y28550000D01*
X10760779Y28548856D01*
X10760779Y28548856D01*
G37*
D12*
X10500000Y28025000D03*
D11*
G36*
X10760779Y20298856D02*
G01*
X10783834Y20295437D01*
X10806443Y20289773D01*
X10828387Y20281921D01*
X10849457Y20271956D01*
X10869448Y20259974D01*
X10888168Y20246090D01*
X10905438Y20230438D01*
X10921090Y20213168D01*
X10934974Y20194448D01*
X10946956Y20174457D01*
X10956921Y20153387D01*
X10964773Y20131443D01*
X10970437Y20108834D01*
X10973856Y20085779D01*
X10975000Y20062500D01*
X10975000Y19487500D01*
X10973856Y19464221D01*
X10970437Y19441166D01*
X10964773Y19418557D01*
X10956921Y19396613D01*
X10946956Y19375543D01*
X10934974Y19355552D01*
X10921090Y19336832D01*
X10905438Y19319562D01*
X10888168Y19303910D01*
X10869448Y19290026D01*
X10849457Y19278044D01*
X10828387Y19268079D01*
X10806443Y19260227D01*
X10783834Y19254563D01*
X10760779Y19251144D01*
X10737500Y19250000D01*
X10262500Y19250000D01*
X10239221Y19251144D01*
X10216166Y19254563D01*
X10193557Y19260227D01*
X10171613Y19268079D01*
X10150543Y19278044D01*
X10130552Y19290026D01*
X10111832Y19303910D01*
X10094562Y19319562D01*
X10078910Y19336832D01*
X10065026Y19355552D01*
X10053044Y19375543D01*
X10043079Y19396613D01*
X10035227Y19418557D01*
X10029563Y19441166D01*
X10026144Y19464221D01*
X10025000Y19487500D01*
X10025000Y20062500D01*
X10026144Y20085779D01*
X10029563Y20108834D01*
X10035227Y20131443D01*
X10043079Y20153387D01*
X10053044Y20174457D01*
X10065026Y20194448D01*
X10078910Y20213168D01*
X10094562Y20230438D01*
X10111832Y20246090D01*
X10130552Y20259974D01*
X10150543Y20271956D01*
X10171613Y20281921D01*
X10193557Y20289773D01*
X10216166Y20295437D01*
X10239221Y20298856D01*
X10262500Y20300000D01*
X10737500Y20300000D01*
X10760779Y20298856D01*
X10760779Y20298856D01*
G37*
D12*
X10500000Y19775000D03*
D11*
G36*
X10760779Y18548856D02*
G01*
X10783834Y18545437D01*
X10806443Y18539773D01*
X10828387Y18531921D01*
X10849457Y18521956D01*
X10869448Y18509974D01*
X10888168Y18496090D01*
X10905438Y18480438D01*
X10921090Y18463168D01*
X10934974Y18444448D01*
X10946956Y18424457D01*
X10956921Y18403387D01*
X10964773Y18381443D01*
X10970437Y18358834D01*
X10973856Y18335779D01*
X10975000Y18312500D01*
X10975000Y17737500D01*
X10973856Y17714221D01*
X10970437Y17691166D01*
X10964773Y17668557D01*
X10956921Y17646613D01*
X10946956Y17625543D01*
X10934974Y17605552D01*
X10921090Y17586832D01*
X10905438Y17569562D01*
X10888168Y17553910D01*
X10869448Y17540026D01*
X10849457Y17528044D01*
X10828387Y17518079D01*
X10806443Y17510227D01*
X10783834Y17504563D01*
X10760779Y17501144D01*
X10737500Y17500000D01*
X10262500Y17500000D01*
X10239221Y17501144D01*
X10216166Y17504563D01*
X10193557Y17510227D01*
X10171613Y17518079D01*
X10150543Y17528044D01*
X10130552Y17540026D01*
X10111832Y17553910D01*
X10094562Y17569562D01*
X10078910Y17586832D01*
X10065026Y17605552D01*
X10053044Y17625543D01*
X10043079Y17646613D01*
X10035227Y17668557D01*
X10029563Y17691166D01*
X10026144Y17714221D01*
X10025000Y17737500D01*
X10025000Y18312500D01*
X10026144Y18335779D01*
X10029563Y18358834D01*
X10035227Y18381443D01*
X10043079Y18403387D01*
X10053044Y18424457D01*
X10065026Y18444448D01*
X10078910Y18463168D01*
X10094562Y18480438D01*
X10111832Y18496090D01*
X10130552Y18509974D01*
X10150543Y18521956D01*
X10171613Y18531921D01*
X10193557Y18539773D01*
X10216166Y18545437D01*
X10239221Y18548856D01*
X10262500Y18550000D01*
X10737500Y18550000D01*
X10760779Y18548856D01*
X10760779Y18548856D01*
G37*
D12*
X10500000Y18025000D03*
D11*
G36*
X10760779Y38398856D02*
G01*
X10783834Y38395437D01*
X10806443Y38389773D01*
X10828387Y38381921D01*
X10849457Y38371956D01*
X10869448Y38359974D01*
X10888168Y38346090D01*
X10905438Y38330438D01*
X10921090Y38313168D01*
X10934974Y38294448D01*
X10946956Y38274457D01*
X10956921Y38253387D01*
X10964773Y38231443D01*
X10970437Y38208834D01*
X10973856Y38185779D01*
X10975000Y38162500D01*
X10975000Y37587500D01*
X10973856Y37564221D01*
X10970437Y37541166D01*
X10964773Y37518557D01*
X10956921Y37496613D01*
X10946956Y37475543D01*
X10934974Y37455552D01*
X10921090Y37436832D01*
X10905438Y37419562D01*
X10888168Y37403910D01*
X10869448Y37390026D01*
X10849457Y37378044D01*
X10828387Y37368079D01*
X10806443Y37360227D01*
X10783834Y37354563D01*
X10760779Y37351144D01*
X10737500Y37350000D01*
X10262500Y37350000D01*
X10239221Y37351144D01*
X10216166Y37354563D01*
X10193557Y37360227D01*
X10171613Y37368079D01*
X10150543Y37378044D01*
X10130552Y37390026D01*
X10111832Y37403910D01*
X10094562Y37419562D01*
X10078910Y37436832D01*
X10065026Y37455552D01*
X10053044Y37475543D01*
X10043079Y37496613D01*
X10035227Y37518557D01*
X10029563Y37541166D01*
X10026144Y37564221D01*
X10025000Y37587500D01*
X10025000Y38162500D01*
X10026144Y38185779D01*
X10029563Y38208834D01*
X10035227Y38231443D01*
X10043079Y38253387D01*
X10053044Y38274457D01*
X10065026Y38294448D01*
X10078910Y38313168D01*
X10094562Y38330438D01*
X10111832Y38346090D01*
X10130552Y38359974D01*
X10150543Y38371956D01*
X10171613Y38381921D01*
X10193557Y38389773D01*
X10216166Y38395437D01*
X10239221Y38398856D01*
X10262500Y38400000D01*
X10737500Y38400000D01*
X10760779Y38398856D01*
X10760779Y38398856D01*
G37*
D12*
X10500000Y37875000D03*
D11*
G36*
X10760779Y40148856D02*
G01*
X10783834Y40145437D01*
X10806443Y40139773D01*
X10828387Y40131921D01*
X10849457Y40121956D01*
X10869448Y40109974D01*
X10888168Y40096090D01*
X10905438Y40080438D01*
X10921090Y40063168D01*
X10934974Y40044448D01*
X10946956Y40024457D01*
X10956921Y40003387D01*
X10964773Y39981443D01*
X10970437Y39958834D01*
X10973856Y39935779D01*
X10975000Y39912500D01*
X10975000Y39337500D01*
X10973856Y39314221D01*
X10970437Y39291166D01*
X10964773Y39268557D01*
X10956921Y39246613D01*
X10946956Y39225543D01*
X10934974Y39205552D01*
X10921090Y39186832D01*
X10905438Y39169562D01*
X10888168Y39153910D01*
X10869448Y39140026D01*
X10849457Y39128044D01*
X10828387Y39118079D01*
X10806443Y39110227D01*
X10783834Y39104563D01*
X10760779Y39101144D01*
X10737500Y39100000D01*
X10262500Y39100000D01*
X10239221Y39101144D01*
X10216166Y39104563D01*
X10193557Y39110227D01*
X10171613Y39118079D01*
X10150543Y39128044D01*
X10130552Y39140026D01*
X10111832Y39153910D01*
X10094562Y39169562D01*
X10078910Y39186832D01*
X10065026Y39205552D01*
X10053044Y39225543D01*
X10043079Y39246613D01*
X10035227Y39268557D01*
X10029563Y39291166D01*
X10026144Y39314221D01*
X10025000Y39337500D01*
X10025000Y39912500D01*
X10026144Y39935779D01*
X10029563Y39958834D01*
X10035227Y39981443D01*
X10043079Y40003387D01*
X10053044Y40024457D01*
X10065026Y40044448D01*
X10078910Y40063168D01*
X10094562Y40080438D01*
X10111832Y40096090D01*
X10130552Y40109974D01*
X10150543Y40121956D01*
X10171613Y40131921D01*
X10193557Y40139773D01*
X10216166Y40145437D01*
X10239221Y40148856D01*
X10262500Y40150000D01*
X10737500Y40150000D01*
X10760779Y40148856D01*
X10760779Y40148856D01*
G37*
D12*
X10500000Y39625000D03*
D11*
G36*
X15285779Y6723856D02*
G01*
X15308834Y6720437D01*
X15331443Y6714773D01*
X15353387Y6706921D01*
X15374457Y6696956D01*
X15394448Y6684974D01*
X15413168Y6671090D01*
X15430438Y6655438D01*
X15446090Y6638168D01*
X15459974Y6619448D01*
X15471956Y6599457D01*
X15481921Y6578387D01*
X15489773Y6556443D01*
X15495437Y6533834D01*
X15498856Y6510779D01*
X15500000Y6487500D01*
X15500000Y6012500D01*
X15498856Y5989221D01*
X15495437Y5966166D01*
X15489773Y5943557D01*
X15481921Y5921613D01*
X15471956Y5900543D01*
X15459974Y5880552D01*
X15446090Y5861832D01*
X15430438Y5844562D01*
X15413168Y5828910D01*
X15394448Y5815026D01*
X15374457Y5803044D01*
X15353387Y5793079D01*
X15331443Y5785227D01*
X15308834Y5779563D01*
X15285779Y5776144D01*
X15262500Y5775000D01*
X14687500Y5775000D01*
X14664221Y5776144D01*
X14641166Y5779563D01*
X14618557Y5785227D01*
X14596613Y5793079D01*
X14575543Y5803044D01*
X14555552Y5815026D01*
X14536832Y5828910D01*
X14519562Y5844562D01*
X14503910Y5861832D01*
X14490026Y5880552D01*
X14478044Y5900543D01*
X14468079Y5921613D01*
X14460227Y5943557D01*
X14454563Y5966166D01*
X14451144Y5989221D01*
X14450000Y6012500D01*
X14450000Y6487500D01*
X14451144Y6510779D01*
X14454563Y6533834D01*
X14460227Y6556443D01*
X14468079Y6578387D01*
X14478044Y6599457D01*
X14490026Y6619448D01*
X14503910Y6638168D01*
X14519562Y6655438D01*
X14536832Y6671090D01*
X14555552Y6684974D01*
X14575543Y6696956D01*
X14596613Y6706921D01*
X14618557Y6714773D01*
X14641166Y6720437D01*
X14664221Y6723856D01*
X14687500Y6725000D01*
X15262500Y6725000D01*
X15285779Y6723856D01*
X15285779Y6723856D01*
G37*
D12*
X14975000Y6250000D03*
D11*
G36*
X13535779Y6723856D02*
G01*
X13558834Y6720437D01*
X13581443Y6714773D01*
X13603387Y6706921D01*
X13624457Y6696956D01*
X13644448Y6684974D01*
X13663168Y6671090D01*
X13680438Y6655438D01*
X13696090Y6638168D01*
X13709974Y6619448D01*
X13721956Y6599457D01*
X13731921Y6578387D01*
X13739773Y6556443D01*
X13745437Y6533834D01*
X13748856Y6510779D01*
X13750000Y6487500D01*
X13750000Y6012500D01*
X13748856Y5989221D01*
X13745437Y5966166D01*
X13739773Y5943557D01*
X13731921Y5921613D01*
X13721956Y5900543D01*
X13709974Y5880552D01*
X13696090Y5861832D01*
X13680438Y5844562D01*
X13663168Y5828910D01*
X13644448Y5815026D01*
X13624457Y5803044D01*
X13603387Y5793079D01*
X13581443Y5785227D01*
X13558834Y5779563D01*
X13535779Y5776144D01*
X13512500Y5775000D01*
X12937500Y5775000D01*
X12914221Y5776144D01*
X12891166Y5779563D01*
X12868557Y5785227D01*
X12846613Y5793079D01*
X12825543Y5803044D01*
X12805552Y5815026D01*
X12786832Y5828910D01*
X12769562Y5844562D01*
X12753910Y5861832D01*
X12740026Y5880552D01*
X12728044Y5900543D01*
X12718079Y5921613D01*
X12710227Y5943557D01*
X12704563Y5966166D01*
X12701144Y5989221D01*
X12700000Y6012500D01*
X12700000Y6487500D01*
X12701144Y6510779D01*
X12704563Y6533834D01*
X12710227Y6556443D01*
X12718079Y6578387D01*
X12728044Y6599457D01*
X12740026Y6619448D01*
X12753910Y6638168D01*
X12769562Y6655438D01*
X12786832Y6671090D01*
X12805552Y6684974D01*
X12825543Y6696956D01*
X12846613Y6706921D01*
X12868557Y6714773D01*
X12891166Y6720437D01*
X12914221Y6723856D01*
X12937500Y6725000D01*
X13512500Y6725000D01*
X13535779Y6723856D01*
X13535779Y6723856D01*
G37*
D12*
X13225000Y6250000D03*
D11*
G36*
X15235779Y26723856D02*
G01*
X15258834Y26720437D01*
X15281443Y26714773D01*
X15303387Y26706921D01*
X15324457Y26696956D01*
X15344448Y26684974D01*
X15363168Y26671090D01*
X15380438Y26655438D01*
X15396090Y26638168D01*
X15409974Y26619448D01*
X15421956Y26599457D01*
X15431921Y26578387D01*
X15439773Y26556443D01*
X15445437Y26533834D01*
X15448856Y26510779D01*
X15450000Y26487500D01*
X15450000Y26012500D01*
X15448856Y25989221D01*
X15445437Y25966166D01*
X15439773Y25943557D01*
X15431921Y25921613D01*
X15421956Y25900543D01*
X15409974Y25880552D01*
X15396090Y25861832D01*
X15380438Y25844562D01*
X15363168Y25828910D01*
X15344448Y25815026D01*
X15324457Y25803044D01*
X15303387Y25793079D01*
X15281443Y25785227D01*
X15258834Y25779563D01*
X15235779Y25776144D01*
X15212500Y25775000D01*
X14637500Y25775000D01*
X14614221Y25776144D01*
X14591166Y25779563D01*
X14568557Y25785227D01*
X14546613Y25793079D01*
X14525543Y25803044D01*
X14505552Y25815026D01*
X14486832Y25828910D01*
X14469562Y25844562D01*
X14453910Y25861832D01*
X14440026Y25880552D01*
X14428044Y25900543D01*
X14418079Y25921613D01*
X14410227Y25943557D01*
X14404563Y25966166D01*
X14401144Y25989221D01*
X14400000Y26012500D01*
X14400000Y26487500D01*
X14401144Y26510779D01*
X14404563Y26533834D01*
X14410227Y26556443D01*
X14418079Y26578387D01*
X14428044Y26599457D01*
X14440026Y26619448D01*
X14453910Y26638168D01*
X14469562Y26655438D01*
X14486832Y26671090D01*
X14505552Y26684974D01*
X14525543Y26696956D01*
X14546613Y26706921D01*
X14568557Y26714773D01*
X14591166Y26720437D01*
X14614221Y26723856D01*
X14637500Y26725000D01*
X15212500Y26725000D01*
X15235779Y26723856D01*
X15235779Y26723856D01*
G37*
D12*
X14925000Y26250000D03*
D11*
G36*
X13485779Y26723856D02*
G01*
X13508834Y26720437D01*
X13531443Y26714773D01*
X13553387Y26706921D01*
X13574457Y26696956D01*
X13594448Y26684974D01*
X13613168Y26671090D01*
X13630438Y26655438D01*
X13646090Y26638168D01*
X13659974Y26619448D01*
X13671956Y26599457D01*
X13681921Y26578387D01*
X13689773Y26556443D01*
X13695437Y26533834D01*
X13698856Y26510779D01*
X13700000Y26487500D01*
X13700000Y26012500D01*
X13698856Y25989221D01*
X13695437Y25966166D01*
X13689773Y25943557D01*
X13681921Y25921613D01*
X13671956Y25900543D01*
X13659974Y25880552D01*
X13646090Y25861832D01*
X13630438Y25844562D01*
X13613168Y25828910D01*
X13594448Y25815026D01*
X13574457Y25803044D01*
X13553387Y25793079D01*
X13531443Y25785227D01*
X13508834Y25779563D01*
X13485779Y25776144D01*
X13462500Y25775000D01*
X12887500Y25775000D01*
X12864221Y25776144D01*
X12841166Y25779563D01*
X12818557Y25785227D01*
X12796613Y25793079D01*
X12775543Y25803044D01*
X12755552Y25815026D01*
X12736832Y25828910D01*
X12719562Y25844562D01*
X12703910Y25861832D01*
X12690026Y25880552D01*
X12678044Y25900543D01*
X12668079Y25921613D01*
X12660227Y25943557D01*
X12654563Y25966166D01*
X12651144Y25989221D01*
X12650000Y26012500D01*
X12650000Y26487500D01*
X12651144Y26510779D01*
X12654563Y26533834D01*
X12660227Y26556443D01*
X12668079Y26578387D01*
X12678044Y26599457D01*
X12690026Y26619448D01*
X12703910Y26638168D01*
X12719562Y26655438D01*
X12736832Y26671090D01*
X12755552Y26684974D01*
X12775543Y26696956D01*
X12796613Y26706921D01*
X12818557Y26714773D01*
X12841166Y26720437D01*
X12864221Y26723856D01*
X12887500Y26725000D01*
X13462500Y26725000D01*
X13485779Y26723856D01*
X13485779Y26723856D01*
G37*
D12*
X13175000Y26250000D03*
D11*
G36*
X15235779Y16723856D02*
G01*
X15258834Y16720437D01*
X15281443Y16714773D01*
X15303387Y16706921D01*
X15324457Y16696956D01*
X15344448Y16684974D01*
X15363168Y16671090D01*
X15380438Y16655438D01*
X15396090Y16638168D01*
X15409974Y16619448D01*
X15421956Y16599457D01*
X15431921Y16578387D01*
X15439773Y16556443D01*
X15445437Y16533834D01*
X15448856Y16510779D01*
X15450000Y16487500D01*
X15450000Y16012500D01*
X15448856Y15989221D01*
X15445437Y15966166D01*
X15439773Y15943557D01*
X15431921Y15921613D01*
X15421956Y15900543D01*
X15409974Y15880552D01*
X15396090Y15861832D01*
X15380438Y15844562D01*
X15363168Y15828910D01*
X15344448Y15815026D01*
X15324457Y15803044D01*
X15303387Y15793079D01*
X15281443Y15785227D01*
X15258834Y15779563D01*
X15235779Y15776144D01*
X15212500Y15775000D01*
X14637500Y15775000D01*
X14614221Y15776144D01*
X14591166Y15779563D01*
X14568557Y15785227D01*
X14546613Y15793079D01*
X14525543Y15803044D01*
X14505552Y15815026D01*
X14486832Y15828910D01*
X14469562Y15844562D01*
X14453910Y15861832D01*
X14440026Y15880552D01*
X14428044Y15900543D01*
X14418079Y15921613D01*
X14410227Y15943557D01*
X14404563Y15966166D01*
X14401144Y15989221D01*
X14400000Y16012500D01*
X14400000Y16487500D01*
X14401144Y16510779D01*
X14404563Y16533834D01*
X14410227Y16556443D01*
X14418079Y16578387D01*
X14428044Y16599457D01*
X14440026Y16619448D01*
X14453910Y16638168D01*
X14469562Y16655438D01*
X14486832Y16671090D01*
X14505552Y16684974D01*
X14525543Y16696956D01*
X14546613Y16706921D01*
X14568557Y16714773D01*
X14591166Y16720437D01*
X14614221Y16723856D01*
X14637500Y16725000D01*
X15212500Y16725000D01*
X15235779Y16723856D01*
X15235779Y16723856D01*
G37*
D12*
X14925000Y16250000D03*
D11*
G36*
X13485779Y16723856D02*
G01*
X13508834Y16720437D01*
X13531443Y16714773D01*
X13553387Y16706921D01*
X13574457Y16696956D01*
X13594448Y16684974D01*
X13613168Y16671090D01*
X13630438Y16655438D01*
X13646090Y16638168D01*
X13659974Y16619448D01*
X13671956Y16599457D01*
X13681921Y16578387D01*
X13689773Y16556443D01*
X13695437Y16533834D01*
X13698856Y16510779D01*
X13700000Y16487500D01*
X13700000Y16012500D01*
X13698856Y15989221D01*
X13695437Y15966166D01*
X13689773Y15943557D01*
X13681921Y15921613D01*
X13671956Y15900543D01*
X13659974Y15880552D01*
X13646090Y15861832D01*
X13630438Y15844562D01*
X13613168Y15828910D01*
X13594448Y15815026D01*
X13574457Y15803044D01*
X13553387Y15793079D01*
X13531443Y15785227D01*
X13508834Y15779563D01*
X13485779Y15776144D01*
X13462500Y15775000D01*
X12887500Y15775000D01*
X12864221Y15776144D01*
X12841166Y15779563D01*
X12818557Y15785227D01*
X12796613Y15793079D01*
X12775543Y15803044D01*
X12755552Y15815026D01*
X12736832Y15828910D01*
X12719562Y15844562D01*
X12703910Y15861832D01*
X12690026Y15880552D01*
X12678044Y15900543D01*
X12668079Y15921613D01*
X12660227Y15943557D01*
X12654563Y15966166D01*
X12651144Y15989221D01*
X12650000Y16012500D01*
X12650000Y16487500D01*
X12651144Y16510779D01*
X12654563Y16533834D01*
X12660227Y16556443D01*
X12668079Y16578387D01*
X12678044Y16599457D01*
X12690026Y16619448D01*
X12703910Y16638168D01*
X12719562Y16655438D01*
X12736832Y16671090D01*
X12755552Y16684974D01*
X12775543Y16696956D01*
X12796613Y16706921D01*
X12818557Y16714773D01*
X12841166Y16720437D01*
X12864221Y16723856D01*
X12887500Y16725000D01*
X13462500Y16725000D01*
X13485779Y16723856D01*
X13485779Y16723856D01*
G37*
D12*
X13175000Y16250000D03*
D11*
G36*
X13435779Y36723856D02*
G01*
X13458834Y36720437D01*
X13481443Y36714773D01*
X13503387Y36706921D01*
X13524457Y36696956D01*
X13544448Y36684974D01*
X13563168Y36671090D01*
X13580438Y36655438D01*
X13596090Y36638168D01*
X13609974Y36619448D01*
X13621956Y36599457D01*
X13631921Y36578387D01*
X13639773Y36556443D01*
X13645437Y36533834D01*
X13648856Y36510779D01*
X13650000Y36487500D01*
X13650000Y36012500D01*
X13648856Y35989221D01*
X13645437Y35966166D01*
X13639773Y35943557D01*
X13631921Y35921613D01*
X13621956Y35900543D01*
X13609974Y35880552D01*
X13596090Y35861832D01*
X13580438Y35844562D01*
X13563168Y35828910D01*
X13544448Y35815026D01*
X13524457Y35803044D01*
X13503387Y35793079D01*
X13481443Y35785227D01*
X13458834Y35779563D01*
X13435779Y35776144D01*
X13412500Y35775000D01*
X12837500Y35775000D01*
X12814221Y35776144D01*
X12791166Y35779563D01*
X12768557Y35785227D01*
X12746613Y35793079D01*
X12725543Y35803044D01*
X12705552Y35815026D01*
X12686832Y35828910D01*
X12669562Y35844562D01*
X12653910Y35861832D01*
X12640026Y35880552D01*
X12628044Y35900543D01*
X12618079Y35921613D01*
X12610227Y35943557D01*
X12604563Y35966166D01*
X12601144Y35989221D01*
X12600000Y36012500D01*
X12600000Y36487500D01*
X12601144Y36510779D01*
X12604563Y36533834D01*
X12610227Y36556443D01*
X12618079Y36578387D01*
X12628044Y36599457D01*
X12640026Y36619448D01*
X12653910Y36638168D01*
X12669562Y36655438D01*
X12686832Y36671090D01*
X12705552Y36684974D01*
X12725543Y36696956D01*
X12746613Y36706921D01*
X12768557Y36714773D01*
X12791166Y36720437D01*
X12814221Y36723856D01*
X12837500Y36725000D01*
X13412500Y36725000D01*
X13435779Y36723856D01*
X13435779Y36723856D01*
G37*
D12*
X13125000Y36250000D03*
D11*
G36*
X15185779Y36723856D02*
G01*
X15208834Y36720437D01*
X15231443Y36714773D01*
X15253387Y36706921D01*
X15274457Y36696956D01*
X15294448Y36684974D01*
X15313168Y36671090D01*
X15330438Y36655438D01*
X15346090Y36638168D01*
X15359974Y36619448D01*
X15371956Y36599457D01*
X15381921Y36578387D01*
X15389773Y36556443D01*
X15395437Y36533834D01*
X15398856Y36510779D01*
X15400000Y36487500D01*
X15400000Y36012500D01*
X15398856Y35989221D01*
X15395437Y35966166D01*
X15389773Y35943557D01*
X15381921Y35921613D01*
X15371956Y35900543D01*
X15359974Y35880552D01*
X15346090Y35861832D01*
X15330438Y35844562D01*
X15313168Y35828910D01*
X15294448Y35815026D01*
X15274457Y35803044D01*
X15253387Y35793079D01*
X15231443Y35785227D01*
X15208834Y35779563D01*
X15185779Y35776144D01*
X15162500Y35775000D01*
X14587500Y35775000D01*
X14564221Y35776144D01*
X14541166Y35779563D01*
X14518557Y35785227D01*
X14496613Y35793079D01*
X14475543Y35803044D01*
X14455552Y35815026D01*
X14436832Y35828910D01*
X14419562Y35844562D01*
X14403910Y35861832D01*
X14390026Y35880552D01*
X14378044Y35900543D01*
X14368079Y35921613D01*
X14360227Y35943557D01*
X14354563Y35966166D01*
X14351144Y35989221D01*
X14350000Y36012500D01*
X14350000Y36487500D01*
X14351144Y36510779D01*
X14354563Y36533834D01*
X14360227Y36556443D01*
X14368079Y36578387D01*
X14378044Y36599457D01*
X14390026Y36619448D01*
X14403910Y36638168D01*
X14419562Y36655438D01*
X14436832Y36671090D01*
X14455552Y36684974D01*
X14475543Y36696956D01*
X14496613Y36706921D01*
X14518557Y36714773D01*
X14541166Y36720437D01*
X14564221Y36723856D01*
X14587500Y36725000D01*
X15162500Y36725000D01*
X15185779Y36723856D01*
X15185779Y36723856D01*
G37*
D12*
X14875000Y36250000D03*
D11*
G36*
X39860779Y25598856D02*
G01*
X39883834Y25595437D01*
X39906443Y25589773D01*
X39928387Y25581921D01*
X39949457Y25571956D01*
X39969448Y25559974D01*
X39988168Y25546090D01*
X40005438Y25530438D01*
X40021090Y25513168D01*
X40034974Y25494448D01*
X40046956Y25474457D01*
X40056921Y25453387D01*
X40064773Y25431443D01*
X40070437Y25408834D01*
X40073856Y25385779D01*
X40075000Y25362500D01*
X40075000Y24787500D01*
X40073856Y24764221D01*
X40070437Y24741166D01*
X40064773Y24718557D01*
X40056921Y24696613D01*
X40046956Y24675543D01*
X40034974Y24655552D01*
X40021090Y24636832D01*
X40005438Y24619562D01*
X39988168Y24603910D01*
X39969448Y24590026D01*
X39949457Y24578044D01*
X39928387Y24568079D01*
X39906443Y24560227D01*
X39883834Y24554563D01*
X39860779Y24551144D01*
X39837500Y24550000D01*
X39362500Y24550000D01*
X39339221Y24551144D01*
X39316166Y24554563D01*
X39293557Y24560227D01*
X39271613Y24568079D01*
X39250543Y24578044D01*
X39230552Y24590026D01*
X39211832Y24603910D01*
X39194562Y24619562D01*
X39178910Y24636832D01*
X39165026Y24655552D01*
X39153044Y24675543D01*
X39143079Y24696613D01*
X39135227Y24718557D01*
X39129563Y24741166D01*
X39126144Y24764221D01*
X39125000Y24787500D01*
X39125000Y25362500D01*
X39126144Y25385779D01*
X39129563Y25408834D01*
X39135227Y25431443D01*
X39143079Y25453387D01*
X39153044Y25474457D01*
X39165026Y25494448D01*
X39178910Y25513168D01*
X39194562Y25530438D01*
X39211832Y25546090D01*
X39230552Y25559974D01*
X39250543Y25571956D01*
X39271613Y25581921D01*
X39293557Y25589773D01*
X39316166Y25595437D01*
X39339221Y25598856D01*
X39362500Y25600000D01*
X39837500Y25600000D01*
X39860779Y25598856D01*
X39860779Y25598856D01*
G37*
D12*
X39600000Y25075000D03*
D11*
G36*
X39860779Y27348856D02*
G01*
X39883834Y27345437D01*
X39906443Y27339773D01*
X39928387Y27331921D01*
X39949457Y27321956D01*
X39969448Y27309974D01*
X39988168Y27296090D01*
X40005438Y27280438D01*
X40021090Y27263168D01*
X40034974Y27244448D01*
X40046956Y27224457D01*
X40056921Y27203387D01*
X40064773Y27181443D01*
X40070437Y27158834D01*
X40073856Y27135779D01*
X40075000Y27112500D01*
X40075000Y26537500D01*
X40073856Y26514221D01*
X40070437Y26491166D01*
X40064773Y26468557D01*
X40056921Y26446613D01*
X40046956Y26425543D01*
X40034974Y26405552D01*
X40021090Y26386832D01*
X40005438Y26369562D01*
X39988168Y26353910D01*
X39969448Y26340026D01*
X39949457Y26328044D01*
X39928387Y26318079D01*
X39906443Y26310227D01*
X39883834Y26304563D01*
X39860779Y26301144D01*
X39837500Y26300000D01*
X39362500Y26300000D01*
X39339221Y26301144D01*
X39316166Y26304563D01*
X39293557Y26310227D01*
X39271613Y26318079D01*
X39250543Y26328044D01*
X39230552Y26340026D01*
X39211832Y26353910D01*
X39194562Y26369562D01*
X39178910Y26386832D01*
X39165026Y26405552D01*
X39153044Y26425543D01*
X39143079Y26446613D01*
X39135227Y26468557D01*
X39129563Y26491166D01*
X39126144Y26514221D01*
X39125000Y26537500D01*
X39125000Y27112500D01*
X39126144Y27135779D01*
X39129563Y27158834D01*
X39135227Y27181443D01*
X39143079Y27203387D01*
X39153044Y27224457D01*
X39165026Y27244448D01*
X39178910Y27263168D01*
X39194562Y27280438D01*
X39211832Y27296090D01*
X39230552Y27309974D01*
X39250543Y27321956D01*
X39271613Y27331921D01*
X39293557Y27339773D01*
X39316166Y27345437D01*
X39339221Y27348856D01*
X39362500Y27350000D01*
X39837500Y27350000D01*
X39860779Y27348856D01*
X39860779Y27348856D01*
G37*
D12*
X39600000Y26825000D03*
D11*
G36*
X43060779Y25598856D02*
G01*
X43083834Y25595437D01*
X43106443Y25589773D01*
X43128387Y25581921D01*
X43149457Y25571956D01*
X43169448Y25559974D01*
X43188168Y25546090D01*
X43205438Y25530438D01*
X43221090Y25513168D01*
X43234974Y25494448D01*
X43246956Y25474457D01*
X43256921Y25453387D01*
X43264773Y25431443D01*
X43270437Y25408834D01*
X43273856Y25385779D01*
X43275000Y25362500D01*
X43275000Y24787500D01*
X43273856Y24764221D01*
X43270437Y24741166D01*
X43264773Y24718557D01*
X43256921Y24696613D01*
X43246956Y24675543D01*
X43234974Y24655552D01*
X43221090Y24636832D01*
X43205438Y24619562D01*
X43188168Y24603910D01*
X43169448Y24590026D01*
X43149457Y24578044D01*
X43128387Y24568079D01*
X43106443Y24560227D01*
X43083834Y24554563D01*
X43060779Y24551144D01*
X43037500Y24550000D01*
X42562500Y24550000D01*
X42539221Y24551144D01*
X42516166Y24554563D01*
X42493557Y24560227D01*
X42471613Y24568079D01*
X42450543Y24578044D01*
X42430552Y24590026D01*
X42411832Y24603910D01*
X42394562Y24619562D01*
X42378910Y24636832D01*
X42365026Y24655552D01*
X42353044Y24675543D01*
X42343079Y24696613D01*
X42335227Y24718557D01*
X42329563Y24741166D01*
X42326144Y24764221D01*
X42325000Y24787500D01*
X42325000Y25362500D01*
X42326144Y25385779D01*
X42329563Y25408834D01*
X42335227Y25431443D01*
X42343079Y25453387D01*
X42353044Y25474457D01*
X42365026Y25494448D01*
X42378910Y25513168D01*
X42394562Y25530438D01*
X42411832Y25546090D01*
X42430552Y25559974D01*
X42450543Y25571956D01*
X42471613Y25581921D01*
X42493557Y25589773D01*
X42516166Y25595437D01*
X42539221Y25598856D01*
X42562500Y25600000D01*
X43037500Y25600000D01*
X43060779Y25598856D01*
X43060779Y25598856D01*
G37*
D12*
X42800000Y25075000D03*
D11*
G36*
X43060779Y27348856D02*
G01*
X43083834Y27345437D01*
X43106443Y27339773D01*
X43128387Y27331921D01*
X43149457Y27321956D01*
X43169448Y27309974D01*
X43188168Y27296090D01*
X43205438Y27280438D01*
X43221090Y27263168D01*
X43234974Y27244448D01*
X43246956Y27224457D01*
X43256921Y27203387D01*
X43264773Y27181443D01*
X43270437Y27158834D01*
X43273856Y27135779D01*
X43275000Y27112500D01*
X43275000Y26537500D01*
X43273856Y26514221D01*
X43270437Y26491166D01*
X43264773Y26468557D01*
X43256921Y26446613D01*
X43246956Y26425543D01*
X43234974Y26405552D01*
X43221090Y26386832D01*
X43205438Y26369562D01*
X43188168Y26353910D01*
X43169448Y26340026D01*
X43149457Y26328044D01*
X43128387Y26318079D01*
X43106443Y26310227D01*
X43083834Y26304563D01*
X43060779Y26301144D01*
X43037500Y26300000D01*
X42562500Y26300000D01*
X42539221Y26301144D01*
X42516166Y26304563D01*
X42493557Y26310227D01*
X42471613Y26318079D01*
X42450543Y26328044D01*
X42430552Y26340026D01*
X42411832Y26353910D01*
X42394562Y26369562D01*
X42378910Y26386832D01*
X42365026Y26405552D01*
X42353044Y26425543D01*
X42343079Y26446613D01*
X42335227Y26468557D01*
X42329563Y26491166D01*
X42326144Y26514221D01*
X42325000Y26537500D01*
X42325000Y27112500D01*
X42326144Y27135779D01*
X42329563Y27158834D01*
X42335227Y27181443D01*
X42343079Y27203387D01*
X42353044Y27224457D01*
X42365026Y27244448D01*
X42378910Y27263168D01*
X42394562Y27280438D01*
X42411832Y27296090D01*
X42430552Y27309974D01*
X42450543Y27321956D01*
X42471613Y27331921D01*
X42493557Y27339773D01*
X42516166Y27345437D01*
X42539221Y27348856D01*
X42562500Y27350000D01*
X43037500Y27350000D01*
X43060779Y27348856D01*
X43060779Y27348856D01*
G37*
D12*
X42800000Y26825000D03*
D11*
G36*
X41460779Y25598856D02*
G01*
X41483834Y25595437D01*
X41506443Y25589773D01*
X41528387Y25581921D01*
X41549457Y25571956D01*
X41569448Y25559974D01*
X41588168Y25546090D01*
X41605438Y25530438D01*
X41621090Y25513168D01*
X41634974Y25494448D01*
X41646956Y25474457D01*
X41656921Y25453387D01*
X41664773Y25431443D01*
X41670437Y25408834D01*
X41673856Y25385779D01*
X41675000Y25362500D01*
X41675000Y24787500D01*
X41673856Y24764221D01*
X41670437Y24741166D01*
X41664773Y24718557D01*
X41656921Y24696613D01*
X41646956Y24675543D01*
X41634974Y24655552D01*
X41621090Y24636832D01*
X41605438Y24619562D01*
X41588168Y24603910D01*
X41569448Y24590026D01*
X41549457Y24578044D01*
X41528387Y24568079D01*
X41506443Y24560227D01*
X41483834Y24554563D01*
X41460779Y24551144D01*
X41437500Y24550000D01*
X40962500Y24550000D01*
X40939221Y24551144D01*
X40916166Y24554563D01*
X40893557Y24560227D01*
X40871613Y24568079D01*
X40850543Y24578044D01*
X40830552Y24590026D01*
X40811832Y24603910D01*
X40794562Y24619562D01*
X40778910Y24636832D01*
X40765026Y24655552D01*
X40753044Y24675543D01*
X40743079Y24696613D01*
X40735227Y24718557D01*
X40729563Y24741166D01*
X40726144Y24764221D01*
X40725000Y24787500D01*
X40725000Y25362500D01*
X40726144Y25385779D01*
X40729563Y25408834D01*
X40735227Y25431443D01*
X40743079Y25453387D01*
X40753044Y25474457D01*
X40765026Y25494448D01*
X40778910Y25513168D01*
X40794562Y25530438D01*
X40811832Y25546090D01*
X40830552Y25559974D01*
X40850543Y25571956D01*
X40871613Y25581921D01*
X40893557Y25589773D01*
X40916166Y25595437D01*
X40939221Y25598856D01*
X40962500Y25600000D01*
X41437500Y25600000D01*
X41460779Y25598856D01*
X41460779Y25598856D01*
G37*
D12*
X41200000Y25075000D03*
D11*
G36*
X41460779Y27348856D02*
G01*
X41483834Y27345437D01*
X41506443Y27339773D01*
X41528387Y27331921D01*
X41549457Y27321956D01*
X41569448Y27309974D01*
X41588168Y27296090D01*
X41605438Y27280438D01*
X41621090Y27263168D01*
X41634974Y27244448D01*
X41646956Y27224457D01*
X41656921Y27203387D01*
X41664773Y27181443D01*
X41670437Y27158834D01*
X41673856Y27135779D01*
X41675000Y27112500D01*
X41675000Y26537500D01*
X41673856Y26514221D01*
X41670437Y26491166D01*
X41664773Y26468557D01*
X41656921Y26446613D01*
X41646956Y26425543D01*
X41634974Y26405552D01*
X41621090Y26386832D01*
X41605438Y26369562D01*
X41588168Y26353910D01*
X41569448Y26340026D01*
X41549457Y26328044D01*
X41528387Y26318079D01*
X41506443Y26310227D01*
X41483834Y26304563D01*
X41460779Y26301144D01*
X41437500Y26300000D01*
X40962500Y26300000D01*
X40939221Y26301144D01*
X40916166Y26304563D01*
X40893557Y26310227D01*
X40871613Y26318079D01*
X40850543Y26328044D01*
X40830552Y26340026D01*
X40811832Y26353910D01*
X40794562Y26369562D01*
X40778910Y26386832D01*
X40765026Y26405552D01*
X40753044Y26425543D01*
X40743079Y26446613D01*
X40735227Y26468557D01*
X40729563Y26491166D01*
X40726144Y26514221D01*
X40725000Y26537500D01*
X40725000Y27112500D01*
X40726144Y27135779D01*
X40729563Y27158834D01*
X40735227Y27181443D01*
X40743079Y27203387D01*
X40753044Y27224457D01*
X40765026Y27244448D01*
X40778910Y27263168D01*
X40794562Y27280438D01*
X40811832Y27296090D01*
X40830552Y27309974D01*
X40850543Y27321956D01*
X40871613Y27331921D01*
X40893557Y27339773D01*
X40916166Y27345437D01*
X40939221Y27348856D01*
X40962500Y27350000D01*
X41437500Y27350000D01*
X41460779Y27348856D01*
X41460779Y27348856D01*
G37*
D12*
X41200000Y26825000D03*
D11*
G36*
X65135779Y24648856D02*
G01*
X65158834Y24645437D01*
X65181443Y24639773D01*
X65203387Y24631921D01*
X65224457Y24621956D01*
X65244448Y24609974D01*
X65263168Y24596090D01*
X65280438Y24580438D01*
X65296090Y24563168D01*
X65309974Y24544448D01*
X65321956Y24524457D01*
X65331921Y24503387D01*
X65339773Y24481443D01*
X65345437Y24458834D01*
X65348856Y24435779D01*
X65350000Y24412500D01*
X65350000Y23937500D01*
X65348856Y23914221D01*
X65345437Y23891166D01*
X65339773Y23868557D01*
X65331921Y23846613D01*
X65321956Y23825543D01*
X65309974Y23805552D01*
X65296090Y23786832D01*
X65280438Y23769562D01*
X65263168Y23753910D01*
X65244448Y23740026D01*
X65224457Y23728044D01*
X65203387Y23718079D01*
X65181443Y23710227D01*
X65158834Y23704563D01*
X65135779Y23701144D01*
X65112500Y23700000D01*
X64537500Y23700000D01*
X64514221Y23701144D01*
X64491166Y23704563D01*
X64468557Y23710227D01*
X64446613Y23718079D01*
X64425543Y23728044D01*
X64405552Y23740026D01*
X64386832Y23753910D01*
X64369562Y23769562D01*
X64353910Y23786832D01*
X64340026Y23805552D01*
X64328044Y23825543D01*
X64318079Y23846613D01*
X64310227Y23868557D01*
X64304563Y23891166D01*
X64301144Y23914221D01*
X64300000Y23937500D01*
X64300000Y24412500D01*
X64301144Y24435779D01*
X64304563Y24458834D01*
X64310227Y24481443D01*
X64318079Y24503387D01*
X64328044Y24524457D01*
X64340026Y24544448D01*
X64353910Y24563168D01*
X64369562Y24580438D01*
X64386832Y24596090D01*
X64405552Y24609974D01*
X64425543Y24621956D01*
X64446613Y24631921D01*
X64468557Y24639773D01*
X64491166Y24645437D01*
X64514221Y24648856D01*
X64537500Y24650000D01*
X65112500Y24650000D01*
X65135779Y24648856D01*
X65135779Y24648856D01*
G37*
D12*
X64825000Y24175000D03*
D11*
G36*
X63385779Y24648856D02*
G01*
X63408834Y24645437D01*
X63431443Y24639773D01*
X63453387Y24631921D01*
X63474457Y24621956D01*
X63494448Y24609974D01*
X63513168Y24596090D01*
X63530438Y24580438D01*
X63546090Y24563168D01*
X63559974Y24544448D01*
X63571956Y24524457D01*
X63581921Y24503387D01*
X63589773Y24481443D01*
X63595437Y24458834D01*
X63598856Y24435779D01*
X63600000Y24412500D01*
X63600000Y23937500D01*
X63598856Y23914221D01*
X63595437Y23891166D01*
X63589773Y23868557D01*
X63581921Y23846613D01*
X63571956Y23825543D01*
X63559974Y23805552D01*
X63546090Y23786832D01*
X63530438Y23769562D01*
X63513168Y23753910D01*
X63494448Y23740026D01*
X63474457Y23728044D01*
X63453387Y23718079D01*
X63431443Y23710227D01*
X63408834Y23704563D01*
X63385779Y23701144D01*
X63362500Y23700000D01*
X62787500Y23700000D01*
X62764221Y23701144D01*
X62741166Y23704563D01*
X62718557Y23710227D01*
X62696613Y23718079D01*
X62675543Y23728044D01*
X62655552Y23740026D01*
X62636832Y23753910D01*
X62619562Y23769562D01*
X62603910Y23786832D01*
X62590026Y23805552D01*
X62578044Y23825543D01*
X62568079Y23846613D01*
X62560227Y23868557D01*
X62554563Y23891166D01*
X62551144Y23914221D01*
X62550000Y23937500D01*
X62550000Y24412500D01*
X62551144Y24435779D01*
X62554563Y24458834D01*
X62560227Y24481443D01*
X62568079Y24503387D01*
X62578044Y24524457D01*
X62590026Y24544448D01*
X62603910Y24563168D01*
X62619562Y24580438D01*
X62636832Y24596090D01*
X62655552Y24609974D01*
X62675543Y24621956D01*
X62696613Y24631921D01*
X62718557Y24639773D01*
X62741166Y24645437D01*
X62764221Y24648856D01*
X62787500Y24650000D01*
X63362500Y24650000D01*
X63385779Y24648856D01*
X63385779Y24648856D01*
G37*
D12*
X63075000Y24175000D03*
D11*
G36*
X63385779Y23123856D02*
G01*
X63408834Y23120437D01*
X63431443Y23114773D01*
X63453387Y23106921D01*
X63474457Y23096956D01*
X63494448Y23084974D01*
X63513168Y23071090D01*
X63530438Y23055438D01*
X63546090Y23038168D01*
X63559974Y23019448D01*
X63571956Y22999457D01*
X63581921Y22978387D01*
X63589773Y22956443D01*
X63595437Y22933834D01*
X63598856Y22910779D01*
X63600000Y22887500D01*
X63600000Y22412500D01*
X63598856Y22389221D01*
X63595437Y22366166D01*
X63589773Y22343557D01*
X63581921Y22321613D01*
X63571956Y22300543D01*
X63559974Y22280552D01*
X63546090Y22261832D01*
X63530438Y22244562D01*
X63513168Y22228910D01*
X63494448Y22215026D01*
X63474457Y22203044D01*
X63453387Y22193079D01*
X63431443Y22185227D01*
X63408834Y22179563D01*
X63385779Y22176144D01*
X63362500Y22175000D01*
X62787500Y22175000D01*
X62764221Y22176144D01*
X62741166Y22179563D01*
X62718557Y22185227D01*
X62696613Y22193079D01*
X62675543Y22203044D01*
X62655552Y22215026D01*
X62636832Y22228910D01*
X62619562Y22244562D01*
X62603910Y22261832D01*
X62590026Y22280552D01*
X62578044Y22300543D01*
X62568079Y22321613D01*
X62560227Y22343557D01*
X62554563Y22366166D01*
X62551144Y22389221D01*
X62550000Y22412500D01*
X62550000Y22887500D01*
X62551144Y22910779D01*
X62554563Y22933834D01*
X62560227Y22956443D01*
X62568079Y22978387D01*
X62578044Y22999457D01*
X62590026Y23019448D01*
X62603910Y23038168D01*
X62619562Y23055438D01*
X62636832Y23071090D01*
X62655552Y23084974D01*
X62675543Y23096956D01*
X62696613Y23106921D01*
X62718557Y23114773D01*
X62741166Y23120437D01*
X62764221Y23123856D01*
X62787500Y23125000D01*
X63362500Y23125000D01*
X63385779Y23123856D01*
X63385779Y23123856D01*
G37*
D12*
X63075000Y22650000D03*
D11*
G36*
X65135779Y23123856D02*
G01*
X65158834Y23120437D01*
X65181443Y23114773D01*
X65203387Y23106921D01*
X65224457Y23096956D01*
X65244448Y23084974D01*
X65263168Y23071090D01*
X65280438Y23055438D01*
X65296090Y23038168D01*
X65309974Y23019448D01*
X65321956Y22999457D01*
X65331921Y22978387D01*
X65339773Y22956443D01*
X65345437Y22933834D01*
X65348856Y22910779D01*
X65350000Y22887500D01*
X65350000Y22412500D01*
X65348856Y22389221D01*
X65345437Y22366166D01*
X65339773Y22343557D01*
X65331921Y22321613D01*
X65321956Y22300543D01*
X65309974Y22280552D01*
X65296090Y22261832D01*
X65280438Y22244562D01*
X65263168Y22228910D01*
X65244448Y22215026D01*
X65224457Y22203044D01*
X65203387Y22193079D01*
X65181443Y22185227D01*
X65158834Y22179563D01*
X65135779Y22176144D01*
X65112500Y22175000D01*
X64537500Y22175000D01*
X64514221Y22176144D01*
X64491166Y22179563D01*
X64468557Y22185227D01*
X64446613Y22193079D01*
X64425543Y22203044D01*
X64405552Y22215026D01*
X64386832Y22228910D01*
X64369562Y22244562D01*
X64353910Y22261832D01*
X64340026Y22280552D01*
X64328044Y22300543D01*
X64318079Y22321613D01*
X64310227Y22343557D01*
X64304563Y22366166D01*
X64301144Y22389221D01*
X64300000Y22412500D01*
X64300000Y22887500D01*
X64301144Y22910779D01*
X64304563Y22933834D01*
X64310227Y22956443D01*
X64318079Y22978387D01*
X64328044Y22999457D01*
X64340026Y23019448D01*
X64353910Y23038168D01*
X64369562Y23055438D01*
X64386832Y23071090D01*
X64405552Y23084974D01*
X64425543Y23096956D01*
X64446613Y23106921D01*
X64468557Y23114773D01*
X64491166Y23120437D01*
X64514221Y23123856D01*
X64537500Y23125000D01*
X65112500Y23125000D01*
X65135779Y23123856D01*
X65135779Y23123856D01*
G37*
D12*
X64825000Y22650000D03*
D11*
G36*
X65135779Y21598856D02*
G01*
X65158834Y21595437D01*
X65181443Y21589773D01*
X65203387Y21581921D01*
X65224457Y21571956D01*
X65244448Y21559974D01*
X65263168Y21546090D01*
X65280438Y21530438D01*
X65296090Y21513168D01*
X65309974Y21494448D01*
X65321956Y21474457D01*
X65331921Y21453387D01*
X65339773Y21431443D01*
X65345437Y21408834D01*
X65348856Y21385779D01*
X65350000Y21362500D01*
X65350000Y20887500D01*
X65348856Y20864221D01*
X65345437Y20841166D01*
X65339773Y20818557D01*
X65331921Y20796613D01*
X65321956Y20775543D01*
X65309974Y20755552D01*
X65296090Y20736832D01*
X65280438Y20719562D01*
X65263168Y20703910D01*
X65244448Y20690026D01*
X65224457Y20678044D01*
X65203387Y20668079D01*
X65181443Y20660227D01*
X65158834Y20654563D01*
X65135779Y20651144D01*
X65112500Y20650000D01*
X64537500Y20650000D01*
X64514221Y20651144D01*
X64491166Y20654563D01*
X64468557Y20660227D01*
X64446613Y20668079D01*
X64425543Y20678044D01*
X64405552Y20690026D01*
X64386832Y20703910D01*
X64369562Y20719562D01*
X64353910Y20736832D01*
X64340026Y20755552D01*
X64328044Y20775543D01*
X64318079Y20796613D01*
X64310227Y20818557D01*
X64304563Y20841166D01*
X64301144Y20864221D01*
X64300000Y20887500D01*
X64300000Y21362500D01*
X64301144Y21385779D01*
X64304563Y21408834D01*
X64310227Y21431443D01*
X64318079Y21453387D01*
X64328044Y21474457D01*
X64340026Y21494448D01*
X64353910Y21513168D01*
X64369562Y21530438D01*
X64386832Y21546090D01*
X64405552Y21559974D01*
X64425543Y21571956D01*
X64446613Y21581921D01*
X64468557Y21589773D01*
X64491166Y21595437D01*
X64514221Y21598856D01*
X64537500Y21600000D01*
X65112500Y21600000D01*
X65135779Y21598856D01*
X65135779Y21598856D01*
G37*
D12*
X64825000Y21125000D03*
D11*
G36*
X63385779Y21598856D02*
G01*
X63408834Y21595437D01*
X63431443Y21589773D01*
X63453387Y21581921D01*
X63474457Y21571956D01*
X63494448Y21559974D01*
X63513168Y21546090D01*
X63530438Y21530438D01*
X63546090Y21513168D01*
X63559974Y21494448D01*
X63571956Y21474457D01*
X63581921Y21453387D01*
X63589773Y21431443D01*
X63595437Y21408834D01*
X63598856Y21385779D01*
X63600000Y21362500D01*
X63600000Y20887500D01*
X63598856Y20864221D01*
X63595437Y20841166D01*
X63589773Y20818557D01*
X63581921Y20796613D01*
X63571956Y20775543D01*
X63559974Y20755552D01*
X63546090Y20736832D01*
X63530438Y20719562D01*
X63513168Y20703910D01*
X63494448Y20690026D01*
X63474457Y20678044D01*
X63453387Y20668079D01*
X63431443Y20660227D01*
X63408834Y20654563D01*
X63385779Y20651144D01*
X63362500Y20650000D01*
X62787500Y20650000D01*
X62764221Y20651144D01*
X62741166Y20654563D01*
X62718557Y20660227D01*
X62696613Y20668079D01*
X62675543Y20678044D01*
X62655552Y20690026D01*
X62636832Y20703910D01*
X62619562Y20719562D01*
X62603910Y20736832D01*
X62590026Y20755552D01*
X62578044Y20775543D01*
X62568079Y20796613D01*
X62560227Y20818557D01*
X62554563Y20841166D01*
X62551144Y20864221D01*
X62550000Y20887500D01*
X62550000Y21362500D01*
X62551144Y21385779D01*
X62554563Y21408834D01*
X62560227Y21431443D01*
X62568079Y21453387D01*
X62578044Y21474457D01*
X62590026Y21494448D01*
X62603910Y21513168D01*
X62619562Y21530438D01*
X62636832Y21546090D01*
X62655552Y21559974D01*
X62675543Y21571956D01*
X62696613Y21581921D01*
X62718557Y21589773D01*
X62741166Y21595437D01*
X62764221Y21598856D01*
X62787500Y21600000D01*
X63362500Y21600000D01*
X63385779Y21598856D01*
X63385779Y21598856D01*
G37*
D12*
X63075000Y21125000D03*
D11*
G36*
X65135779Y20073856D02*
G01*
X65158834Y20070437D01*
X65181443Y20064773D01*
X65203387Y20056921D01*
X65224457Y20046956D01*
X65244448Y20034974D01*
X65263168Y20021090D01*
X65280438Y20005438D01*
X65296090Y19988168D01*
X65309974Y19969448D01*
X65321956Y19949457D01*
X65331921Y19928387D01*
X65339773Y19906443D01*
X65345437Y19883834D01*
X65348856Y19860779D01*
X65350000Y19837500D01*
X65350000Y19362500D01*
X65348856Y19339221D01*
X65345437Y19316166D01*
X65339773Y19293557D01*
X65331921Y19271613D01*
X65321956Y19250543D01*
X65309974Y19230552D01*
X65296090Y19211832D01*
X65280438Y19194562D01*
X65263168Y19178910D01*
X65244448Y19165026D01*
X65224457Y19153044D01*
X65203387Y19143079D01*
X65181443Y19135227D01*
X65158834Y19129563D01*
X65135779Y19126144D01*
X65112500Y19125000D01*
X64537500Y19125000D01*
X64514221Y19126144D01*
X64491166Y19129563D01*
X64468557Y19135227D01*
X64446613Y19143079D01*
X64425543Y19153044D01*
X64405552Y19165026D01*
X64386832Y19178910D01*
X64369562Y19194562D01*
X64353910Y19211832D01*
X64340026Y19230552D01*
X64328044Y19250543D01*
X64318079Y19271613D01*
X64310227Y19293557D01*
X64304563Y19316166D01*
X64301144Y19339221D01*
X64300000Y19362500D01*
X64300000Y19837500D01*
X64301144Y19860779D01*
X64304563Y19883834D01*
X64310227Y19906443D01*
X64318079Y19928387D01*
X64328044Y19949457D01*
X64340026Y19969448D01*
X64353910Y19988168D01*
X64369562Y20005438D01*
X64386832Y20021090D01*
X64405552Y20034974D01*
X64425543Y20046956D01*
X64446613Y20056921D01*
X64468557Y20064773D01*
X64491166Y20070437D01*
X64514221Y20073856D01*
X64537500Y20075000D01*
X65112500Y20075000D01*
X65135779Y20073856D01*
X65135779Y20073856D01*
G37*
D12*
X64825000Y19600000D03*
D11*
G36*
X63385779Y20073856D02*
G01*
X63408834Y20070437D01*
X63431443Y20064773D01*
X63453387Y20056921D01*
X63474457Y20046956D01*
X63494448Y20034974D01*
X63513168Y20021090D01*
X63530438Y20005438D01*
X63546090Y19988168D01*
X63559974Y19969448D01*
X63571956Y19949457D01*
X63581921Y19928387D01*
X63589773Y19906443D01*
X63595437Y19883834D01*
X63598856Y19860779D01*
X63600000Y19837500D01*
X63600000Y19362500D01*
X63598856Y19339221D01*
X63595437Y19316166D01*
X63589773Y19293557D01*
X63581921Y19271613D01*
X63571956Y19250543D01*
X63559974Y19230552D01*
X63546090Y19211832D01*
X63530438Y19194562D01*
X63513168Y19178910D01*
X63494448Y19165026D01*
X63474457Y19153044D01*
X63453387Y19143079D01*
X63431443Y19135227D01*
X63408834Y19129563D01*
X63385779Y19126144D01*
X63362500Y19125000D01*
X62787500Y19125000D01*
X62764221Y19126144D01*
X62741166Y19129563D01*
X62718557Y19135227D01*
X62696613Y19143079D01*
X62675543Y19153044D01*
X62655552Y19165026D01*
X62636832Y19178910D01*
X62619562Y19194562D01*
X62603910Y19211832D01*
X62590026Y19230552D01*
X62578044Y19250543D01*
X62568079Y19271613D01*
X62560227Y19293557D01*
X62554563Y19316166D01*
X62551144Y19339221D01*
X62550000Y19362500D01*
X62550000Y19837500D01*
X62551144Y19860779D01*
X62554563Y19883834D01*
X62560227Y19906443D01*
X62568079Y19928387D01*
X62578044Y19949457D01*
X62590026Y19969448D01*
X62603910Y19988168D01*
X62619562Y20005438D01*
X62636832Y20021090D01*
X62655552Y20034974D01*
X62675543Y20046956D01*
X62696613Y20056921D01*
X62718557Y20064773D01*
X62741166Y20070437D01*
X62764221Y20073856D01*
X62787500Y20075000D01*
X63362500Y20075000D01*
X63385779Y20073856D01*
X63385779Y20073856D01*
G37*
D12*
X63075000Y19600000D03*
D11*
G36*
X63385779Y18548856D02*
G01*
X63408834Y18545437D01*
X63431443Y18539773D01*
X63453387Y18531921D01*
X63474457Y18521956D01*
X63494448Y18509974D01*
X63513168Y18496090D01*
X63530438Y18480438D01*
X63546090Y18463168D01*
X63559974Y18444448D01*
X63571956Y18424457D01*
X63581921Y18403387D01*
X63589773Y18381443D01*
X63595437Y18358834D01*
X63598856Y18335779D01*
X63600000Y18312500D01*
X63600000Y17837500D01*
X63598856Y17814221D01*
X63595437Y17791166D01*
X63589773Y17768557D01*
X63581921Y17746613D01*
X63571956Y17725543D01*
X63559974Y17705552D01*
X63546090Y17686832D01*
X63530438Y17669562D01*
X63513168Y17653910D01*
X63494448Y17640026D01*
X63474457Y17628044D01*
X63453387Y17618079D01*
X63431443Y17610227D01*
X63408834Y17604563D01*
X63385779Y17601144D01*
X63362500Y17600000D01*
X62787500Y17600000D01*
X62764221Y17601144D01*
X62741166Y17604563D01*
X62718557Y17610227D01*
X62696613Y17618079D01*
X62675543Y17628044D01*
X62655552Y17640026D01*
X62636832Y17653910D01*
X62619562Y17669562D01*
X62603910Y17686832D01*
X62590026Y17705552D01*
X62578044Y17725543D01*
X62568079Y17746613D01*
X62560227Y17768557D01*
X62554563Y17791166D01*
X62551144Y17814221D01*
X62550000Y17837500D01*
X62550000Y18312500D01*
X62551144Y18335779D01*
X62554563Y18358834D01*
X62560227Y18381443D01*
X62568079Y18403387D01*
X62578044Y18424457D01*
X62590026Y18444448D01*
X62603910Y18463168D01*
X62619562Y18480438D01*
X62636832Y18496090D01*
X62655552Y18509974D01*
X62675543Y18521956D01*
X62696613Y18531921D01*
X62718557Y18539773D01*
X62741166Y18545437D01*
X62764221Y18548856D01*
X62787500Y18550000D01*
X63362500Y18550000D01*
X63385779Y18548856D01*
X63385779Y18548856D01*
G37*
D12*
X63075000Y18075000D03*
D11*
G36*
X65135779Y18548856D02*
G01*
X65158834Y18545437D01*
X65181443Y18539773D01*
X65203387Y18531921D01*
X65224457Y18521956D01*
X65244448Y18509974D01*
X65263168Y18496090D01*
X65280438Y18480438D01*
X65296090Y18463168D01*
X65309974Y18444448D01*
X65321956Y18424457D01*
X65331921Y18403387D01*
X65339773Y18381443D01*
X65345437Y18358834D01*
X65348856Y18335779D01*
X65350000Y18312500D01*
X65350000Y17837500D01*
X65348856Y17814221D01*
X65345437Y17791166D01*
X65339773Y17768557D01*
X65331921Y17746613D01*
X65321956Y17725543D01*
X65309974Y17705552D01*
X65296090Y17686832D01*
X65280438Y17669562D01*
X65263168Y17653910D01*
X65244448Y17640026D01*
X65224457Y17628044D01*
X65203387Y17618079D01*
X65181443Y17610227D01*
X65158834Y17604563D01*
X65135779Y17601144D01*
X65112500Y17600000D01*
X64537500Y17600000D01*
X64514221Y17601144D01*
X64491166Y17604563D01*
X64468557Y17610227D01*
X64446613Y17618079D01*
X64425543Y17628044D01*
X64405552Y17640026D01*
X64386832Y17653910D01*
X64369562Y17669562D01*
X64353910Y17686832D01*
X64340026Y17705552D01*
X64328044Y17725543D01*
X64318079Y17746613D01*
X64310227Y17768557D01*
X64304563Y17791166D01*
X64301144Y17814221D01*
X64300000Y17837500D01*
X64300000Y18312500D01*
X64301144Y18335779D01*
X64304563Y18358834D01*
X64310227Y18381443D01*
X64318079Y18403387D01*
X64328044Y18424457D01*
X64340026Y18444448D01*
X64353910Y18463168D01*
X64369562Y18480438D01*
X64386832Y18496090D01*
X64405552Y18509974D01*
X64425543Y18521956D01*
X64446613Y18531921D01*
X64468557Y18539773D01*
X64491166Y18545437D01*
X64514221Y18548856D01*
X64537500Y18550000D01*
X65112500Y18550000D01*
X65135779Y18548856D01*
X65135779Y18548856D01*
G37*
D12*
X64825000Y18075000D03*
D11*
G36*
X63385779Y17023856D02*
G01*
X63408834Y17020437D01*
X63431443Y17014773D01*
X63453387Y17006921D01*
X63474457Y16996956D01*
X63494448Y16984974D01*
X63513168Y16971090D01*
X63530438Y16955438D01*
X63546090Y16938168D01*
X63559974Y16919448D01*
X63571956Y16899457D01*
X63581921Y16878387D01*
X63589773Y16856443D01*
X63595437Y16833834D01*
X63598856Y16810779D01*
X63600000Y16787500D01*
X63600000Y16312500D01*
X63598856Y16289221D01*
X63595437Y16266166D01*
X63589773Y16243557D01*
X63581921Y16221613D01*
X63571956Y16200543D01*
X63559974Y16180552D01*
X63546090Y16161832D01*
X63530438Y16144562D01*
X63513168Y16128910D01*
X63494448Y16115026D01*
X63474457Y16103044D01*
X63453387Y16093079D01*
X63431443Y16085227D01*
X63408834Y16079563D01*
X63385779Y16076144D01*
X63362500Y16075000D01*
X62787500Y16075000D01*
X62764221Y16076144D01*
X62741166Y16079563D01*
X62718557Y16085227D01*
X62696613Y16093079D01*
X62675543Y16103044D01*
X62655552Y16115026D01*
X62636832Y16128910D01*
X62619562Y16144562D01*
X62603910Y16161832D01*
X62590026Y16180552D01*
X62578044Y16200543D01*
X62568079Y16221613D01*
X62560227Y16243557D01*
X62554563Y16266166D01*
X62551144Y16289221D01*
X62550000Y16312500D01*
X62550000Y16787500D01*
X62551144Y16810779D01*
X62554563Y16833834D01*
X62560227Y16856443D01*
X62568079Y16878387D01*
X62578044Y16899457D01*
X62590026Y16919448D01*
X62603910Y16938168D01*
X62619562Y16955438D01*
X62636832Y16971090D01*
X62655552Y16984974D01*
X62675543Y16996956D01*
X62696613Y17006921D01*
X62718557Y17014773D01*
X62741166Y17020437D01*
X62764221Y17023856D01*
X62787500Y17025000D01*
X63362500Y17025000D01*
X63385779Y17023856D01*
X63385779Y17023856D01*
G37*
D12*
X63075000Y16550000D03*
D11*
G36*
X65135779Y17023856D02*
G01*
X65158834Y17020437D01*
X65181443Y17014773D01*
X65203387Y17006921D01*
X65224457Y16996956D01*
X65244448Y16984974D01*
X65263168Y16971090D01*
X65280438Y16955438D01*
X65296090Y16938168D01*
X65309974Y16919448D01*
X65321956Y16899457D01*
X65331921Y16878387D01*
X65339773Y16856443D01*
X65345437Y16833834D01*
X65348856Y16810779D01*
X65350000Y16787500D01*
X65350000Y16312500D01*
X65348856Y16289221D01*
X65345437Y16266166D01*
X65339773Y16243557D01*
X65331921Y16221613D01*
X65321956Y16200543D01*
X65309974Y16180552D01*
X65296090Y16161832D01*
X65280438Y16144562D01*
X65263168Y16128910D01*
X65244448Y16115026D01*
X65224457Y16103044D01*
X65203387Y16093079D01*
X65181443Y16085227D01*
X65158834Y16079563D01*
X65135779Y16076144D01*
X65112500Y16075000D01*
X64537500Y16075000D01*
X64514221Y16076144D01*
X64491166Y16079563D01*
X64468557Y16085227D01*
X64446613Y16093079D01*
X64425543Y16103044D01*
X64405552Y16115026D01*
X64386832Y16128910D01*
X64369562Y16144562D01*
X64353910Y16161832D01*
X64340026Y16180552D01*
X64328044Y16200543D01*
X64318079Y16221613D01*
X64310227Y16243557D01*
X64304563Y16266166D01*
X64301144Y16289221D01*
X64300000Y16312500D01*
X64300000Y16787500D01*
X64301144Y16810779D01*
X64304563Y16833834D01*
X64310227Y16856443D01*
X64318079Y16878387D01*
X64328044Y16899457D01*
X64340026Y16919448D01*
X64353910Y16938168D01*
X64369562Y16955438D01*
X64386832Y16971090D01*
X64405552Y16984974D01*
X64425543Y16996956D01*
X64446613Y17006921D01*
X64468557Y17014773D01*
X64491166Y17020437D01*
X64514221Y17023856D01*
X64537500Y17025000D01*
X65112500Y17025000D01*
X65135779Y17023856D01*
X65135779Y17023856D01*
G37*
D12*
X64825000Y16550000D03*
D11*
G36*
X65135779Y15498856D02*
G01*
X65158834Y15495437D01*
X65181443Y15489773D01*
X65203387Y15481921D01*
X65224457Y15471956D01*
X65244448Y15459974D01*
X65263168Y15446090D01*
X65280438Y15430438D01*
X65296090Y15413168D01*
X65309974Y15394448D01*
X65321956Y15374457D01*
X65331921Y15353387D01*
X65339773Y15331443D01*
X65345437Y15308834D01*
X65348856Y15285779D01*
X65350000Y15262500D01*
X65350000Y14787500D01*
X65348856Y14764221D01*
X65345437Y14741166D01*
X65339773Y14718557D01*
X65331921Y14696613D01*
X65321956Y14675543D01*
X65309974Y14655552D01*
X65296090Y14636832D01*
X65280438Y14619562D01*
X65263168Y14603910D01*
X65244448Y14590026D01*
X65224457Y14578044D01*
X65203387Y14568079D01*
X65181443Y14560227D01*
X65158834Y14554563D01*
X65135779Y14551144D01*
X65112500Y14550000D01*
X64537500Y14550000D01*
X64514221Y14551144D01*
X64491166Y14554563D01*
X64468557Y14560227D01*
X64446613Y14568079D01*
X64425543Y14578044D01*
X64405552Y14590026D01*
X64386832Y14603910D01*
X64369562Y14619562D01*
X64353910Y14636832D01*
X64340026Y14655552D01*
X64328044Y14675543D01*
X64318079Y14696613D01*
X64310227Y14718557D01*
X64304563Y14741166D01*
X64301144Y14764221D01*
X64300000Y14787500D01*
X64300000Y15262500D01*
X64301144Y15285779D01*
X64304563Y15308834D01*
X64310227Y15331443D01*
X64318079Y15353387D01*
X64328044Y15374457D01*
X64340026Y15394448D01*
X64353910Y15413168D01*
X64369562Y15430438D01*
X64386832Y15446090D01*
X64405552Y15459974D01*
X64425543Y15471956D01*
X64446613Y15481921D01*
X64468557Y15489773D01*
X64491166Y15495437D01*
X64514221Y15498856D01*
X64537500Y15500000D01*
X65112500Y15500000D01*
X65135779Y15498856D01*
X65135779Y15498856D01*
G37*
D12*
X64825000Y15025000D03*
D11*
G36*
X63385779Y15498856D02*
G01*
X63408834Y15495437D01*
X63431443Y15489773D01*
X63453387Y15481921D01*
X63474457Y15471956D01*
X63494448Y15459974D01*
X63513168Y15446090D01*
X63530438Y15430438D01*
X63546090Y15413168D01*
X63559974Y15394448D01*
X63571956Y15374457D01*
X63581921Y15353387D01*
X63589773Y15331443D01*
X63595437Y15308834D01*
X63598856Y15285779D01*
X63600000Y15262500D01*
X63600000Y14787500D01*
X63598856Y14764221D01*
X63595437Y14741166D01*
X63589773Y14718557D01*
X63581921Y14696613D01*
X63571956Y14675543D01*
X63559974Y14655552D01*
X63546090Y14636832D01*
X63530438Y14619562D01*
X63513168Y14603910D01*
X63494448Y14590026D01*
X63474457Y14578044D01*
X63453387Y14568079D01*
X63431443Y14560227D01*
X63408834Y14554563D01*
X63385779Y14551144D01*
X63362500Y14550000D01*
X62787500Y14550000D01*
X62764221Y14551144D01*
X62741166Y14554563D01*
X62718557Y14560227D01*
X62696613Y14568079D01*
X62675543Y14578044D01*
X62655552Y14590026D01*
X62636832Y14603910D01*
X62619562Y14619562D01*
X62603910Y14636832D01*
X62590026Y14655552D01*
X62578044Y14675543D01*
X62568079Y14696613D01*
X62560227Y14718557D01*
X62554563Y14741166D01*
X62551144Y14764221D01*
X62550000Y14787500D01*
X62550000Y15262500D01*
X62551144Y15285779D01*
X62554563Y15308834D01*
X62560227Y15331443D01*
X62568079Y15353387D01*
X62578044Y15374457D01*
X62590026Y15394448D01*
X62603910Y15413168D01*
X62619562Y15430438D01*
X62636832Y15446090D01*
X62655552Y15459974D01*
X62675543Y15471956D01*
X62696613Y15481921D01*
X62718557Y15489773D01*
X62741166Y15495437D01*
X62764221Y15498856D01*
X62787500Y15500000D01*
X63362500Y15500000D01*
X63385779Y15498856D01*
X63385779Y15498856D01*
G37*
D12*
X63075000Y15025000D03*
D11*
G36*
X65135779Y13973856D02*
G01*
X65158834Y13970437D01*
X65181443Y13964773D01*
X65203387Y13956921D01*
X65224457Y13946956D01*
X65244448Y13934974D01*
X65263168Y13921090D01*
X65280438Y13905438D01*
X65296090Y13888168D01*
X65309974Y13869448D01*
X65321956Y13849457D01*
X65331921Y13828387D01*
X65339773Y13806443D01*
X65345437Y13783834D01*
X65348856Y13760779D01*
X65350000Y13737500D01*
X65350000Y13262500D01*
X65348856Y13239221D01*
X65345437Y13216166D01*
X65339773Y13193557D01*
X65331921Y13171613D01*
X65321956Y13150543D01*
X65309974Y13130552D01*
X65296090Y13111832D01*
X65280438Y13094562D01*
X65263168Y13078910D01*
X65244448Y13065026D01*
X65224457Y13053044D01*
X65203387Y13043079D01*
X65181443Y13035227D01*
X65158834Y13029563D01*
X65135779Y13026144D01*
X65112500Y13025000D01*
X64537500Y13025000D01*
X64514221Y13026144D01*
X64491166Y13029563D01*
X64468557Y13035227D01*
X64446613Y13043079D01*
X64425543Y13053044D01*
X64405552Y13065026D01*
X64386832Y13078910D01*
X64369562Y13094562D01*
X64353910Y13111832D01*
X64340026Y13130552D01*
X64328044Y13150543D01*
X64318079Y13171613D01*
X64310227Y13193557D01*
X64304563Y13216166D01*
X64301144Y13239221D01*
X64300000Y13262500D01*
X64300000Y13737500D01*
X64301144Y13760779D01*
X64304563Y13783834D01*
X64310227Y13806443D01*
X64318079Y13828387D01*
X64328044Y13849457D01*
X64340026Y13869448D01*
X64353910Y13888168D01*
X64369562Y13905438D01*
X64386832Y13921090D01*
X64405552Y13934974D01*
X64425543Y13946956D01*
X64446613Y13956921D01*
X64468557Y13964773D01*
X64491166Y13970437D01*
X64514221Y13973856D01*
X64537500Y13975000D01*
X65112500Y13975000D01*
X65135779Y13973856D01*
X65135779Y13973856D01*
G37*
D12*
X64825000Y13500000D03*
D11*
G36*
X63385779Y13973856D02*
G01*
X63408834Y13970437D01*
X63431443Y13964773D01*
X63453387Y13956921D01*
X63474457Y13946956D01*
X63494448Y13934974D01*
X63513168Y13921090D01*
X63530438Y13905438D01*
X63546090Y13888168D01*
X63559974Y13869448D01*
X63571956Y13849457D01*
X63581921Y13828387D01*
X63589773Y13806443D01*
X63595437Y13783834D01*
X63598856Y13760779D01*
X63600000Y13737500D01*
X63600000Y13262500D01*
X63598856Y13239221D01*
X63595437Y13216166D01*
X63589773Y13193557D01*
X63581921Y13171613D01*
X63571956Y13150543D01*
X63559974Y13130552D01*
X63546090Y13111832D01*
X63530438Y13094562D01*
X63513168Y13078910D01*
X63494448Y13065026D01*
X63474457Y13053044D01*
X63453387Y13043079D01*
X63431443Y13035227D01*
X63408834Y13029563D01*
X63385779Y13026144D01*
X63362500Y13025000D01*
X62787500Y13025000D01*
X62764221Y13026144D01*
X62741166Y13029563D01*
X62718557Y13035227D01*
X62696613Y13043079D01*
X62675543Y13053044D01*
X62655552Y13065026D01*
X62636832Y13078910D01*
X62619562Y13094562D01*
X62603910Y13111832D01*
X62590026Y13130552D01*
X62578044Y13150543D01*
X62568079Y13171613D01*
X62560227Y13193557D01*
X62554563Y13216166D01*
X62551144Y13239221D01*
X62550000Y13262500D01*
X62550000Y13737500D01*
X62551144Y13760779D01*
X62554563Y13783834D01*
X62560227Y13806443D01*
X62568079Y13828387D01*
X62578044Y13849457D01*
X62590026Y13869448D01*
X62603910Y13888168D01*
X62619562Y13905438D01*
X62636832Y13921090D01*
X62655552Y13934974D01*
X62675543Y13946956D01*
X62696613Y13956921D01*
X62718557Y13964773D01*
X62741166Y13970437D01*
X62764221Y13973856D01*
X62787500Y13975000D01*
X63362500Y13975000D01*
X63385779Y13973856D01*
X63385779Y13973856D01*
G37*
D12*
X63075000Y13500000D03*
D11*
G36*
X65135779Y12448856D02*
G01*
X65158834Y12445437D01*
X65181443Y12439773D01*
X65203387Y12431921D01*
X65224457Y12421956D01*
X65244448Y12409974D01*
X65263168Y12396090D01*
X65280438Y12380438D01*
X65296090Y12363168D01*
X65309974Y12344448D01*
X65321956Y12324457D01*
X65331921Y12303387D01*
X65339773Y12281443D01*
X65345437Y12258834D01*
X65348856Y12235779D01*
X65350000Y12212500D01*
X65350000Y11737500D01*
X65348856Y11714221D01*
X65345437Y11691166D01*
X65339773Y11668557D01*
X65331921Y11646613D01*
X65321956Y11625543D01*
X65309974Y11605552D01*
X65296090Y11586832D01*
X65280438Y11569562D01*
X65263168Y11553910D01*
X65244448Y11540026D01*
X65224457Y11528044D01*
X65203387Y11518079D01*
X65181443Y11510227D01*
X65158834Y11504563D01*
X65135779Y11501144D01*
X65112500Y11500000D01*
X64537500Y11500000D01*
X64514221Y11501144D01*
X64491166Y11504563D01*
X64468557Y11510227D01*
X64446613Y11518079D01*
X64425543Y11528044D01*
X64405552Y11540026D01*
X64386832Y11553910D01*
X64369562Y11569562D01*
X64353910Y11586832D01*
X64340026Y11605552D01*
X64328044Y11625543D01*
X64318079Y11646613D01*
X64310227Y11668557D01*
X64304563Y11691166D01*
X64301144Y11714221D01*
X64300000Y11737500D01*
X64300000Y12212500D01*
X64301144Y12235779D01*
X64304563Y12258834D01*
X64310227Y12281443D01*
X64318079Y12303387D01*
X64328044Y12324457D01*
X64340026Y12344448D01*
X64353910Y12363168D01*
X64369562Y12380438D01*
X64386832Y12396090D01*
X64405552Y12409974D01*
X64425543Y12421956D01*
X64446613Y12431921D01*
X64468557Y12439773D01*
X64491166Y12445437D01*
X64514221Y12448856D01*
X64537500Y12450000D01*
X65112500Y12450000D01*
X65135779Y12448856D01*
X65135779Y12448856D01*
G37*
D12*
X64825000Y11975000D03*
D11*
G36*
X63385779Y12448856D02*
G01*
X63408834Y12445437D01*
X63431443Y12439773D01*
X63453387Y12431921D01*
X63474457Y12421956D01*
X63494448Y12409974D01*
X63513168Y12396090D01*
X63530438Y12380438D01*
X63546090Y12363168D01*
X63559974Y12344448D01*
X63571956Y12324457D01*
X63581921Y12303387D01*
X63589773Y12281443D01*
X63595437Y12258834D01*
X63598856Y12235779D01*
X63600000Y12212500D01*
X63600000Y11737500D01*
X63598856Y11714221D01*
X63595437Y11691166D01*
X63589773Y11668557D01*
X63581921Y11646613D01*
X63571956Y11625543D01*
X63559974Y11605552D01*
X63546090Y11586832D01*
X63530438Y11569562D01*
X63513168Y11553910D01*
X63494448Y11540026D01*
X63474457Y11528044D01*
X63453387Y11518079D01*
X63431443Y11510227D01*
X63408834Y11504563D01*
X63385779Y11501144D01*
X63362500Y11500000D01*
X62787500Y11500000D01*
X62764221Y11501144D01*
X62741166Y11504563D01*
X62718557Y11510227D01*
X62696613Y11518079D01*
X62675543Y11528044D01*
X62655552Y11540026D01*
X62636832Y11553910D01*
X62619562Y11569562D01*
X62603910Y11586832D01*
X62590026Y11605552D01*
X62578044Y11625543D01*
X62568079Y11646613D01*
X62560227Y11668557D01*
X62554563Y11691166D01*
X62551144Y11714221D01*
X62550000Y11737500D01*
X62550000Y12212500D01*
X62551144Y12235779D01*
X62554563Y12258834D01*
X62560227Y12281443D01*
X62568079Y12303387D01*
X62578044Y12324457D01*
X62590026Y12344448D01*
X62603910Y12363168D01*
X62619562Y12380438D01*
X62636832Y12396090D01*
X62655552Y12409974D01*
X62675543Y12421956D01*
X62696613Y12431921D01*
X62718557Y12439773D01*
X62741166Y12445437D01*
X62764221Y12448856D01*
X62787500Y12450000D01*
X63362500Y12450000D01*
X63385779Y12448856D01*
X63385779Y12448856D01*
G37*
D12*
X63075000Y11975000D03*
D11*
G36*
X65135779Y10923856D02*
G01*
X65158834Y10920437D01*
X65181443Y10914773D01*
X65203387Y10906921D01*
X65224457Y10896956D01*
X65244448Y10884974D01*
X65263168Y10871090D01*
X65280438Y10855438D01*
X65296090Y10838168D01*
X65309974Y10819448D01*
X65321956Y10799457D01*
X65331921Y10778387D01*
X65339773Y10756443D01*
X65345437Y10733834D01*
X65348856Y10710779D01*
X65350000Y10687500D01*
X65350000Y10212500D01*
X65348856Y10189221D01*
X65345437Y10166166D01*
X65339773Y10143557D01*
X65331921Y10121613D01*
X65321956Y10100543D01*
X65309974Y10080552D01*
X65296090Y10061832D01*
X65280438Y10044562D01*
X65263168Y10028910D01*
X65244448Y10015026D01*
X65224457Y10003044D01*
X65203387Y9993079D01*
X65181443Y9985227D01*
X65158834Y9979563D01*
X65135779Y9976144D01*
X65112500Y9975000D01*
X64537500Y9975000D01*
X64514221Y9976144D01*
X64491166Y9979563D01*
X64468557Y9985227D01*
X64446613Y9993079D01*
X64425543Y10003044D01*
X64405552Y10015026D01*
X64386832Y10028910D01*
X64369562Y10044562D01*
X64353910Y10061832D01*
X64340026Y10080552D01*
X64328044Y10100543D01*
X64318079Y10121613D01*
X64310227Y10143557D01*
X64304563Y10166166D01*
X64301144Y10189221D01*
X64300000Y10212500D01*
X64300000Y10687500D01*
X64301144Y10710779D01*
X64304563Y10733834D01*
X64310227Y10756443D01*
X64318079Y10778387D01*
X64328044Y10799457D01*
X64340026Y10819448D01*
X64353910Y10838168D01*
X64369562Y10855438D01*
X64386832Y10871090D01*
X64405552Y10884974D01*
X64425543Y10896956D01*
X64446613Y10906921D01*
X64468557Y10914773D01*
X64491166Y10920437D01*
X64514221Y10923856D01*
X64537500Y10925000D01*
X65112500Y10925000D01*
X65135779Y10923856D01*
X65135779Y10923856D01*
G37*
D12*
X64825000Y10450000D03*
D11*
G36*
X63385779Y10923856D02*
G01*
X63408834Y10920437D01*
X63431443Y10914773D01*
X63453387Y10906921D01*
X63474457Y10896956D01*
X63494448Y10884974D01*
X63513168Y10871090D01*
X63530438Y10855438D01*
X63546090Y10838168D01*
X63559974Y10819448D01*
X63571956Y10799457D01*
X63581921Y10778387D01*
X63589773Y10756443D01*
X63595437Y10733834D01*
X63598856Y10710779D01*
X63600000Y10687500D01*
X63600000Y10212500D01*
X63598856Y10189221D01*
X63595437Y10166166D01*
X63589773Y10143557D01*
X63581921Y10121613D01*
X63571956Y10100543D01*
X63559974Y10080552D01*
X63546090Y10061832D01*
X63530438Y10044562D01*
X63513168Y10028910D01*
X63494448Y10015026D01*
X63474457Y10003044D01*
X63453387Y9993079D01*
X63431443Y9985227D01*
X63408834Y9979563D01*
X63385779Y9976144D01*
X63362500Y9975000D01*
X62787500Y9975000D01*
X62764221Y9976144D01*
X62741166Y9979563D01*
X62718557Y9985227D01*
X62696613Y9993079D01*
X62675543Y10003044D01*
X62655552Y10015026D01*
X62636832Y10028910D01*
X62619562Y10044562D01*
X62603910Y10061832D01*
X62590026Y10080552D01*
X62578044Y10100543D01*
X62568079Y10121613D01*
X62560227Y10143557D01*
X62554563Y10166166D01*
X62551144Y10189221D01*
X62550000Y10212500D01*
X62550000Y10687500D01*
X62551144Y10710779D01*
X62554563Y10733834D01*
X62560227Y10756443D01*
X62568079Y10778387D01*
X62578044Y10799457D01*
X62590026Y10819448D01*
X62603910Y10838168D01*
X62619562Y10855438D01*
X62636832Y10871090D01*
X62655552Y10884974D01*
X62675543Y10896956D01*
X62696613Y10906921D01*
X62718557Y10914773D01*
X62741166Y10920437D01*
X62764221Y10923856D01*
X62787500Y10925000D01*
X63362500Y10925000D01*
X63385779Y10923856D01*
X63385779Y10923856D01*
G37*
D12*
X63075000Y10450000D03*
D11*
G36*
X63385779Y9398856D02*
G01*
X63408834Y9395437D01*
X63431443Y9389773D01*
X63453387Y9381921D01*
X63474457Y9371956D01*
X63494448Y9359974D01*
X63513168Y9346090D01*
X63530438Y9330438D01*
X63546090Y9313168D01*
X63559974Y9294448D01*
X63571956Y9274457D01*
X63581921Y9253387D01*
X63589773Y9231443D01*
X63595437Y9208834D01*
X63598856Y9185779D01*
X63600000Y9162500D01*
X63600000Y8687500D01*
X63598856Y8664221D01*
X63595437Y8641166D01*
X63589773Y8618557D01*
X63581921Y8596613D01*
X63571956Y8575543D01*
X63559974Y8555552D01*
X63546090Y8536832D01*
X63530438Y8519562D01*
X63513168Y8503910D01*
X63494448Y8490026D01*
X63474457Y8478044D01*
X63453387Y8468079D01*
X63431443Y8460227D01*
X63408834Y8454563D01*
X63385779Y8451144D01*
X63362500Y8450000D01*
X62787500Y8450000D01*
X62764221Y8451144D01*
X62741166Y8454563D01*
X62718557Y8460227D01*
X62696613Y8468079D01*
X62675543Y8478044D01*
X62655552Y8490026D01*
X62636832Y8503910D01*
X62619562Y8519562D01*
X62603910Y8536832D01*
X62590026Y8555552D01*
X62578044Y8575543D01*
X62568079Y8596613D01*
X62560227Y8618557D01*
X62554563Y8641166D01*
X62551144Y8664221D01*
X62550000Y8687500D01*
X62550000Y9162500D01*
X62551144Y9185779D01*
X62554563Y9208834D01*
X62560227Y9231443D01*
X62568079Y9253387D01*
X62578044Y9274457D01*
X62590026Y9294448D01*
X62603910Y9313168D01*
X62619562Y9330438D01*
X62636832Y9346090D01*
X62655552Y9359974D01*
X62675543Y9371956D01*
X62696613Y9381921D01*
X62718557Y9389773D01*
X62741166Y9395437D01*
X62764221Y9398856D01*
X62787500Y9400000D01*
X63362500Y9400000D01*
X63385779Y9398856D01*
X63385779Y9398856D01*
G37*
D12*
X63075000Y8925000D03*
D11*
G36*
X65135779Y9398856D02*
G01*
X65158834Y9395437D01*
X65181443Y9389773D01*
X65203387Y9381921D01*
X65224457Y9371956D01*
X65244448Y9359974D01*
X65263168Y9346090D01*
X65280438Y9330438D01*
X65296090Y9313168D01*
X65309974Y9294448D01*
X65321956Y9274457D01*
X65331921Y9253387D01*
X65339773Y9231443D01*
X65345437Y9208834D01*
X65348856Y9185779D01*
X65350000Y9162500D01*
X65350000Y8687500D01*
X65348856Y8664221D01*
X65345437Y8641166D01*
X65339773Y8618557D01*
X65331921Y8596613D01*
X65321956Y8575543D01*
X65309974Y8555552D01*
X65296090Y8536832D01*
X65280438Y8519562D01*
X65263168Y8503910D01*
X65244448Y8490026D01*
X65224457Y8478044D01*
X65203387Y8468079D01*
X65181443Y8460227D01*
X65158834Y8454563D01*
X65135779Y8451144D01*
X65112500Y8450000D01*
X64537500Y8450000D01*
X64514221Y8451144D01*
X64491166Y8454563D01*
X64468557Y8460227D01*
X64446613Y8468079D01*
X64425543Y8478044D01*
X64405552Y8490026D01*
X64386832Y8503910D01*
X64369562Y8519562D01*
X64353910Y8536832D01*
X64340026Y8555552D01*
X64328044Y8575543D01*
X64318079Y8596613D01*
X64310227Y8618557D01*
X64304563Y8641166D01*
X64301144Y8664221D01*
X64300000Y8687500D01*
X64300000Y9162500D01*
X64301144Y9185779D01*
X64304563Y9208834D01*
X64310227Y9231443D01*
X64318079Y9253387D01*
X64328044Y9274457D01*
X64340026Y9294448D01*
X64353910Y9313168D01*
X64369562Y9330438D01*
X64386832Y9346090D01*
X64405552Y9359974D01*
X64425543Y9371956D01*
X64446613Y9381921D01*
X64468557Y9389773D01*
X64491166Y9395437D01*
X64514221Y9398856D01*
X64537500Y9400000D01*
X65112500Y9400000D01*
X65135779Y9398856D01*
X65135779Y9398856D01*
G37*
D12*
X64825000Y8925000D03*
D11*
G36*
X63385779Y7873856D02*
G01*
X63408834Y7870437D01*
X63431443Y7864773D01*
X63453387Y7856921D01*
X63474457Y7846956D01*
X63494448Y7834974D01*
X63513168Y7821090D01*
X63530438Y7805438D01*
X63546090Y7788168D01*
X63559974Y7769448D01*
X63571956Y7749457D01*
X63581921Y7728387D01*
X63589773Y7706443D01*
X63595437Y7683834D01*
X63598856Y7660779D01*
X63600000Y7637500D01*
X63600000Y7162500D01*
X63598856Y7139221D01*
X63595437Y7116166D01*
X63589773Y7093557D01*
X63581921Y7071613D01*
X63571956Y7050543D01*
X63559974Y7030552D01*
X63546090Y7011832D01*
X63530438Y6994562D01*
X63513168Y6978910D01*
X63494448Y6965026D01*
X63474457Y6953044D01*
X63453387Y6943079D01*
X63431443Y6935227D01*
X63408834Y6929563D01*
X63385779Y6926144D01*
X63362500Y6925000D01*
X62787500Y6925000D01*
X62764221Y6926144D01*
X62741166Y6929563D01*
X62718557Y6935227D01*
X62696613Y6943079D01*
X62675543Y6953044D01*
X62655552Y6965026D01*
X62636832Y6978910D01*
X62619562Y6994562D01*
X62603910Y7011832D01*
X62590026Y7030552D01*
X62578044Y7050543D01*
X62568079Y7071613D01*
X62560227Y7093557D01*
X62554563Y7116166D01*
X62551144Y7139221D01*
X62550000Y7162500D01*
X62550000Y7637500D01*
X62551144Y7660779D01*
X62554563Y7683834D01*
X62560227Y7706443D01*
X62568079Y7728387D01*
X62578044Y7749457D01*
X62590026Y7769448D01*
X62603910Y7788168D01*
X62619562Y7805438D01*
X62636832Y7821090D01*
X62655552Y7834974D01*
X62675543Y7846956D01*
X62696613Y7856921D01*
X62718557Y7864773D01*
X62741166Y7870437D01*
X62764221Y7873856D01*
X62787500Y7875000D01*
X63362500Y7875000D01*
X63385779Y7873856D01*
X63385779Y7873856D01*
G37*
D12*
X63075000Y7400000D03*
D11*
G36*
X65135779Y7873856D02*
G01*
X65158834Y7870437D01*
X65181443Y7864773D01*
X65203387Y7856921D01*
X65224457Y7846956D01*
X65244448Y7834974D01*
X65263168Y7821090D01*
X65280438Y7805438D01*
X65296090Y7788168D01*
X65309974Y7769448D01*
X65321956Y7749457D01*
X65331921Y7728387D01*
X65339773Y7706443D01*
X65345437Y7683834D01*
X65348856Y7660779D01*
X65350000Y7637500D01*
X65350000Y7162500D01*
X65348856Y7139221D01*
X65345437Y7116166D01*
X65339773Y7093557D01*
X65331921Y7071613D01*
X65321956Y7050543D01*
X65309974Y7030552D01*
X65296090Y7011832D01*
X65280438Y6994562D01*
X65263168Y6978910D01*
X65244448Y6965026D01*
X65224457Y6953044D01*
X65203387Y6943079D01*
X65181443Y6935227D01*
X65158834Y6929563D01*
X65135779Y6926144D01*
X65112500Y6925000D01*
X64537500Y6925000D01*
X64514221Y6926144D01*
X64491166Y6929563D01*
X64468557Y6935227D01*
X64446613Y6943079D01*
X64425543Y6953044D01*
X64405552Y6965026D01*
X64386832Y6978910D01*
X64369562Y6994562D01*
X64353910Y7011832D01*
X64340026Y7030552D01*
X64328044Y7050543D01*
X64318079Y7071613D01*
X64310227Y7093557D01*
X64304563Y7116166D01*
X64301144Y7139221D01*
X64300000Y7162500D01*
X64300000Y7637500D01*
X64301144Y7660779D01*
X64304563Y7683834D01*
X64310227Y7706443D01*
X64318079Y7728387D01*
X64328044Y7749457D01*
X64340026Y7769448D01*
X64353910Y7788168D01*
X64369562Y7805438D01*
X64386832Y7821090D01*
X64405552Y7834974D01*
X64425543Y7846956D01*
X64446613Y7856921D01*
X64468557Y7864773D01*
X64491166Y7870437D01*
X64514221Y7873856D01*
X64537500Y7875000D01*
X65112500Y7875000D01*
X65135779Y7873856D01*
X65135779Y7873856D01*
G37*
D12*
X64825000Y7400000D03*
D11*
G36*
X65135779Y6348856D02*
G01*
X65158834Y6345437D01*
X65181443Y6339773D01*
X65203387Y6331921D01*
X65224457Y6321956D01*
X65244448Y6309974D01*
X65263168Y6296090D01*
X65280438Y6280438D01*
X65296090Y6263168D01*
X65309974Y6244448D01*
X65321956Y6224457D01*
X65331921Y6203387D01*
X65339773Y6181443D01*
X65345437Y6158834D01*
X65348856Y6135779D01*
X65350000Y6112500D01*
X65350000Y5637500D01*
X65348856Y5614221D01*
X65345437Y5591166D01*
X65339773Y5568557D01*
X65331921Y5546613D01*
X65321956Y5525543D01*
X65309974Y5505552D01*
X65296090Y5486832D01*
X65280438Y5469562D01*
X65263168Y5453910D01*
X65244448Y5440026D01*
X65224457Y5428044D01*
X65203387Y5418079D01*
X65181443Y5410227D01*
X65158834Y5404563D01*
X65135779Y5401144D01*
X65112500Y5400000D01*
X64537500Y5400000D01*
X64514221Y5401144D01*
X64491166Y5404563D01*
X64468557Y5410227D01*
X64446613Y5418079D01*
X64425543Y5428044D01*
X64405552Y5440026D01*
X64386832Y5453910D01*
X64369562Y5469562D01*
X64353910Y5486832D01*
X64340026Y5505552D01*
X64328044Y5525543D01*
X64318079Y5546613D01*
X64310227Y5568557D01*
X64304563Y5591166D01*
X64301144Y5614221D01*
X64300000Y5637500D01*
X64300000Y6112500D01*
X64301144Y6135779D01*
X64304563Y6158834D01*
X64310227Y6181443D01*
X64318079Y6203387D01*
X64328044Y6224457D01*
X64340026Y6244448D01*
X64353910Y6263168D01*
X64369562Y6280438D01*
X64386832Y6296090D01*
X64405552Y6309974D01*
X64425543Y6321956D01*
X64446613Y6331921D01*
X64468557Y6339773D01*
X64491166Y6345437D01*
X64514221Y6348856D01*
X64537500Y6350000D01*
X65112500Y6350000D01*
X65135779Y6348856D01*
X65135779Y6348856D01*
G37*
D12*
X64825000Y5875000D03*
D11*
G36*
X63385779Y6348856D02*
G01*
X63408834Y6345437D01*
X63431443Y6339773D01*
X63453387Y6331921D01*
X63474457Y6321956D01*
X63494448Y6309974D01*
X63513168Y6296090D01*
X63530438Y6280438D01*
X63546090Y6263168D01*
X63559974Y6244448D01*
X63571956Y6224457D01*
X63581921Y6203387D01*
X63589773Y6181443D01*
X63595437Y6158834D01*
X63598856Y6135779D01*
X63600000Y6112500D01*
X63600000Y5637500D01*
X63598856Y5614221D01*
X63595437Y5591166D01*
X63589773Y5568557D01*
X63581921Y5546613D01*
X63571956Y5525543D01*
X63559974Y5505552D01*
X63546090Y5486832D01*
X63530438Y5469562D01*
X63513168Y5453910D01*
X63494448Y5440026D01*
X63474457Y5428044D01*
X63453387Y5418079D01*
X63431443Y5410227D01*
X63408834Y5404563D01*
X63385779Y5401144D01*
X63362500Y5400000D01*
X62787500Y5400000D01*
X62764221Y5401144D01*
X62741166Y5404563D01*
X62718557Y5410227D01*
X62696613Y5418079D01*
X62675543Y5428044D01*
X62655552Y5440026D01*
X62636832Y5453910D01*
X62619562Y5469562D01*
X62603910Y5486832D01*
X62590026Y5505552D01*
X62578044Y5525543D01*
X62568079Y5546613D01*
X62560227Y5568557D01*
X62554563Y5591166D01*
X62551144Y5614221D01*
X62550000Y5637500D01*
X62550000Y6112500D01*
X62551144Y6135779D01*
X62554563Y6158834D01*
X62560227Y6181443D01*
X62568079Y6203387D01*
X62578044Y6224457D01*
X62590026Y6244448D01*
X62603910Y6263168D01*
X62619562Y6280438D01*
X62636832Y6296090D01*
X62655552Y6309974D01*
X62675543Y6321956D01*
X62696613Y6331921D01*
X62718557Y6339773D01*
X62741166Y6345437D01*
X62764221Y6348856D01*
X62787500Y6350000D01*
X63362500Y6350000D01*
X63385779Y6348856D01*
X63385779Y6348856D01*
G37*
D12*
X63075000Y5875000D03*
D11*
G36*
X63385779Y4823856D02*
G01*
X63408834Y4820437D01*
X63431443Y4814773D01*
X63453387Y4806921D01*
X63474457Y4796956D01*
X63494448Y4784974D01*
X63513168Y4771090D01*
X63530438Y4755438D01*
X63546090Y4738168D01*
X63559974Y4719448D01*
X63571956Y4699457D01*
X63581921Y4678387D01*
X63589773Y4656443D01*
X63595437Y4633834D01*
X63598856Y4610779D01*
X63600000Y4587500D01*
X63600000Y4112500D01*
X63598856Y4089221D01*
X63595437Y4066166D01*
X63589773Y4043557D01*
X63581921Y4021613D01*
X63571956Y4000543D01*
X63559974Y3980552D01*
X63546090Y3961832D01*
X63530438Y3944562D01*
X63513168Y3928910D01*
X63494448Y3915026D01*
X63474457Y3903044D01*
X63453387Y3893079D01*
X63431443Y3885227D01*
X63408834Y3879563D01*
X63385779Y3876144D01*
X63362500Y3875000D01*
X62787500Y3875000D01*
X62764221Y3876144D01*
X62741166Y3879563D01*
X62718557Y3885227D01*
X62696613Y3893079D01*
X62675543Y3903044D01*
X62655552Y3915026D01*
X62636832Y3928910D01*
X62619562Y3944562D01*
X62603910Y3961832D01*
X62590026Y3980552D01*
X62578044Y4000543D01*
X62568079Y4021613D01*
X62560227Y4043557D01*
X62554563Y4066166D01*
X62551144Y4089221D01*
X62550000Y4112500D01*
X62550000Y4587500D01*
X62551144Y4610779D01*
X62554563Y4633834D01*
X62560227Y4656443D01*
X62568079Y4678387D01*
X62578044Y4699457D01*
X62590026Y4719448D01*
X62603910Y4738168D01*
X62619562Y4755438D01*
X62636832Y4771090D01*
X62655552Y4784974D01*
X62675543Y4796956D01*
X62696613Y4806921D01*
X62718557Y4814773D01*
X62741166Y4820437D01*
X62764221Y4823856D01*
X62787500Y4825000D01*
X63362500Y4825000D01*
X63385779Y4823856D01*
X63385779Y4823856D01*
G37*
D12*
X63075000Y4350000D03*
D11*
G36*
X65135779Y4823856D02*
G01*
X65158834Y4820437D01*
X65181443Y4814773D01*
X65203387Y4806921D01*
X65224457Y4796956D01*
X65244448Y4784974D01*
X65263168Y4771090D01*
X65280438Y4755438D01*
X65296090Y4738168D01*
X65309974Y4719448D01*
X65321956Y4699457D01*
X65331921Y4678387D01*
X65339773Y4656443D01*
X65345437Y4633834D01*
X65348856Y4610779D01*
X65350000Y4587500D01*
X65350000Y4112500D01*
X65348856Y4089221D01*
X65345437Y4066166D01*
X65339773Y4043557D01*
X65331921Y4021613D01*
X65321956Y4000543D01*
X65309974Y3980552D01*
X65296090Y3961832D01*
X65280438Y3944562D01*
X65263168Y3928910D01*
X65244448Y3915026D01*
X65224457Y3903044D01*
X65203387Y3893079D01*
X65181443Y3885227D01*
X65158834Y3879563D01*
X65135779Y3876144D01*
X65112500Y3875000D01*
X64537500Y3875000D01*
X64514221Y3876144D01*
X64491166Y3879563D01*
X64468557Y3885227D01*
X64446613Y3893079D01*
X64425543Y3903044D01*
X64405552Y3915026D01*
X64386832Y3928910D01*
X64369562Y3944562D01*
X64353910Y3961832D01*
X64340026Y3980552D01*
X64328044Y4000543D01*
X64318079Y4021613D01*
X64310227Y4043557D01*
X64304563Y4066166D01*
X64301144Y4089221D01*
X64300000Y4112500D01*
X64300000Y4587500D01*
X64301144Y4610779D01*
X64304563Y4633834D01*
X64310227Y4656443D01*
X64318079Y4678387D01*
X64328044Y4699457D01*
X64340026Y4719448D01*
X64353910Y4738168D01*
X64369562Y4755438D01*
X64386832Y4771090D01*
X64405552Y4784974D01*
X64425543Y4796956D01*
X64446613Y4806921D01*
X64468557Y4814773D01*
X64491166Y4820437D01*
X64514221Y4823856D01*
X64537500Y4825000D01*
X65112500Y4825000D01*
X65135779Y4823856D01*
X65135779Y4823856D01*
G37*
D12*
X64825000Y4350000D03*
D11*
G36*
X63385779Y3298856D02*
G01*
X63408834Y3295437D01*
X63431443Y3289773D01*
X63453387Y3281921D01*
X63474457Y3271956D01*
X63494448Y3259974D01*
X63513168Y3246090D01*
X63530438Y3230438D01*
X63546090Y3213168D01*
X63559974Y3194448D01*
X63571956Y3174457D01*
X63581921Y3153387D01*
X63589773Y3131443D01*
X63595437Y3108834D01*
X63598856Y3085779D01*
X63600000Y3062500D01*
X63600000Y2587500D01*
X63598856Y2564221D01*
X63595437Y2541166D01*
X63589773Y2518557D01*
X63581921Y2496613D01*
X63571956Y2475543D01*
X63559974Y2455552D01*
X63546090Y2436832D01*
X63530438Y2419562D01*
X63513168Y2403910D01*
X63494448Y2390026D01*
X63474457Y2378044D01*
X63453387Y2368079D01*
X63431443Y2360227D01*
X63408834Y2354563D01*
X63385779Y2351144D01*
X63362500Y2350000D01*
X62787500Y2350000D01*
X62764221Y2351144D01*
X62741166Y2354563D01*
X62718557Y2360227D01*
X62696613Y2368079D01*
X62675543Y2378044D01*
X62655552Y2390026D01*
X62636832Y2403910D01*
X62619562Y2419562D01*
X62603910Y2436832D01*
X62590026Y2455552D01*
X62578044Y2475543D01*
X62568079Y2496613D01*
X62560227Y2518557D01*
X62554563Y2541166D01*
X62551144Y2564221D01*
X62550000Y2587500D01*
X62550000Y3062500D01*
X62551144Y3085779D01*
X62554563Y3108834D01*
X62560227Y3131443D01*
X62568079Y3153387D01*
X62578044Y3174457D01*
X62590026Y3194448D01*
X62603910Y3213168D01*
X62619562Y3230438D01*
X62636832Y3246090D01*
X62655552Y3259974D01*
X62675543Y3271956D01*
X62696613Y3281921D01*
X62718557Y3289773D01*
X62741166Y3295437D01*
X62764221Y3298856D01*
X62787500Y3300000D01*
X63362500Y3300000D01*
X63385779Y3298856D01*
X63385779Y3298856D01*
G37*
D12*
X63075000Y2825000D03*
D11*
G36*
X65135779Y3298856D02*
G01*
X65158834Y3295437D01*
X65181443Y3289773D01*
X65203387Y3281921D01*
X65224457Y3271956D01*
X65244448Y3259974D01*
X65263168Y3246090D01*
X65280438Y3230438D01*
X65296090Y3213168D01*
X65309974Y3194448D01*
X65321956Y3174457D01*
X65331921Y3153387D01*
X65339773Y3131443D01*
X65345437Y3108834D01*
X65348856Y3085779D01*
X65350000Y3062500D01*
X65350000Y2587500D01*
X65348856Y2564221D01*
X65345437Y2541166D01*
X65339773Y2518557D01*
X65331921Y2496613D01*
X65321956Y2475543D01*
X65309974Y2455552D01*
X65296090Y2436832D01*
X65280438Y2419562D01*
X65263168Y2403910D01*
X65244448Y2390026D01*
X65224457Y2378044D01*
X65203387Y2368079D01*
X65181443Y2360227D01*
X65158834Y2354563D01*
X65135779Y2351144D01*
X65112500Y2350000D01*
X64537500Y2350000D01*
X64514221Y2351144D01*
X64491166Y2354563D01*
X64468557Y2360227D01*
X64446613Y2368079D01*
X64425543Y2378044D01*
X64405552Y2390026D01*
X64386832Y2403910D01*
X64369562Y2419562D01*
X64353910Y2436832D01*
X64340026Y2455552D01*
X64328044Y2475543D01*
X64318079Y2496613D01*
X64310227Y2518557D01*
X64304563Y2541166D01*
X64301144Y2564221D01*
X64300000Y2587500D01*
X64300000Y3062500D01*
X64301144Y3085779D01*
X64304563Y3108834D01*
X64310227Y3131443D01*
X64318079Y3153387D01*
X64328044Y3174457D01*
X64340026Y3194448D01*
X64353910Y3213168D01*
X64369562Y3230438D01*
X64386832Y3246090D01*
X64405552Y3259974D01*
X64425543Y3271956D01*
X64446613Y3281921D01*
X64468557Y3289773D01*
X64491166Y3295437D01*
X64514221Y3298856D01*
X64537500Y3300000D01*
X65112500Y3300000D01*
X65135779Y3298856D01*
X65135779Y3298856D01*
G37*
D12*
X64825000Y2825000D03*
D11*
G36*
X65135779Y1773856D02*
G01*
X65158834Y1770437D01*
X65181443Y1764773D01*
X65203387Y1756921D01*
X65224457Y1746956D01*
X65244448Y1734974D01*
X65263168Y1721090D01*
X65280438Y1705438D01*
X65296090Y1688168D01*
X65309974Y1669448D01*
X65321956Y1649457D01*
X65331921Y1628387D01*
X65339773Y1606443D01*
X65345437Y1583834D01*
X65348856Y1560779D01*
X65350000Y1537500D01*
X65350000Y1062500D01*
X65348856Y1039221D01*
X65345437Y1016166D01*
X65339773Y993557D01*
X65331921Y971613D01*
X65321956Y950543D01*
X65309974Y930552D01*
X65296090Y911832D01*
X65280438Y894562D01*
X65263168Y878910D01*
X65244448Y865026D01*
X65224457Y853044D01*
X65203387Y843079D01*
X65181443Y835227D01*
X65158834Y829563D01*
X65135779Y826144D01*
X65112500Y825000D01*
X64537500Y825000D01*
X64514221Y826144D01*
X64491166Y829563D01*
X64468557Y835227D01*
X64446613Y843079D01*
X64425543Y853044D01*
X64405552Y865026D01*
X64386832Y878910D01*
X64369562Y894562D01*
X64353910Y911832D01*
X64340026Y930552D01*
X64328044Y950543D01*
X64318079Y971613D01*
X64310227Y993557D01*
X64304563Y1016166D01*
X64301144Y1039221D01*
X64300000Y1062500D01*
X64300000Y1537500D01*
X64301144Y1560779D01*
X64304563Y1583834D01*
X64310227Y1606443D01*
X64318079Y1628387D01*
X64328044Y1649457D01*
X64340026Y1669448D01*
X64353910Y1688168D01*
X64369562Y1705438D01*
X64386832Y1721090D01*
X64405552Y1734974D01*
X64425543Y1746956D01*
X64446613Y1756921D01*
X64468557Y1764773D01*
X64491166Y1770437D01*
X64514221Y1773856D01*
X64537500Y1775000D01*
X65112500Y1775000D01*
X65135779Y1773856D01*
X65135779Y1773856D01*
G37*
D12*
X64825000Y1300000D03*
D11*
G36*
X63385779Y1773856D02*
G01*
X63408834Y1770437D01*
X63431443Y1764773D01*
X63453387Y1756921D01*
X63474457Y1746956D01*
X63494448Y1734974D01*
X63513168Y1721090D01*
X63530438Y1705438D01*
X63546090Y1688168D01*
X63559974Y1669448D01*
X63571956Y1649457D01*
X63581921Y1628387D01*
X63589773Y1606443D01*
X63595437Y1583834D01*
X63598856Y1560779D01*
X63600000Y1537500D01*
X63600000Y1062500D01*
X63598856Y1039221D01*
X63595437Y1016166D01*
X63589773Y993557D01*
X63581921Y971613D01*
X63571956Y950543D01*
X63559974Y930552D01*
X63546090Y911832D01*
X63530438Y894562D01*
X63513168Y878910D01*
X63494448Y865026D01*
X63474457Y853044D01*
X63453387Y843079D01*
X63431443Y835227D01*
X63408834Y829563D01*
X63385779Y826144D01*
X63362500Y825000D01*
X62787500Y825000D01*
X62764221Y826144D01*
X62741166Y829563D01*
X62718557Y835227D01*
X62696613Y843079D01*
X62675543Y853044D01*
X62655552Y865026D01*
X62636832Y878910D01*
X62619562Y894562D01*
X62603910Y911832D01*
X62590026Y930552D01*
X62578044Y950543D01*
X62568079Y971613D01*
X62560227Y993557D01*
X62554563Y1016166D01*
X62551144Y1039221D01*
X62550000Y1062500D01*
X62550000Y1537500D01*
X62551144Y1560779D01*
X62554563Y1583834D01*
X62560227Y1606443D01*
X62568079Y1628387D01*
X62578044Y1649457D01*
X62590026Y1669448D01*
X62603910Y1688168D01*
X62619562Y1705438D01*
X62636832Y1721090D01*
X62655552Y1734974D01*
X62675543Y1746956D01*
X62696613Y1756921D01*
X62718557Y1764773D01*
X62741166Y1770437D01*
X62764221Y1773856D01*
X62787500Y1775000D01*
X63362500Y1775000D01*
X63385779Y1773856D01*
X63385779Y1773856D01*
G37*
D12*
X63075000Y1300000D03*
D11*
G36*
X60735779Y29198856D02*
G01*
X60758834Y29195437D01*
X60781443Y29189773D01*
X60803387Y29181921D01*
X60824457Y29171956D01*
X60844448Y29159974D01*
X60863168Y29146090D01*
X60880438Y29130438D01*
X60896090Y29113168D01*
X60909974Y29094448D01*
X60921956Y29074457D01*
X60931921Y29053387D01*
X60939773Y29031443D01*
X60945437Y29008834D01*
X60948856Y28985779D01*
X60950000Y28962500D01*
X60950000Y28487500D01*
X60948856Y28464221D01*
X60945437Y28441166D01*
X60939773Y28418557D01*
X60931921Y28396613D01*
X60921956Y28375543D01*
X60909974Y28355552D01*
X60896090Y28336832D01*
X60880438Y28319562D01*
X60863168Y28303910D01*
X60844448Y28290026D01*
X60824457Y28278044D01*
X60803387Y28268079D01*
X60781443Y28260227D01*
X60758834Y28254563D01*
X60735779Y28251144D01*
X60712500Y28250000D01*
X60137500Y28250000D01*
X60114221Y28251144D01*
X60091166Y28254563D01*
X60068557Y28260227D01*
X60046613Y28268079D01*
X60025543Y28278044D01*
X60005552Y28290026D01*
X59986832Y28303910D01*
X59969562Y28319562D01*
X59953910Y28336832D01*
X59940026Y28355552D01*
X59928044Y28375543D01*
X59918079Y28396613D01*
X59910227Y28418557D01*
X59904563Y28441166D01*
X59901144Y28464221D01*
X59900000Y28487500D01*
X59900000Y28962500D01*
X59901144Y28985779D01*
X59904563Y29008834D01*
X59910227Y29031443D01*
X59918079Y29053387D01*
X59928044Y29074457D01*
X59940026Y29094448D01*
X59953910Y29113168D01*
X59969562Y29130438D01*
X59986832Y29146090D01*
X60005552Y29159974D01*
X60025543Y29171956D01*
X60046613Y29181921D01*
X60068557Y29189773D01*
X60091166Y29195437D01*
X60114221Y29198856D01*
X60137500Y29200000D01*
X60712500Y29200000D01*
X60735779Y29198856D01*
X60735779Y29198856D01*
G37*
D12*
X60425000Y28725000D03*
D11*
G36*
X62485779Y29198856D02*
G01*
X62508834Y29195437D01*
X62531443Y29189773D01*
X62553387Y29181921D01*
X62574457Y29171956D01*
X62594448Y29159974D01*
X62613168Y29146090D01*
X62630438Y29130438D01*
X62646090Y29113168D01*
X62659974Y29094448D01*
X62671956Y29074457D01*
X62681921Y29053387D01*
X62689773Y29031443D01*
X62695437Y29008834D01*
X62698856Y28985779D01*
X62700000Y28962500D01*
X62700000Y28487500D01*
X62698856Y28464221D01*
X62695437Y28441166D01*
X62689773Y28418557D01*
X62681921Y28396613D01*
X62671956Y28375543D01*
X62659974Y28355552D01*
X62646090Y28336832D01*
X62630438Y28319562D01*
X62613168Y28303910D01*
X62594448Y28290026D01*
X62574457Y28278044D01*
X62553387Y28268079D01*
X62531443Y28260227D01*
X62508834Y28254563D01*
X62485779Y28251144D01*
X62462500Y28250000D01*
X61887500Y28250000D01*
X61864221Y28251144D01*
X61841166Y28254563D01*
X61818557Y28260227D01*
X61796613Y28268079D01*
X61775543Y28278044D01*
X61755552Y28290026D01*
X61736832Y28303910D01*
X61719562Y28319562D01*
X61703910Y28336832D01*
X61690026Y28355552D01*
X61678044Y28375543D01*
X61668079Y28396613D01*
X61660227Y28418557D01*
X61654563Y28441166D01*
X61651144Y28464221D01*
X61650000Y28487500D01*
X61650000Y28962500D01*
X61651144Y28985779D01*
X61654563Y29008834D01*
X61660227Y29031443D01*
X61668079Y29053387D01*
X61678044Y29074457D01*
X61690026Y29094448D01*
X61703910Y29113168D01*
X61719562Y29130438D01*
X61736832Y29146090D01*
X61755552Y29159974D01*
X61775543Y29171956D01*
X61796613Y29181921D01*
X61818557Y29189773D01*
X61841166Y29195437D01*
X61864221Y29198856D01*
X61887500Y29200000D01*
X62462500Y29200000D01*
X62485779Y29198856D01*
X62485779Y29198856D01*
G37*
D12*
X62175000Y28725000D03*
D11*
G36*
X64435779Y30998856D02*
G01*
X64458834Y30995437D01*
X64481443Y30989773D01*
X64503387Y30981921D01*
X64524457Y30971956D01*
X64544448Y30959974D01*
X64563168Y30946090D01*
X64580438Y30930438D01*
X64596090Y30913168D01*
X64609974Y30894448D01*
X64621956Y30874457D01*
X64631921Y30853387D01*
X64639773Y30831443D01*
X64645437Y30808834D01*
X64648856Y30785779D01*
X64650000Y30762500D01*
X64650000Y30187500D01*
X64648856Y30164221D01*
X64645437Y30141166D01*
X64639773Y30118557D01*
X64631921Y30096613D01*
X64621956Y30075543D01*
X64609974Y30055552D01*
X64596090Y30036832D01*
X64580438Y30019562D01*
X64563168Y30003910D01*
X64544448Y29990026D01*
X64524457Y29978044D01*
X64503387Y29968079D01*
X64481443Y29960227D01*
X64458834Y29954563D01*
X64435779Y29951144D01*
X64412500Y29950000D01*
X63937500Y29950000D01*
X63914221Y29951144D01*
X63891166Y29954563D01*
X63868557Y29960227D01*
X63846613Y29968079D01*
X63825543Y29978044D01*
X63805552Y29990026D01*
X63786832Y30003910D01*
X63769562Y30019562D01*
X63753910Y30036832D01*
X63740026Y30055552D01*
X63728044Y30075543D01*
X63718079Y30096613D01*
X63710227Y30118557D01*
X63704563Y30141166D01*
X63701144Y30164221D01*
X63700000Y30187500D01*
X63700000Y30762500D01*
X63701144Y30785779D01*
X63704563Y30808834D01*
X63710227Y30831443D01*
X63718079Y30853387D01*
X63728044Y30874457D01*
X63740026Y30894448D01*
X63753910Y30913168D01*
X63769562Y30930438D01*
X63786832Y30946090D01*
X63805552Y30959974D01*
X63825543Y30971956D01*
X63846613Y30981921D01*
X63868557Y30989773D01*
X63891166Y30995437D01*
X63914221Y30998856D01*
X63937500Y31000000D01*
X64412500Y31000000D01*
X64435779Y30998856D01*
X64435779Y30998856D01*
G37*
D12*
X64175000Y30475000D03*
D11*
G36*
X64435779Y29248856D02*
G01*
X64458834Y29245437D01*
X64481443Y29239773D01*
X64503387Y29231921D01*
X64524457Y29221956D01*
X64544448Y29209974D01*
X64563168Y29196090D01*
X64580438Y29180438D01*
X64596090Y29163168D01*
X64609974Y29144448D01*
X64621956Y29124457D01*
X64631921Y29103387D01*
X64639773Y29081443D01*
X64645437Y29058834D01*
X64648856Y29035779D01*
X64650000Y29012500D01*
X64650000Y28437500D01*
X64648856Y28414221D01*
X64645437Y28391166D01*
X64639773Y28368557D01*
X64631921Y28346613D01*
X64621956Y28325543D01*
X64609974Y28305552D01*
X64596090Y28286832D01*
X64580438Y28269562D01*
X64563168Y28253910D01*
X64544448Y28240026D01*
X64524457Y28228044D01*
X64503387Y28218079D01*
X64481443Y28210227D01*
X64458834Y28204563D01*
X64435779Y28201144D01*
X64412500Y28200000D01*
X63937500Y28200000D01*
X63914221Y28201144D01*
X63891166Y28204563D01*
X63868557Y28210227D01*
X63846613Y28218079D01*
X63825543Y28228044D01*
X63805552Y28240026D01*
X63786832Y28253910D01*
X63769562Y28269562D01*
X63753910Y28286832D01*
X63740026Y28305552D01*
X63728044Y28325543D01*
X63718079Y28346613D01*
X63710227Y28368557D01*
X63704563Y28391166D01*
X63701144Y28414221D01*
X63700000Y28437500D01*
X63700000Y29012500D01*
X63701144Y29035779D01*
X63704563Y29058834D01*
X63710227Y29081443D01*
X63718079Y29103387D01*
X63728044Y29124457D01*
X63740026Y29144448D01*
X63753910Y29163168D01*
X63769562Y29180438D01*
X63786832Y29196090D01*
X63805552Y29209974D01*
X63825543Y29221956D01*
X63846613Y29231921D01*
X63868557Y29239773D01*
X63891166Y29245437D01*
X63914221Y29248856D01*
X63937500Y29250000D01*
X64412500Y29250000D01*
X64435779Y29248856D01*
X64435779Y29248856D01*
G37*
D12*
X64175000Y28725000D03*
D20*
X1600000Y26250000D03*
X1600000Y22250000D03*
X10500000Y26250000D03*
X10500000Y22250000D03*
X10500000Y12250000D03*
X10500000Y16250000D03*
X1600000Y12250000D03*
X1600000Y16250000D03*
X10550000Y2250000D03*
X10550000Y6250000D03*
X1650000Y2250000D03*
X1650000Y6250000D03*
X1600000Y36250000D03*
X1600000Y32250000D03*
X10500000Y36250000D03*
X10500000Y32250000D03*
D21*
X35725000Y19750000D03*
X35725000Y18950000D03*
X35725000Y18150000D03*
X35725000Y17350000D03*
X35725000Y16550000D03*
X35725000Y15750000D03*
X35725000Y14950000D03*
X35725000Y14150000D03*
D22*
X37175000Y12700000D03*
X37975000Y12700000D03*
X38775000Y12700000D03*
X39575000Y12700000D03*
X40375000Y12700000D03*
X41175000Y12700000D03*
X41975000Y12700000D03*
X42775000Y12700000D03*
D21*
X44225000Y14150000D03*
X44225000Y14950000D03*
X44225000Y15750000D03*
X44225000Y16550000D03*
X44225000Y17350000D03*
X44225000Y18150000D03*
X44225000Y18950000D03*
X44225000Y19750000D03*
D22*
X42775000Y21200000D03*
X41975000Y21200000D03*
X41175000Y21200000D03*
X40375000Y21200000D03*
X39575000Y21200000D03*
X38775000Y21200000D03*
X37975000Y21200000D03*
X37175000Y21200000D03*
D23*
X48550000Y26625000D03*
X48550000Y25975000D03*
X48550000Y25325000D03*
X48550000Y24675000D03*
X48550000Y24025000D03*
X48550000Y23375000D03*
X48550000Y22725000D03*
X48550000Y22075000D03*
X54450000Y22075000D03*
X54450000Y22725000D03*
X54450000Y23375000D03*
X54450000Y24025000D03*
X54450000Y24675000D03*
X54450000Y25325000D03*
X54450000Y25975000D03*
X54450000Y26625000D03*
X54600000Y10875000D03*
X54600000Y10225000D03*
X54600000Y9575000D03*
X54600000Y8925000D03*
X54600000Y8275000D03*
X54600000Y7625000D03*
X54600000Y6975000D03*
X54600000Y6325000D03*
X48700000Y6325000D03*
X48700000Y6975000D03*
X48700000Y7625000D03*
X48700000Y8275000D03*
X48700000Y8925000D03*
X48700000Y9575000D03*
X48700000Y10225000D03*
X48700000Y10875000D03*
D24*
X66325000Y31425000D03*
X66325000Y30475000D03*
X66325000Y29525000D03*
X69025000Y29525000D03*
X69025000Y31425000D03*
X69025000Y30475000D03*
D25*
X23400000Y41600000D03*
X20900000Y41600000D03*
D26*
X19780000Y6200000D03*
X19780000Y4900000D03*
X17120000Y4900000D03*
X17120000Y5550000D03*
X17120000Y6200000D03*
X17120000Y26200000D03*
X17120000Y25550000D03*
X17120000Y24900000D03*
X19780000Y24900000D03*
X19780000Y26200000D03*
X17120000Y16200000D03*
X17120000Y15550000D03*
X17120000Y14900000D03*
X19780000Y14900000D03*
X19780000Y16200000D03*
X19680000Y36250000D03*
X19680000Y34950000D03*
X17020000Y34950000D03*
X17020000Y35600000D03*
X17020000Y36250000D03*
M02*
