%TF.GenerationSoftware,KiCad,Pcbnew,(5.1.4)-1*%
%TF.CreationDate,2019-11-23T11:30:54-08:00*%
%TF.ProjectId,20191120_Projects_CellMonitor,32303139-3131-4323-905f-50726f6a6563,rev?*%
%TF.SameCoordinates,PXb71b000PYd787c80*%
%TF.FileFunction,Soldermask,Bot*%
%TF.FilePolarity,Negative*%
%FSLAX46Y46*%
G04 Gerber Fmt 4.6, Leading zero omitted, Abs format (unit mm)*
G04 Created by KiCad (PCBNEW (5.1.4)-1) date 2019-11-23 11:30:54*
%MOMM*%
%LPD*%
G04 APERTURE LIST*
%ADD10C,0.100000*%
G04 APERTURE END LIST*
D10*
G36*
X42648687Y31444973D02*
G01*
X42826274Y31409650D01*
X43017362Y31330498D01*
X43189336Y31215589D01*
X43335589Y31069336D01*
X43450498Y30897362D01*
X43529650Y30706274D01*
X43570000Y30503416D01*
X43570000Y30296584D01*
X43529650Y30093726D01*
X43450498Y29902638D01*
X43335589Y29730664D01*
X43189336Y29584411D01*
X43017362Y29469502D01*
X42826274Y29390350D01*
X42648687Y29355027D01*
X42623417Y29350000D01*
X42416583Y29350000D01*
X42391313Y29355027D01*
X42213726Y29390350D01*
X42022638Y29469502D01*
X41850664Y29584411D01*
X41704411Y29730664D01*
X41589502Y29902638D01*
X41510350Y30093726D01*
X41470000Y30296584D01*
X41470000Y30503416D01*
X41510350Y30706274D01*
X41589502Y30897362D01*
X41704411Y31069336D01*
X41850664Y31215589D01*
X42022638Y31330498D01*
X42213726Y31409650D01*
X42391313Y31444973D01*
X42416583Y31450000D01*
X42623417Y31450000D01*
X42648687Y31444973D01*
X42648687Y31444973D01*
G37*
G36*
X37568687Y31444973D02*
G01*
X37746274Y31409650D01*
X37937362Y31330498D01*
X38109336Y31215589D01*
X38255589Y31069336D01*
X38370498Y30897362D01*
X38449650Y30706274D01*
X38490000Y30503416D01*
X38490000Y30296584D01*
X38449650Y30093726D01*
X38370498Y29902638D01*
X38255589Y29730664D01*
X38109336Y29584411D01*
X37937362Y29469502D01*
X37746274Y29390350D01*
X37568687Y29355027D01*
X37543417Y29350000D01*
X37336583Y29350000D01*
X37311313Y29355027D01*
X37133726Y29390350D01*
X36942638Y29469502D01*
X36770664Y29584411D01*
X36624411Y29730664D01*
X36509502Y29902638D01*
X36430350Y30093726D01*
X36390000Y30296584D01*
X36390000Y30503416D01*
X36430350Y30706274D01*
X36509502Y30897362D01*
X36624411Y31069336D01*
X36770664Y31215589D01*
X36942638Y31330498D01*
X37133726Y31409650D01*
X37311313Y31444973D01*
X37336583Y31450000D01*
X37543417Y31450000D01*
X37568687Y31444973D01*
X37568687Y31444973D01*
G37*
G36*
X40108687Y31444973D02*
G01*
X40286274Y31409650D01*
X40477362Y31330498D01*
X40649336Y31215589D01*
X40795589Y31069336D01*
X40910498Y30897362D01*
X40989650Y30706274D01*
X41030000Y30503416D01*
X41030000Y30296584D01*
X40989650Y30093726D01*
X40910498Y29902638D01*
X40795589Y29730664D01*
X40649336Y29584411D01*
X40477362Y29469502D01*
X40286274Y29390350D01*
X40108687Y29355027D01*
X40083417Y29350000D01*
X39876583Y29350000D01*
X39851313Y29355027D01*
X39673726Y29390350D01*
X39482638Y29469502D01*
X39310664Y29584411D01*
X39164411Y29730664D01*
X39049502Y29902638D01*
X38970350Y30093726D01*
X38930000Y30296584D01*
X38930000Y30503416D01*
X38970350Y30706274D01*
X39049502Y30897362D01*
X39164411Y31069336D01*
X39310664Y31215589D01*
X39482638Y31330498D01*
X39673726Y31409650D01*
X39851313Y31444973D01*
X39876583Y31450000D01*
X40083417Y31450000D01*
X40108687Y31444973D01*
X40108687Y31444973D01*
G37*
G36*
X45188687Y31444973D02*
G01*
X45366274Y31409650D01*
X45557362Y31330498D01*
X45729336Y31215589D01*
X45875589Y31069336D01*
X45990498Y30897362D01*
X46069650Y30706274D01*
X46110000Y30503416D01*
X46110000Y30296584D01*
X46069650Y30093726D01*
X45990498Y29902638D01*
X45875589Y29730664D01*
X45729336Y29584411D01*
X45557362Y29469502D01*
X45366274Y29390350D01*
X45188687Y29355027D01*
X45163417Y29350000D01*
X44956583Y29350000D01*
X44931313Y29355027D01*
X44753726Y29390350D01*
X44562638Y29469502D01*
X44390664Y29584411D01*
X44244411Y29730664D01*
X44129502Y29902638D01*
X44050350Y30093726D01*
X44010000Y30296584D01*
X44010000Y30503416D01*
X44050350Y30706274D01*
X44129502Y30897362D01*
X44244411Y31069336D01*
X44390664Y31215589D01*
X44562638Y31330498D01*
X44753726Y31409650D01*
X44931313Y31444973D01*
X44956583Y31450000D01*
X45163417Y31450000D01*
X45188687Y31444973D01*
X45188687Y31444973D01*
G37*
G36*
X38050000Y33700000D02*
G01*
X36950000Y33700000D01*
X36950000Y37300000D01*
X38050000Y37300000D01*
X38050000Y33700000D01*
X38050000Y33700000D01*
G37*
G36*
X36050000Y33700000D02*
G01*
X34950000Y33700000D01*
X34950000Y37300000D01*
X36050000Y37300000D01*
X36050000Y33700000D01*
X36050000Y33700000D01*
G37*
G36*
X34050000Y33700000D02*
G01*
X32950000Y33700000D01*
X32950000Y37300000D01*
X34050000Y37300000D01*
X34050000Y33700000D01*
X34050000Y33700000D01*
G37*
G36*
X32050000Y33700000D02*
G01*
X30950000Y33700000D01*
X30950000Y37300000D01*
X32050000Y37300000D01*
X32050000Y33700000D01*
X32050000Y33700000D01*
G37*
G36*
X30050000Y33700000D02*
G01*
X28950000Y33700000D01*
X28950000Y37300000D01*
X30050000Y37300000D01*
X30050000Y33700000D01*
X30050000Y33700000D01*
G37*
G36*
X27950000Y39200000D02*
G01*
X26250000Y39200000D01*
X26250000Y42800000D01*
X27950000Y42800000D01*
X27950000Y39200000D01*
X27950000Y39200000D01*
G37*
G36*
X40750000Y39200000D02*
G01*
X39050000Y39200000D01*
X39050000Y42800000D01*
X40750000Y42800000D01*
X40750000Y39200000D01*
X40750000Y39200000D01*
G37*
M02*
