M48
; DRILL file {KiCad (5.1.4)-1} date 11/23/2019 11:30:55 AM
; FORMAT={3:3/ absolute / metric / suppress leading zeros}
; #@! TF.CreationDate,2019-11-23T11:30:55-08:00
; #@! TF.GenerationSoftware,Kicad,Pcbnew,(5.1.4)-1
FMAT,2
METRIC,TZ
T1C0.400
T2C0.600
T3C1.000
%
G90
G05
T1
X15375Y32275
X15475Y22250
X15475Y12225
X15525Y2200
X17025Y34300
X17125Y24300
X17125Y14300
X17125Y4300
X20950Y40550
X23800Y38700
X23800Y34600
X23800Y21200
X29800Y21200
X31500Y33700
X33500Y33700
X33750Y19500
X35500Y33700
X37500Y16000
X40350Y18550
X41175Y19550
X41200Y24550
X42800Y24550
X43925Y12700
X46200Y18775
X46200Y12650
X46700Y24200
X47125Y8550
X48550Y21775
X48700Y5550
X51050Y26325
X52575Y10875
X54600Y11525
X55400Y18550
X58600Y5800
X65400Y22650
X65400Y19575
X65400Y16550
X65400Y13500
X65400Y10450
X65400Y7400
X65400Y4350
X65400Y1300
T2
X25500Y11800
X57075Y27525
X57225Y10725
X57225Y8975
X59700Y25750
X62475Y31550
X64175Y31050
X67850Y26800
X69150Y26800
X73025Y3775
X78525Y22175
X78550Y1375
T3
X78700Y30000
X81300Y5800
X37440Y30400
X39980Y30400
X42520Y30400
X45060Y30400
T0
M30
